<?xml version="1.0" encoding="UTF-8"?>
<svg width="123px" height="25px" viewBox="0 0 123 25" version="1.1" xmlns="http://www.w3.org/2000/svg" xmlns:xlink="http://www.w3.org/1999/xlink">
    <!-- Generator: Sketch 45.2 (43514) - http://www.bohemiancoding.com/sketch -->
    <title>Group 10</title>
    <desc>Created with Sketch.</desc>
    <defs></defs>
    <g id="Desktop" stroke="none" stroke-width="1" fill="none" fill-rule="evenodd">
        <g id="Homepage" transform="translate(-765.000000, -3780.000000)" fill="#000000">
            <g id="Group-10" transform="translate(765.000000, 3780.000000)">
                <path d="M119.33993,13.1502832 C119.33993,13.2067087 119.33993,13.2067087 119.283504,13.2631342 C119.565632,13.2631342 119.791334,13.2067087 120.073461,13.2067087 C120.355589,13.2067087 120.637716,13.2067087 120.863418,13.2631342 C120.806993,13.2631342 120.806993,13.2067087 120.750567,13.1502832 L121.991928,13.1502832 C122.104779,13.2067087 122.21763,13.2631342 122.330481,13.2631342 C122.72546,13.3759852 122.951162,13.3195597 122.951162,13.7145382 C122.951162,13.9402402 122.838311,14.0530912 122.556183,14.0530912 C122.161205,14.0530912 121.314822,13.9402402 120.017036,13.9402402 C118.719249,13.9402402 117.816441,14.1095167 117.477888,14.1095167 C117.195761,14.1095167 117.139335,13.9966657 117.139335,13.7145382 C117.139335,13.4324107 117.365037,13.3759852 117.760016,13.3759852 C117.985718,13.3195597 118.21142,13.3195597 118.380696,13.2067087 L119.33993,13.1502832 Z M112.907423,13.1502832 C113.076699,13.2631342 113.302401,13.3195597 113.584529,13.3195597 C113.979507,13.3759852 114.148784,13.3759852 114.148784,13.6581127 C114.148784,13.8838147 114.035933,13.9966657 113.753805,13.9966657 C113.415252,13.9966657 112.794572,13.8838147 111.948189,13.8838147 C111.214658,13.8838147 110.650403,13.9966657 110.255424,13.9966657 C109.973297,13.9966657 109.860446,13.8838147 109.860446,13.6581127 C109.860446,13.2631342 110.198999,13.3759852 110.537552,13.2067087 C110.650403,13.1502832 110.706828,13.1502832 110.819679,13.0938577 L112.907423,13.1502832 L112.907423,13.1502832 Z M104.6693,13.1502832 C105.120704,13.4324107 105.572108,13.6016872 105.910661,13.6016872 C106.136363,13.6016872 106.362065,13.6016872 106.531342,13.5452617 C106.30564,13.4888362 105.967087,13.3759852 105.628534,13.1502832 L106.869895,13.1502832 C107.208448,13.3195597 107.490575,13.3195597 107.490575,13.6016872 C107.490575,13.8838147 107.039171,14.1095167 106.249214,14.1095167 C105.346406,14.1095167 104.556449,13.7709637 103.766492,13.2067087 L104.6693,13.1502832 L104.6693,13.1502832 Z M96.8261557,13.1502832 C96.8261557,13.2631342 96.7697302,13.3195597 96.7133047,13.3759852 C96.9954322,13.3195597 97.2211342,13.3195597 97.5032617,13.3195597 C97.7289637,13.3195597 98.0110912,13.3195597 98.1803677,13.3759852 C98.1239422,13.3195597 98.1239422,13.2067087 98.0675167,13.1502832 L99.2524522,13.1502832 C99.3088777,13.2067087 99.3653032,13.2067087 99.4781542,13.2631342 C99.9859837,13.4324107 100.493813,13.2631342 100.493813,13.7709637 C100.493813,13.9966657 100.380962,14.1095167 100.15526,14.1095167 C99.8167072,14.1095167 98.9703247,13.9966657 97.5596872,13.9966657 C96.1490498,13.9966657 95.1898163,14.1659422 94.7948378,14.1659422 C94.5127103,14.1659422 94.3998593,14.0530912 94.3998593,13.8273892 C94.3998593,13.4324107 94.7384123,13.4888362 95.2462418,13.4324107 C95.5283693,13.3759852 95.7540713,13.3195597 95.9233478,13.2631342 L96.8261557,13.1502832 L96.8261557,13.1502832 Z M79.8985061,13.1502832 C80.2370591,13.3195597 80.5756121,13.4888362 80.9705906,13.6016872 C80.7448886,13.4324107 80.5756121,13.2631342 80.3499101,13.1502832 L81.2527181,13.1502832 C81.8169731,13.5452617 82.4940791,13.7145382 83.3404616,13.7145382 C84.186844,13.7145382 84.9203755,13.4888362 85.5974815,13.1502832 L86.8388425,13.1502832 C85.9360345,13.9402402 84.6946735,14.4480697 83.2840361,14.4480697 C81.4784201,14.4480697 80.0677826,13.9966657 79.1085492,13.1502832 L79.8985061,13.1502832 L79.8985061,13.1502832 Z M62.5194525,13.1502832 C62.463027,13.2631342 62.463027,13.3759852 62.4066015,13.4324107 C62.6323035,13.3759852 62.8580055,13.3759852 63.0837075,13.3759852 C63.3094095,13.3759852 63.5351115,13.3759852 63.704388,13.4324107 C63.704388,13.3195597 63.6479625,13.2631342 63.6479625,13.1502832 L64.945749,13.1502832 C65.1150255,13.2631342 65.3407275,13.3195597 65.5664295,13.3759852 C66.074259,13.4324107 66.3563865,13.3759852 66.3563865,13.7709637 C66.3563865,13.9966657 66.2435355,14.1095167 65.961408,14.1095167 C65.5664295,14.1095167 64.607196,13.9966657 63.252984,13.9966657 C61.8423466,13.9966657 60.8831131,14.1659422 60.4881346,14.1659422 C60.2060071,14.1659422 60.0931561,14.0530912 60.0931561,13.8273892 C60.0931561,13.4324107 60.4317091,13.4888362 60.9395386,13.4324107 C61.2780916,13.3759852 61.5037936,13.3195597 61.7294956,13.2067087 L62.5194525,13.1502832 Z M47.1717169,13.1502832 C47.1717169,13.2067087 47.1152914,13.2631342 47.1152914,13.3759852 C47.3974189,13.3759852 47.6231209,13.3195597 47.9052484,13.3195597 C48.1873759,13.3195597 48.4695034,13.3195597 48.6952054,13.3759852 L48.4695034,13.1502832 L49.6544388,13.1502832 C49.8237153,13.2631342 49.9929918,13.3195597 50.1622683,13.3759852 C50.5572468,13.4888362 50.7829488,13.4324107 50.7829488,13.8273892 C50.7829488,14.0530912 50.6136723,14.1659422 50.3879703,14.1659422 C49.9929918,14.1659422 49.1466094,14.0530912 47.8488229,14.0530912 C46.5510364,14.0530912 45.6482284,14.2223677 45.3096754,14.2223677 C45.027548,14.2223677 44.9711225,14.1095167 44.9711225,13.8273892 C44.9711225,13.5452617 45.1968244,13.4888362 45.5918029,13.4888362 C45.9303559,13.4324107 46.2124834,13.3759852 46.3817599,13.2067087 L47.1717169,13.1502832 L47.1717169,13.1502832 Z M40.5699336,13.1502832 C40.7392101,13.3195597 41.0213375,13.4324107 41.416316,13.4324107 C41.8112945,13.4888362 41.980571,13.4888362 41.980571,13.7709637 C41.980571,13.9966657 41.86772,14.1095167 41.5855925,14.1095167 C41.2470395,14.1095167 40.6263591,13.9966657 39.7799766,13.9966657 C39.0464451,13.9966657 38.4821901,14.1095167 38.0872116,14.1095167 C37.8050841,14.1095167 37.6922331,13.9966657 37.6922331,13.7709637 C37.6922331,13.3195597 38.0307861,13.4888362 38.3693391,13.3195597 C38.5386156,13.2631342 38.6514666,13.2067087 38.7643176,13.0938577 L40.5699336,13.1502832 L40.5699336,13.1502832 Z M29.9619398,13.1502832 C29.9619398,13.2067087 30.0183653,13.2631342 30.0183653,13.3759852 L30.0747908,13.1502832 L30.8083223,13.1502832 C30.5261948,13.9966657 30.4697693,14.5044952 30.1312163,14.5044952 C29.9055143,14.5044952 29.6798123,14.0530912 29.3976848,13.1502832 L29.9619398,13.1502832 Z M18.7332656,13.1502832 C18.7332656,13.2067087 18.6768401,13.3195597 18.6204146,13.3759852 C18.9025421,13.3759852 19.1282441,13.3195597 19.4103715,13.3195597 C19.692499,13.3195597 19.9746265,13.3195597 20.2003285,13.3759852 C20.143903,13.3195597 20.031052,13.2631342 19.9746265,13.1502832 L21.1031365,13.1502832 C21.272413,13.2631342 21.4416895,13.3759852 21.6673915,13.4324107 C22.06237,13.5452617 22.288072,13.4888362 22.288072,13.8838147 C22.288072,14.1095167 22.1187955,14.2223677 21.8930935,14.2223677 C21.498115,14.2223677 20.6517325,14.1095167 19.353946,14.1095167 C18.0561596,14.1095167 17.1533516,14.2787932 16.8147986,14.2787932 C16.5326711,14.2787932 16.4762456,14.1659422 16.4762456,13.8838147 C16.4762456,13.6016872 16.7019476,13.5452617 17.0969261,13.5452617 C17.4919046,13.4888362 17.7740321,13.3759852 17.9433086,13.2631342 L18.7332656,13.1502832 L18.7332656,13.1502832 Z M12.1314822,13.1502832 C12.3007587,13.3759852 12.5828862,13.4324107 12.9778647,13.4888362 C13.3728432,13.5452617 13.5421197,13.5452617 13.5421197,13.8273892 C13.5421197,14.0530912 13.4292687,14.1659422 13.1471412,14.1659422 C12.8085882,14.1659422 12.1879077,14.0530912 11.3415252,14.0530912 C10.6079938,14.0530912 10.0437388,14.1659422 9.64876028,14.1659422 C9.36663278,14.1659422 9.25378178,14.0530912 9.25378178,13.8273892 C9.25378178,13.4324107 9.59233478,13.5452617 9.93088777,13.3759852 C10.1001643,13.3195597 10.2694408,13.2067087 10.3822918,13.0938577 L12.1314822,13.0938577 L12.1314822,13.1502832 Z M2.70842394,13.1502832 C2.65199844,14.1659422 2.53914744,15.0687501 2.25701995,15.7458561 C2.76484944,15.1251756 3.27267892,14.4480697 3.72408291,13.7709637 C3.66765741,13.6016872 3.66765741,13.3759852 3.61123192,13.1502832 L4.68331639,13.1502832 C4.73974189,13.4324107 4.79616739,13.6581127 4.79616739,13.7145382 C4.79616739,13.9966657 4.00621041,15.0123246 2.36987094,16.8179406 C1.41063747,17.8900251 0.902807979,18.5107056 0.564254987,18.5107056 C0.394978491,18.5107056 0.282127493,18.3978546 0.282127493,18.2285781 C0.282127493,17.9464506 0.902807979,17.6078976 1.41063747,16.5358131 C1.80561596,15.6330051 2.03131795,14.5044952 2.08774345,13.0938577 L2.70842394,13.1502832 L2.70842394,13.1502832 Z" id="Shape"></path>
                <path d="M119.396355,7.78986081 L120.524865,10.6675612 C121.032695,12.0217732 121.371248,12.8117302 121.991928,13.1502832 L120.750567,13.1502832 C120.412014,12.8117302 120.129887,12.0217732 119.678483,10.8368377 L118.549973,7.78986081 L119.396355,7.78986081 Z M114.205209,7.78986081 L113.69738,8.97479628 L117.647165,8.97479628 L117.195761,7.78986081 L117.70359,7.78986081 L119.001377,11.2318162 C119.283504,11.9653477 119.452781,12.4167517 119.452781,12.7553047 C119.452781,12.8681557 119.452781,12.9810067 119.33993,13.1502832 L118.437122,13.1502832 C118.719249,13.0374322 118.8321,12.8117302 118.8321,12.5296027 C118.8321,12.1346242 118.662824,11.7396457 118.549973,11.3446672 L117.929292,9.65190227 L113.471678,9.65190227 L113.020274,10.8368377 C112.738146,11.6267947 112.625295,12.1910497 112.625295,12.4731772 C112.625295,12.8117302 112.738146,12.9810067 112.907423,13.1502832 L110.819679,13.1502832 C111.496785,12.7553047 111.835338,11.6832202 112.56887,10.1033063 L113.584529,7.78986081 L114.205209,7.78986081 L114.205209,7.78986081 Z M101.848025,7.78986081 C104.217896,10.7239867 105.79781,12.4731772 106.644193,12.9810067 C106.757044,13.0374322 106.813469,13.0938577 106.92632,13.1502832 L105.684959,13.1502832 C104.556449,12.4167517 102.92011,10.6675612 100.945217,7.84628631 C100.606664,7.84628631 100.324537,7.90271181 100.098835,7.90271181 C102.017302,10.6111357 103.54079,12.3603262 104.725726,13.1502832 L103.822918,13.1502832 C102.525131,12.1346242 101.227345,10.3290082 99.3653032,7.90271181 L98.7446227,7.84628631 L98.7446227,9.20049828 C98.7446227,11.5703692 98.7446227,12.7553047 99.3653032,13.1502832 L98.1803677,13.1502832 C97.8982402,12.3603262 97.8418147,11.2882417 97.8418147,9.99045526 L97.8418147,7.78986081 L101.848025,7.78986081 Z M96.9954322,7.78986081 L96.9954322,10.6675612 C96.9954322,11.8524967 96.9954322,12.6988792 96.8261557,13.1502832 L95.9233478,13.1502832 C96.4876028,12.8681557 96.4876028,12.2474752 96.4876028,11.0061142 L96.4876028,7.78986081 L96.9954322,7.78986081 Z M88.4751819,7.78986081 L88.4751819,7.9591373 C88.4751819,9.70832776 88.3623309,11.1189652 87.6287995,12.1910497 C87.4030975,12.5296027 87.12097,12.8681557 86.8388425,13.0938577 L85.5974815,13.0938577 C85.99246,12.8681557 86.331013,12.5860282 86.6131405,12.2474752 C87.5159485,11.1753907 87.6287995,9.87760426 87.6287995,8.0155628 L87.6287995,7.67700981 L88.4751819,7.67700981 L88.4751819,7.78986081 Z M79.5035277,7.78986081 L79.5035277,8.0719883 C79.5035277,10.6675612 80.0677826,12.3603262 81.3091436,13.1502832 L80.4063356,13.1502832 C78.9392727,11.8524967 78.6007197,10.3854337 78.6007197,8.2976903 L78.6007197,7.78986081 L79.5035277,7.78986081 Z M77.8107627,7.78986081 L77.8107627,8.41054129 C77.8107627,10.7239867 78.5442942,12.3039007 79.8985061,13.1502832 L79.1085492,13.1502832 C77.9236137,12.1346242 77.3029332,10.5547102 77.3029332,8.3541158 L77.3029332,7.78986081 L77.8107627,7.78986081 Z M64.3250685,7.78986081 L64.3250685,8.91837078 L64.494345,8.91837078 C66.18711,8.91837078 67.4284709,8.52339229 68.1620024,7.78986081 L68.7826829,7.78986081 C68.5005554,8.1284138 68.1055769,8.41054129 67.7105984,8.63624329 C68.3877044,8.52339229 68.9519594,8.2412648 69.4033634,7.78986081 L70.5318734,7.78986081 C69.4597889,8.97479628 67.5977474,9.59547677 64.945749,9.59547677 L64.381494,9.59547677 L64.381494,11.2318162 C64.381494,12.2474752 64.5507705,12.8681557 65.0021745,13.2067087 L63.704388,13.2067087 C63.591537,12.3039007 63.478686,11.5139437 63.478686,10.7804122 L63.478686,7.78986081 L64.3250685,7.78986081 L64.3250685,7.78986081 Z M62.6323035,7.78986081 L62.6323035,10.7239867 C62.6323035,11.8524967 62.6323035,12.6988792 62.5194525,13.1502832 L61.6730701,13.1502832 C62.1244741,12.8681557 62.1808996,12.2474752 62.1244741,11.0625397 L62.1244741,7.78986081 L62.6323035,7.78986081 Z M47.1717169,7.78986081 L48.3566524,10.7804122 C48.8080564,11.9653477 49.1466094,12.7553047 49.6544388,13.1502832 L48.4695034,13.1502832 C48.1873759,12.7553047 47.9052484,12.0217732 47.4538444,10.9496887 L46.2689089,7.78986081 L47.1717169,7.78986081 Z M42.093422,7.78986081 L41.529167,9.08764728 L45.4789519,9.08764728 L44.9711225,7.78986081 L45.4789519,7.78986081 L46.7767384,11.3446672 C47.0588659,12.0217732 47.2281424,12.5296027 47.2281424,12.8681557 C47.2281424,12.9810067 47.2281424,13.0374322 47.1717169,13.1502832 L46.4381854,13.1502832 C46.6074619,13.0374322 46.6638874,12.8681557 46.6638874,12.6424537 C46.6638874,12.2474752 46.4946109,11.8524967 46.3817599,11.4575182 L45.7610794,9.76475326 L41.303465,9.76475326 L40.852061,10.9496887 C40.5699336,11.7396457 40.4570826,12.3039007 40.4570826,12.5860282 C40.4570826,12.8117302 40.5135081,12.9810067 40.6263591,13.1502832 L38.8207431,13.1502832 C39.3849981,12.6988792 39.7799766,11.6832202 40.4006571,10.2161573 L41.4727415,7.78986081 L42.093422,7.78986081 Z M29.4541103,7.78986081 L30.8647478,11.1753907 L32.3882362,7.78986081 L33.1781932,7.78986081 L31.2597263,12.0217732 C31.0904498,12.4731772 30.9211733,12.8117302 30.8083223,13.1502832 L30.0747908,13.1502832 L30.4133438,12.1346242 L28.5513023,7.78986081 L29.4541103,7.78986081 L29.4541103,7.78986081 Z M27.7049199,7.78986081 L28.8334298,10.3290082 C28.9462808,10.5547102 29.3412593,11.5139437 29.9619398,13.1502832 L29.3976848,13.1502832 C29.1155573,12.3039007 28.6641533,11.1189652 27.9306219,9.48262577 L27.1406649,7.78986081 L27.7049199,7.78986081 Z M18.7332656,7.78986081 L19.918201,10.8368377 C20.369605,12.0217732 20.6517325,12.7553047 21.159562,13.1502832 L20.031052,13.1502832 C19.7489245,12.7553047 19.466797,12.0217732 19.0718186,11.0061142 L17.8868831,7.78986081 L18.7332656,7.78986081 Z M13.6549707,7.78986081 L13.0907157,9.14407278 L17.0405006,9.14407278 L16.5326711,7.84628631 L17.0405006,7.84628631 L18.3947126,11.4575182 C18.6768401,12.1910497 18.8461166,12.6424537 18.8461166,12.9810067 C18.8461166,13.0374322 18.8461166,13.1502832 18.7896911,13.2631342 L18.0561596,13.2631342 C18.1690106,13.1502832 18.2254361,12.9810067 18.2254361,12.8117302 C18.2254361,12.4167517 18.0561596,12.0217732 17.9433086,11.6267947 L17.3226281,9.93402976 L12.8650137,9.93402976 L12.4136097,11.1189652 C12.1314822,11.9089222 12.0186312,12.4731772 12.0186312,12.7553047 C12.0186312,12.9810067 12.0750567,13.1502832 12.1314822,13.2631342 L10.4387173,13.2631342 C11.0029722,12.7553047 11.3415252,11.7960712 11.9622057,10.3854337 L13.0342902,7.90271181 L13.6549707,7.90271181 L13.6549707,7.78986081 Z M4.4576144,7.78986081 L4.4576144,10.6111357 C4.4576144,11.7960712 4.62689089,12.6424537 4.73974189,13.1502832 L3.66765741,13.1502832 C3.55480642,12.3603262 3.49838092,11.2882417 3.49838092,9.82117876 L3.49838092,7.78986081 L4.4576144,7.78986081 L4.4576144,7.78986081 Z M2.76484944,7.78986081 L2.76484944,9.48262577 C2.76484944,10.8932632 2.76484944,12.1346242 2.70842394,13.1502832 L2.20059445,13.1502832 C2.25701995,12.1346242 2.25701995,11.0061142 2.25701995,9.70832776 L2.25701995,7.73343531 L2.76484944,7.73343531 L2.76484944,7.78986081 Z" id="Shape"></path>
                <path d="M117.421463,2.42943843 C117.534314,2.93726792 117.760016,3.61437391 118.042143,4.29147989 L119.396355,7.78986081 L118.549973,7.78986081 L116.518655,2.42943843 L117.421463,2.42943843 L117.421463,2.42943843 Z M116.462229,2.42943843 L116.067251,3.44509741 L117.70359,7.78986081 L117.195761,7.78986081 L115.785123,4.0093524 L114.205209,7.78986081 L113.584529,7.78986081 L115.785123,2.71156593 C115.841549,2.59871493 115.841549,2.54228943 115.897974,2.42943843 L116.462229,2.42943843 L116.462229,2.42943843 Z M98.8010482,2.42943843 C98.6881972,2.88084242 98.6881972,3.50152291 98.6881972,4.40433089 L98.6881972,7.28203132 C99.0831757,7.33845682 99.3653032,7.33845682 99.5910052,7.33845682 C101.509472,7.33845682 102.637982,6.20994685 102.637982,4.40433089 C102.637982,3.55794841 102.355855,2.88084242 101.904451,2.42943843 L102.525131,2.42943843 C102.92011,2.99369342 103.145812,3.6707994 103.145812,4.46075639 C103.145812,5.70211736 102.581557,6.71777633 101.453047,7.39488232 C103.032961,7.11275482 103.879343,6.09709585 103.879343,4.51718188 C103.879343,3.6707994 103.597216,2.99369342 103.089386,2.42943843 L104.161471,2.42943843 C104.612875,2.99369342 104.838577,3.6707994 104.838577,4.46075639 C104.838577,6.15352135 103.710067,7.39488232 101.7916,7.73343531 C101.7916,7.73343531 101.7916,7.78986081 101.848025,7.78986081 L97.7289637,7.78986081 L97.7289637,3.7272249 C97.7289637,3.33224641 97.7853892,2.88084242 97.8982402,2.42943843 L98.8010482,2.42943843 L98.8010482,2.42943843 Z M96.8825812,2.42943843 C96.9390067,2.93726792 96.9390067,3.61437391 96.9390067,4.57360738 L96.9390067,7.78986081 L96.4876028,7.78986081 L96.4876028,4.23505439 C96.4876028,3.33224641 96.4876028,2.76799143 96.2619008,2.42943843 L96.8825812,2.42943843 L96.8825812,2.42943843 Z M88.8137349,2.42943843 C88.4751819,3.05011892 88.4751819,4.17862889 88.4751819,5.98424485 L88.4751819,7.78986081 L87.685225,7.78986081 L87.685225,6.04067035 C87.685225,4.12220339 87.6287995,2.99369342 87.2902465,2.42943843 L88.8137349,2.42943843 Z M79.8420806,2.42943843 C79.5035277,3.05011892 79.5035277,4.17862889 79.5035277,6.04067035 L79.5035277,7.78986081 L78.5442942,7.78986081 L78.5442942,5.30713887 C78.5442942,4.17862889 78.6007197,3.21939542 78.7699962,2.42943843 L79.8420806,2.42943843 L79.8420806,2.42943843 Z M77.6979117,2.42943843 C77.7543372,2.82441692 77.7543372,3.33224641 77.7543372,4.0093524 L77.7543372,7.78986081 L77.3029332,7.78986081 L77.3029332,4.23505439 C77.3029332,3.33224641 77.3029332,2.76799143 77.0772312,2.42943843 L77.6979117,2.42943843 L77.6979117,2.42943843 Z M70.5318734,2.42943843 C71.1525538,3.10654442 71.4911068,4.0093524 71.4911068,5.08143687 C71.4911068,6.15352135 71.1525538,7.05632933 70.5318734,7.78986081 L69.4033634,7.78986081 C70.0804694,7.16918032 70.4754479,6.20994685 70.4754479,5.08143687 C70.4754479,3.9529269 70.0240439,3.05011892 69.2340869,2.42943843 L70.5318734,2.42943843 L70.5318734,2.42943843 Z M68.4441299,2.42943843 C69.2340869,3.10654442 69.6290654,4.12220339 69.6290654,5.30713887 C69.6290654,6.32279784 69.3469379,7.16918032 68.7826829,7.78986081 L68.1620024,7.78986081 C68.7262574,7.22560582 69.0083849,6.37922334 69.0083849,5.36356437 C69.0083849,4.0657779 68.5005554,3.05011892 67.6541729,2.42943843 L68.4441299,2.42943843 L68.4441299,2.42943843 Z M64.494345,2.42943843 C64.381494,2.82441692 64.3250685,3.38867191 64.3250685,4.23505439 L64.3250685,7.78986081 L63.4222605,7.78986081 L63.4222605,3.7836504 C63.4222605,3.33224641 63.478686,2.88084242 63.591537,2.42943843 L64.494345,2.42943843 Z M62.5194525,2.42943843 C62.575878,2.93726792 62.575878,3.6707994 62.575878,4.63003288 L62.575878,7.78986081 L62.1244741,7.78986081 L62.1244741,4.29147989 C62.1244741,3.33224641 62.1244741,2.76799143 61.8987721,2.42943843 L62.5194525,2.42943843 L62.5194525,2.42943843 Z M45.1968244,2.42943843 C45.3661009,2.99369342 45.5353774,3.6707994 45.8175049,4.40433089 L47.1717169,7.78986081 L46.3253344,7.78986081 L44.2940165,2.42943843 L43.899038,3.50152291 L45.4789519,7.73343531 L44.9711225,7.73343531 L43.6169105,4.0657779 L42.093422,7.73343531 L41.4727415,7.73343531 L43.6169105,2.76799143 C43.673336,2.65514043 43.7297615,2.48586393 43.786187,2.37301293 L45.1968244,2.42943843 L45.1968244,2.42943843 Z M35.8301917,2.42943843 C35.4916387,2.76799143 35.2659367,3.21939542 34.9273837,3.9529269 L33.1781932,7.78986081 L32.3882362,7.78986081 L33.2910442,5.81496835 C33.9681502,4.29147989 34.3631287,3.27582091 34.3631287,2.71156593 C34.3631287,2.59871493 34.3631287,2.48586393 34.3067032,2.42943843 L35.8301917,2.42943843 L35.8301917,2.42943843 Z M27.5920689,2.42943843 C27.5356434,2.48586393 27.5356434,2.59871493 27.5356434,2.71156593 C27.5356434,2.99369342 27.7613454,3.55794841 28.0434728,4.34790539 L29.4541103,7.84628631 L28.6077278,7.84628631 L26.9713884,4.12220339 C26.6892609,3.50152291 26.6328354,2.99369342 26.6328354,2.71156593 L26.6328354,2.54228943 L27.5920689,2.42943843 Z M25.1093469,2.42943843 C25.6171764,3.10654442 26.0121549,4.0657779 26.5199844,5.13786237 L27.7049199,7.78986081 L27.1970904,7.78986081 L25.6736019,4.40433089 C25.2786234,3.50152291 24.8836449,2.88084242 24.4886664,2.42943843 L25.1093469,2.42943843 L25.1093469,2.42943843 Z M16.7583731,2.42943843 C16.9276496,2.99369342 17.0969261,3.6707994 17.4354791,4.46075639 L18.7332656,7.78986081 L17.8868831,7.78986081 L15.9119906,2.48586393 L15.5170121,3.55794841 L17.0969261,7.78986081 L16.5890966,7.78986081 L15.2348846,4.17862889 L13.7113962,7.78986081 L13.0907157,7.78986081 L15.2348846,2.88084242 C15.2913101,2.71156593 15.3477356,2.59871493 15.4041611,2.42943843 L16.7583731,2.42943843 L16.7583731,2.42943843 Z M4.85259289,2.42943843 C4.4576144,2.99369342 4.4576144,4.17862889 4.4576144,6.15352135 L4.4576144,7.78986081 L3.49838092,7.78986081 L3.49838092,5.41998986 C3.49838092,4.23505439 3.55480642,3.21939542 3.78050841,2.42943843 L4.85259289,2.42943843 L4.85259289,2.42943843 Z M2.59557294,2.42943843 C2.70842394,2.88084242 2.70842394,3.6707994 2.70842394,4.68645838 L2.70842394,7.78986081 L2.25701995,7.78986081 L2.25701995,4.34790539 C2.25701995,3.33224641 2.20059445,2.76799143 1.91846696,2.42943843 L2.59557294,2.42943843 L2.59557294,2.42943843 Z" id="Shape"></path>
                <path d="M115.897974,2.42943843 C116.292953,1.41377946 116.349378,0.736673473 116.744357,0.736673473 C117.026484,0.736673473 117.139335,1.35735396 117.421463,2.42943843 L116.518655,2.42943843 L116.462229,2.37301293 L116.405804,2.42943843 L115.897974,2.42943843 Z M96.3183263,2.42943843 C96.1490498,2.09088544 95.8104968,1.97803444 95.3026673,1.86518345 C94.7948378,1.80875795 94.5127103,1.86518345 94.5127103,1.47020496 C94.5127103,1.24450296 94.6255613,1.13165196 94.9076888,1.13165196 C95.3026673,1.13165196 96.2619008,1.18807746 97.6161127,1.18807746 C98.8010482,1.18807746 99.8731327,0.962375468 100.888792,0.962375468 C102.468706,0.962375468 103.653641,1.47020496 104.330747,2.37301293 L103.258663,2.37301293 C102.92011,1.97803444 102.41228,1.69590695 101.848025,1.58305595 C102.186578,1.80875795 102.41228,2.09088544 102.637982,2.37301293 L102.017302,2.37301293 C101.565898,1.86518345 100.945217,1.58305595 100.15526,1.63948145 C99.3653032,1.63948145 99.0267502,1.80875795 98.8574737,2.37301293 L97.9546657,2.37301293 C98.0110912,2.20373644 98.0675167,1.97803444 98.1239422,1.80875795 L96.7697302,1.80875795 C96.8261557,1.92160895 96.8825812,2.14731094 96.9390067,2.37301293 L96.3183263,2.42943843 L96.3183263,2.42943843 Z M87.2902465,2.42943843 C87.12097,2.20373644 86.895268,2.03445994 86.6131405,1.97803444 C85.879609,1.80875795 85.315354,1.97803444 85.315354,1.47020496 C85.315354,1.24450296 85.4846305,1.18807746 85.8231835,1.18807746 C86.218162,1.18807746 87.008119,1.30092846 88.1366289,1.30092846 C89.0958624,1.30092846 89.7729684,1.18807746 90.1679469,1.18807746 C90.4500744,1.18807746 90.5629254,1.24450296 90.5629254,1.47020496 C90.5629254,1.97803444 90.0550959,1.75233245 89.4344154,1.97803444 C89.1522879,2.03445994 88.9830114,2.20373644 88.8701604,2.48586393 L87.2902465,2.42943843 L87.2902465,2.42943843 Z M77.0772312,2.42943843 C76.9079547,2.14731094 76.5694017,1.97803444 76.0615722,1.92160895 C75.5537427,1.86518345 75.2716152,1.92160895 75.2716152,1.52663045 C75.2716152,1.30092846 75.3844662,1.18807746 75.6665937,1.18807746 C76.0615722,1.18807746 76.9643802,1.30092846 78.4314432,1.30092846 C79.8420806,1.30092846 80.7448886,1.18807746 81.1962926,1.18807746 C81.4784201,1.18807746 81.5912711,1.24450296 81.5912711,1.47020496 C81.5912711,1.97803444 81.0834416,1.75233245 80.4627611,1.97803444 C80.1806336,2.03445994 80.0113571,2.20373644 79.8985061,2.42943843 L78.8828472,2.42943843 C78.9392727,2.26016194 78.9956982,2.03445994 79.0521237,1.86518345 L77.5850607,1.86518345 C77.6414862,1.97803444 77.6979117,2.14731094 77.7543372,2.42943843 L77.0772312,2.42943843 L77.0772312,2.42943843 Z M61.8987721,2.42943843 C61.7294956,2.14731094 61.3909426,2.03445994 60.8831131,1.92160895 C60.3752836,1.86518345 60.0931561,1.92160895 60.0931561,1.52663045 C60.0931561,1.30092846 60.2060071,1.18807746 60.4881346,1.18807746 C60.9395386,1.18807746 61.8423466,1.24450296 63.1965585,1.24450296 C64.268643,1.24450296 65.4535785,1.01880097 66.8077904,1.01880097 C68.4441299,1.01880097 69.7419164,1.52663045 70.5318734,2.37301293 L69.2340869,2.37301293 C68.6698319,1.92160895 67.9363004,1.63948145 67.0334924,1.58305595 C67.5977474,1.75233245 68.0491514,2.03445994 68.4441299,2.37301293 L67.6541729,2.37301293 C67.0899179,1.97803444 66.3563865,1.69590695 65.510004,1.75233245 C64.945749,1.75233245 64.607196,1.97803444 64.494345,2.37301293 L63.591537,2.37301293 L63.7608135,1.86518345 L62.4066015,1.86518345 C62.463027,1.97803444 62.5194525,2.14731094 62.575878,2.37301293 L61.8987721,2.42943843 Z M43.786187,2.42943843 C44.12474,1.47020496 44.237591,0.84952447 44.576144,0.84952447 C44.8582715,0.84952447 44.9711225,1.41377946 45.1968244,2.42943843 L43.786187,2.42943843 Z M34.2502777,2.42943843 C34.1374267,2.14731094 33.8552992,2.03445994 33.2910442,1.97803444 C32.7832147,1.92160895 32.4446617,1.92160895 32.4446617,1.63948145 C32.4446617,1.35735396 32.5575127,1.24450296 32.8396402,1.24450296 C33.2346187,1.24450296 33.8552992,1.35735396 34.7016817,1.35735396 C35.7173407,1.35735396 36.3944467,1.24450296 36.7329996,1.24450296 C37.0715526,1.24450296 37.2408291,1.30092846 37.2408291,1.52663045 C37.2408291,1.86518345 37.0151271,1.86518345 36.6765741,1.97803444 C36.3380212,2.09088544 36.0558937,2.20373644 35.8301917,2.42943843 L34.2502777,2.42943843 L34.2502777,2.42943843 Z M24.4886664,2.42943843 C24.4886664,2.37301293 24.4322409,2.37301293 24.4886664,2.42943843 C24.1501134,2.03445994 23.7551349,2.03445994 23.3601565,1.92160895 C23.1344545,1.86518345 23.0216035,1.80875795 23.0216035,1.58305595 C23.0216035,1.35735396 23.1344545,1.24450296 23.416582,1.24450296 C23.8115604,1.24450296 24.7143684,1.35735396 26.0121549,1.35735396 C27.2535159,1.35735396 28.0434728,1.24450296 28.4948768,1.24450296 C28.7770043,1.24450296 28.8898553,1.30092846 28.8898553,1.52663045 C28.8898553,1.80875795 28.7205788,1.86518345 28.5513023,1.92160895 C28.0434728,2.03445994 27.7049199,2.14731094 27.5920689,2.42943843 L26.6328354,2.42943843 C26.6328354,2.26016194 26.7456864,2.14731094 26.8585374,1.97803444 L24.7143684,1.97803444 C24.8272194,2.09088544 24.9400704,2.26016194 25.0529214,2.42943843 L24.4886664,2.42943843 Z M15.3477356,2.42943843 C15.6862886,1.52663045 15.7991396,0.905949969 16.1376926,0.905949969 C16.4198201,0.905949969 16.5326711,1.47020496 16.7583731,2.42943843 L15.3477356,2.42943843 Z M1.91846696,2.42943843 C1.74919046,2.20373644 1.46706297,2.09088544 1.01565898,1.97803444 C0.507829488,1.92160895 0.225701995,1.97803444 0.225701995,1.58305595 C0.225701995,1.35735396 0.338552992,1.24450296 0.620680486,1.24450296 C1.01565898,1.24450296 1.91846696,1.35735396 3.38552992,1.35735396 C4.79616739,1.35735396 5.69897537,1.24450296 6.15037936,1.24450296 C6.43250685,1.24450296 6.54535785,1.30092846 6.54535785,1.52663045 C6.54535785,2.03445994 6.03752836,1.80875795 5.41684787,2.03445994 C5.19114588,2.09088544 5.02186938,2.20373644 4.90901839,2.37301293 L3.83693391,2.37301293 C3.89335941,2.20373644 3.94978491,2.09088544 4.00621041,1.92160895 L2.53914744,1.92160895 C2.59557294,2.03445994 2.65199844,2.14731094 2.65199844,2.37301293 L1.91846696,2.37301293 L1.91846696,2.42943843 Z M109.691169,21.5576825 L109.691169,21.6705335 L109.578318,21.6705335 C109.578318,21.614108 109.521893,21.5576825 109.521893,21.5576825 L109.691169,21.5576825 L109.691169,21.5576825 Z M107.716277,21.5576825 C107.772702,21.6705335 107.829128,21.726959 107.941979,21.7833845 L108.280532,21.952661 C108.393383,22.0090865 108.562659,22.065512 108.788361,22.178363 L109.18334,22.3476395 C109.296191,22.404065 109.409042,22.4604905 109.465467,22.4604905 C109.521893,22.516916 109.578318,22.5733415 109.691169,22.629767 C109.973297,22.855469 110.142573,23.1375965 110.142573,23.5325749 C110.142573,23.7582769 110.086148,23.9839789 109.916871,24.2096809 C109.80402,24.4353829 109.578318,24.5482339 109.352616,24.6610849 C109.126914,24.7739359 108.844787,24.8303614 108.562659,24.8303614 C108.336957,24.8303614 108.111255,24.7739359 107.885553,24.7175104 C107.716277,24.6610849 107.547,24.6046594 107.264873,24.5482339 L107.152022,24.4918084 L107.039171,23.3068729 L107.152022,23.3068729 C107.264873,23.6454259 107.377724,23.9275534 107.603426,24.1532554 C107.885553,24.4918084 108.167681,24.6610849 108.562659,24.6610849 C108.731936,24.6610849 108.901212,24.6046594 109.070489,24.5482339 C109.239765,24.4918084 109.352616,24.3789574 109.409042,24.2661064 C109.465467,24.1532554 109.521893,23.9839789 109.521893,23.8147024 C109.521893,23.6454259 109.465467,23.5325749 109.409042,23.4197239 C109.352616,23.3068729 109.239765,23.194022 109.070489,23.081171 C108.901212,22.96832 108.731936,22.855469 108.449808,22.742618 C108.05483,22.5733415 107.885553,22.4604905 107.772702,22.4604905 C107.603426,22.404065 107.490575,22.291214 107.377724,22.178363 C107.264873,22.065512 107.208448,21.952661 107.152022,21.83981 C107.095597,21.726959 107.095597,21.614108 107.095597,21.4448315 L107.716277,21.5576825 L107.716277,21.5576825 Z M100.832366,21.5576825 L100.832366,22.404065 L101.396621,22.404065 C101.735174,22.404065 101.960876,22.3476395 102.073727,22.291214 C102.186578,22.2347885 102.299429,22.1219375 102.355855,22.0090865 C102.41228,21.8962355 102.468706,21.726959 102.468706,21.5576825 L103.258663,21.5576825 C103.258663,21.83981 103.145812,22.065512 102.976535,22.2347885 C102.807259,22.404065 102.525131,22.4604905 102.130153,22.516916 C102.355855,22.629767 102.581557,22.742618 102.694408,22.9118945 C102.863684,23.081171 103.032961,23.3068729 103.258663,23.7018514 C103.484365,24.0968299 103.710067,24.3789574 103.879343,24.5482339 C104.04862,24.7175104 104.161471,24.8303614 104.387173,24.8867869 L104.387173,24.9996379 C104.161471,24.9996379 103.992194,24.9996379 103.822918,24.9432124 C103.653641,24.8867869 103.484365,24.8303614 103.371514,24.7175104 C103.202237,24.6046594 102.976535,24.4353829 102.807259,24.2096809 C102.637982,23.9839789 102.468706,23.7582769 102.355855,23.4761494 L102.186578,23.1375965 C102.130153,22.96832 102.017302,22.855469 101.960876,22.7990435 C101.904451,22.742618 101.848025,22.6861925 101.735174,22.629767 C101.678749,22.629767 101.565898,22.5733415 101.396621,22.5733415 L100.832366,22.5733415 L100.832366,23.8711279 C100.832366,24.0404044 100.832366,24.1532554 100.888792,24.2661064 C100.888792,24.3789574 100.945217,24.4353829 101.001643,24.4918084 C101.114494,24.6046594 101.28377,24.6610849 101.509472,24.7175104 L101.509472,24.8303614 L99.5345797,24.8303614 L99.5345797,24.6610849 C99.7602817,24.6046594 99.9295582,24.5482339 100.042409,24.3789574 C100.098835,24.2661064 100.15526,24.0968299 100.15526,23.7582769 L100.15526,21.4448315 L100.832366,21.4448315 L100.832366,21.5576825 Z M96.3747518,21.5576825 L96.3747518,21.726959 L96.2619008,21.726959 C96.2619008,21.6705335 96.2054753,21.614108 96.2054753,21.5576825 L96.3747518,21.5576825 L96.3747518,21.5576825 Z M94.0613063,21.5576825 L94.0613063,22.404065 L94.4562848,22.404065 C94.7948378,22.404065 95.0205398,22.3476395 95.1333908,22.2347885 C95.3026673,22.1219375 95.3590928,21.952661 95.4155183,21.726959 L95.5283693,21.726959 L95.5283693,23.3068729 L95.4155183,23.3068729 C95.3590928,23.081171 95.3026673,22.96832 95.2462418,22.855469 C95.1898163,22.742618 95.0769653,22.6861925 94.9641143,22.629767 C94.8512633,22.5733415 94.6819868,22.5733415 94.4562848,22.5733415 L94.0613063,22.5733415 L94.0613063,23.9275534 C94.0613063,24.1532554 94.0613063,24.2661064 94.1177318,24.3789574 C94.1741573,24.4918084 94.2305828,24.5482339 94.3434338,24.6046594 C94.4562848,24.6610849 94.5691358,24.6610849 94.7384123,24.6610849 L95.0205398,24.6610849 C95.3026673,24.6610849 95.5847948,24.5482339 95.8104968,24.3789574 C96.0926243,24.2096809 96.3747518,23.9275534 96.6568793,23.5890004 L96.7697302,23.5325749 L96.3747518,24.7739359 L92.7070943,24.7739359 L92.7070943,24.6610849 C92.9327963,24.6046594 93.1020728,24.5482339 93.2149238,24.3789574 C93.2713493,24.2661064 93.3277748,24.0968299 93.3277748,23.8147024 L93.3277748,21.501257 L94.0613063,21.501257 L94.0613063,21.5576825 Z M89.9422449,21.5576825 L89.9422449,21.726959 L89.8293939,21.726959 C89.8293939,21.6705335 89.7729684,21.614108 89.7729684,21.5576825 L89.9422449,21.5576825 L89.9422449,21.5576825 Z M88.2494799,21.5576825 L88.2494799,23.8711279 C88.2494799,24.0404044 88.2494799,24.2096809 88.3059054,24.2661064 C88.3059054,24.3789574 88.3623309,24.4353829 88.4751819,24.4918084 C88.5880329,24.6046594 88.7573094,24.6610849 89.0394369,24.7175104 L89.0394369,24.8303614 L86.8388425,24.8303614 L86.8388425,24.6610849 C87.12097,24.6046594 87.2902465,24.5482339 87.4030975,24.3789574 C87.459523,24.3225319 87.5159485,24.2661064 87.5159485,24.1532554 C87.5159485,24.0404044 87.572374,23.9275534 87.572374,23.7582769 L87.572374,21.4448315 L88.2494799,21.4448315 L88.2494799,21.5576825 Z M85.879609,21.5576825 C85.879609,21.614108 85.8231835,21.6705335 85.8231835,21.726959 L85.766758,21.726959 L85.766758,21.5576825 L85.879609,21.5576825 Z M82.6633556,21.5576825 L82.6633556,21.6705335 L82.5505046,21.6705335 C82.5505046,21.614108 82.5505046,21.5576825 82.4940791,21.5576825 L82.6633556,21.5576825 L82.6633556,21.5576825 Z M80.6884631,21.5576825 C80.7448886,21.6705335 80.8013141,21.726959 80.9141651,21.7833845 L81.2527181,21.952661 C81.3655691,22.0090865 81.5348456,22.065512 81.7605476,22.178363 L82.1555261,22.3476395 C82.2683771,22.404065 82.3812281,22.4604905 82.4376536,22.4604905 C82.4940791,22.516916 82.5505046,22.5733415 82.6633556,22.629767 C82.9454831,22.855469 83.1147596,23.1375965 83.1147596,23.5325749 C83.1147596,23.7582769 83.0583341,23.9839789 82.8890576,24.2096809 C82.7762066,24.4353829 82.5505046,24.5482339 82.3248026,24.6610849 C82.0991006,24.7739359 81.8169731,24.8303614 81.5348456,24.8303614 C81.3091436,24.8303614 81.0834416,24.7739359 80.8577396,24.7175104 C80.6884631,24.6610849 80.5191866,24.6046594 80.2370591,24.5482339 L80.1242081,24.4918084 L80.0113571,23.3068729 L80.1242081,23.3068729 C80.2370591,23.6454259 80.3499101,23.9275534 80.5756121,24.1532554 C80.8577396,24.4918084 81.1398671,24.6610849 81.5348456,24.6610849 C81.7041221,24.6610849 81.8733986,24.6046594 82.0426751,24.5482339 C82.2119516,24.4918084 82.3248026,24.3789574 82.3812281,24.2661064 C82.4376536,24.1532554 82.4940791,23.9839789 82.4940791,23.8147024 C82.4940791,23.6454259 82.4376536,23.5325749 82.3812281,23.4197239 C82.3248026,23.3068729 82.2119516,23.194022 82.0426751,23.081171 C81.8733986,22.96832 81.7041221,22.855469 81.4219946,22.742618 C81.0270161,22.5733415 80.8577396,22.4604905 80.7448886,22.4604905 C80.5756121,22.404065 80.4627611,22.291214 80.3499101,22.178363 C80.2370591,22.065512 80.1806336,21.952661 80.1242081,21.83981 C80.0677826,21.726959 80.0677826,21.614108 80.0677826,21.4448315 L80.6884631,21.5576825 L80.6884631,21.5576825 Z M74.4816583,21.5576825 L73.8045523,23.081171 L75.2716152,23.081171 L74.5945093,21.5576825 L75.3844662,21.5576825 L76.4001252,23.8147024 L76.4001252,23.8711279 L76.5694017,24.2096809 C76.6258272,24.3789574 76.7386782,24.4918084 76.8515292,24.5482339 L77.1900822,24.7175104 L77.1900822,24.8303614 L75.2151898,24.8303614 L75.2151898,24.6610849 C75.3844662,24.6610849 75.4973172,24.6046594 75.5537427,24.6046594 C75.7230192,24.5482339 75.7794447,24.4353829 75.7794447,24.3225319 C75.7794447,24.2661064 75.7230192,24.1532554 75.6665937,23.9839789 L75.3280407,23.194022 L73.7481268,23.194022 L73.5788503,23.5890004 C73.5224248,23.7582769 73.4659993,23.9275534 73.4659993,24.0968299 C73.4659993,24.2096809 73.4659993,24.3225319 73.5224248,24.3789574 C73.5788503,24.4353829 73.6352758,24.5482339 73.7481268,24.5482339 C73.8609778,24.6046594 73.9738288,24.6610849 74.1431053,24.6610849 L74.1431053,24.7739359 L72.5067658,24.7739359 L72.5067658,24.6610849 C72.6760423,24.6046594 72.8453188,24.4918084 73.0145953,24.3225319 C73.1274463,24.1532554 73.2967228,23.9275534 73.4659993,23.5325749 L74.3688073,21.501257 L74.4816583,21.501257 L74.4816583,21.5576825 Z M66.6949394,21.5576825 C66.6385139,21.614108 66.6385139,21.726959 66.6385139,21.7833845 C66.5820885,22.065512 66.525663,22.3476395 66.525663,22.629767 C66.525663,22.9118945 66.5820885,23.194022 66.6385139,23.4761494 C66.6949394,23.7582769 66.8077904,23.9839789 66.9206414,24.1532554 C67.0334924,24.3225319 67.2027689,24.4918084 67.3720454,24.5482339 C67.5413219,24.6610849 67.7670239,24.7175104 67.9927259,24.7175104 C68.3312789,24.7175104 68.6698319,24.6046594 68.8955339,24.3225319 C69.0648104,24.1532554 69.1776614,23.9275534 69.2905124,23.6454259 C69.4033634,23.3632984 69.4033634,23.0247455 69.4033634,22.6861925 C69.4033634,22.3476395 69.3469379,22.065512 69.2905124,21.83981 C69.2905124,21.7833845 69.2340869,21.6705335 69.2340869,21.614108 L69.9111929,21.614108 C70.1368949,21.952661 70.1933204,22.3476395 70.1933204,22.742618 C70.1933204,23.0247455 70.1368949,23.3068729 70.0240439,23.5890004 C69.9111929,23.8711279 69.7419164,24.0968299 69.5162144,24.3225319 C69.2905124,24.5482339 69.0648104,24.7175104 68.7826829,24.8303614 C68.5005554,24.9432124 68.2184279,24.9996379 67.9363004,24.9996379 C67.5413219,24.9996379 67.1463434,24.8867869 66.8077904,24.7175104 C66.4692375,24.4918084 66.18711,24.2661064 66.0178335,23.9275534 C65.7921315,23.5890004 65.735706,23.194022 65.735706,22.7990435 C65.735706,22.516916 65.7921315,22.2347885 65.9049825,21.952661 C65.961408,21.83981 65.961408,21.7833845 66.0178335,21.6705335 L66.6949394,21.5576825 L66.6949394,21.5576825 Z M59.9803051,21.5576825 L59.9803051,22.404065 L60.5445601,22.404065 C60.8831131,22.404065 61.1088151,22.3476395 61.2216661,22.291214 C61.3345171,22.2347885 61.4473681,22.1219375 61.5037936,22.0090865 C61.5602191,21.8962355 61.6166446,21.726959 61.6166446,21.5576825 L62.4066015,21.5576825 C62.4066015,21.83981 62.2937506,22.065512 62.1244741,22.2347885 C61.9551976,22.404065 61.6730701,22.4604905 61.2780916,22.516916 C61.5037936,22.629767 61.7294956,22.742618 61.8423466,22.9118945 C62.0116231,23.081171 62.1808996,23.3068729 62.4066015,23.7018514 C62.6323035,24.0968299 62.8580055,24.3789574 63.027282,24.5482339 C63.1965585,24.7175104 63.3094095,24.8303614 63.5351115,24.8867869 L63.5351115,24.9996379 C63.3094095,24.9996379 63.140133,24.9996379 62.9708565,24.9432124 C62.80158,24.8867869 62.6323035,24.8303614 62.5194525,24.7175104 C62.350176,24.6046594 62.1244741,24.4353829 61.9551976,24.2096809 C61.7859211,23.9839789 61.6166446,23.7582769 61.5037936,23.4761494 L61.3345171,23.1375965 C61.2780916,22.96832 61.1652406,22.855469 61.1088151,22.7990435 C61.0523896,22.742618 60.9959641,22.6861925 60.8831131,22.629767 C60.8266876,22.629767 60.7138366,22.5733415 60.5445601,22.5733415 L59.9803051,22.5733415 L59.9803051,23.8711279 C59.9803051,24.0404044 59.9803051,24.1532554 60.0367306,24.2661064 C60.0367306,24.3789574 60.0931561,24.4353829 60.1495816,24.4918084 C60.2624326,24.6046594 60.4317091,24.6610849 60.6574111,24.7175104 L60.6574111,24.8303614 L58.6825186,24.8303614 L58.6825186,24.6610849 C58.9082206,24.6046594 59.0774971,24.5482339 59.1903481,24.3789574 C59.2467736,24.2661064 59.3031991,24.0968299 59.3031991,23.7582769 L59.3031991,21.4448315 L59.9803051,21.4448315 L59.9803051,21.5576825 Z M50.8957998,21.5576825 L50.8957998,21.726959 L50.7829488,21.726959 C50.7829488,21.6705335 50.7265233,21.614108 50.7265233,21.5576825 L50.8957998,21.5576825 L50.8957998,21.5576825 Z M48.5823544,21.5576825 L48.5823544,22.404065 L48.9773329,22.404065 C49.3158859,22.404065 49.5415878,22.3476395 49.6544388,22.2347885 C49.8237153,22.1219375 49.8801408,21.952661 49.9365663,21.726959 L50.0494173,21.726959 L50.0494173,23.3068729 L49.9365663,23.3068729 C49.8801408,23.081171 49.8237153,22.96832 49.7672898,22.855469 C49.7108643,22.742618 49.5980133,22.6861925 49.4851623,22.629767 C49.3723114,22.5733415 49.2030349,22.5733415 48.9773329,22.5733415 L48.5823544,22.5733415 L48.5823544,23.9275534 C48.5823544,24.1532554 48.5823544,24.2661064 48.6387799,24.3789574 C48.6952054,24.4918084 48.7516309,24.5482339 48.8644819,24.6046594 C48.9773329,24.6610849 49.0901839,24.6610849 49.2594604,24.6610849 L49.5415878,24.6610849 C49.8237153,24.6610849 50.1058428,24.5482339 50.3315448,24.3789574 C50.6136723,24.2096809 50.8957998,23.9275534 51.1779273,23.5890004 L51.2907783,23.5325749 L50.9522253,24.7739359 L47.2845679,24.7739359 L47.2845679,24.6610849 C47.5102699,24.6046594 47.6795464,24.5482339 47.7923974,24.3789574 C47.8488229,24.2661064 47.9052484,24.0968299 47.9052484,23.8147024 L47.9052484,21.501257 L48.5823544,21.501257 L48.5823544,21.5576825 Z M44.1811655,21.5576825 L44.1811655,21.726959 L44.0683145,21.726959 C44.0683145,21.6705335 44.011889,21.614108 44.011889,21.5576825 L44.1811655,21.5576825 Z M41.86772,21.5576825 L41.86772,22.404065 L42.2626985,22.404065 C42.6012515,22.404065 42.8269535,22.3476395 42.9398045,22.2347885 C43.109081,22.1219375 43.1655065,21.952661 43.221932,21.726959 L43.334783,21.726959 L43.334783,23.3068729 L43.221932,23.3068729 C43.1655065,23.081171 43.109081,22.96832 43.0526555,22.855469 C42.99623,22.742618 42.883379,22.6861925 42.770528,22.629767 C42.657677,22.5733415 42.4884005,22.5733415 42.2626985,22.5733415 L41.86772,22.5733415 L41.86772,23.9275534 C41.86772,24.1532554 41.86772,24.2661064 41.9241455,24.3789574 C41.980571,24.4918084 42.0369965,24.5482339 42.1498475,24.6046594 C42.2626985,24.6610849 42.3755495,24.6610849 42.544826,24.6610849 L42.8269535,24.6610849 C43.109081,24.6610849 43.3912085,24.5482339 43.6169105,24.3789574 C43.899038,24.2096809 44.1811655,23.9275534 44.463293,23.5890004 L44.576144,23.5325749 L44.237591,24.7739359 L40.5699336,24.7739359 L40.5699336,24.6610849 C40.7956356,24.6046594 40.964912,24.5482339 41.077763,24.3789574 C41.1341885,24.2661064 41.190614,24.0968299 41.190614,23.8147024 L41.190614,21.501257 L41.86772,21.501257 L41.86772,21.5576825 Z M37.7486586,21.5576825 L37.7486586,21.726959 L37.6358076,21.726959 C37.6358076,21.6705335 37.5793821,21.614108 37.5793821,21.5576825 L37.7486586,21.5576825 Z M35.5480642,21.5576825 L35.5480642,22.404065 L35.8301917,22.404065 C36.1687447,22.404065 36.3944467,22.3476395 36.5072977,22.2347885 C36.6765741,22.1219375 36.7329996,21.952661 36.7894251,21.726959 L36.9022761,21.726959 L36.9022761,23.3632984 L36.7894251,23.3632984 C36.7329996,23.1375965 36.6765741,22.96832 36.6201486,22.855469 C36.5637231,22.742618 36.4508722,22.629767 36.3380212,22.629767 C36.2251702,22.5733415 36.0558937,22.5733415 35.8301917,22.5733415 L35.5480642,22.5733415 L35.5480642,23.8711279 C35.5480642,24.0404044 35.5480642,24.2096809 35.6044897,24.2661064 C35.6044897,24.3789574 35.6609152,24.4353829 35.7737662,24.4918084 C35.8866172,24.6046594 36.0558937,24.6610849 36.3380212,24.7175104 L36.3380212,24.8303614 L34.3067032,24.8303614 L34.3067032,24.6610849 C34.5324052,24.6046594 34.7016817,24.5482339 34.8145327,24.3789574 C34.8709582,24.2661064 34.9273837,24.0968299 34.9273837,23.8147024 L34.9273837,21.501257 L35.5480642,21.501257 L35.5480642,21.5576825 Z M31.4290028,21.5576825 L31.4290028,21.726959 L31.3161518,21.726959 C31.3161518,21.6705335 31.2597263,21.614108 31.2597263,21.5576825 L31.4290028,21.5576825 Z M29.2284083,21.5576825 L29.2284083,22.404065 L29.5105358,22.404065 C29.8490888,22.404065 30.0747908,22.3476395 30.1876418,22.2347885 C30.3569183,22.1219375 30.4133438,21.952661 30.4697693,21.726959 L30.5826203,21.726959 L30.5826203,23.3632984 L30.4697693,23.3632984 C30.4133438,23.1375965 30.3569183,22.96832 30.3004928,22.855469 C30.2440673,22.742618 30.1312163,22.629767 30.0183653,22.629767 C29.9055143,22.5733415 29.7362378,22.5733415 29.5105358,22.5733415 L29.2284083,22.5733415 L29.2284083,23.8711279 C29.2284083,24.0404044 29.2284083,24.2096809 29.2848338,24.2661064 C29.2848338,24.3789574 29.3412593,24.4353829 29.3976848,24.4918084 C29.5105358,24.6046594 29.6798123,24.6610849 29.9619398,24.7175104 L29.9619398,24.8303614 L27.9306219,24.8303614 L27.9306219,24.6610849 C28.1563238,24.6046594 28.3256003,24.5482339 28.4384513,24.3789574 C28.4948768,24.2661064 28.5513023,24.0968299 28.5513023,23.8147024 L28.5513023,21.501257 L29.2284083,21.501257 L29.2284083,21.5576825 Z M21.498115,21.5576825 C21.4416895,21.614108 21.4416895,21.726959 21.4416895,21.7833845 C21.385264,22.065512 21.3288385,22.3476395 21.3288385,22.629767 C21.3288385,22.9118945 21.385264,23.194022 21.4416895,23.4761494 C21.498115,23.7582769 21.610966,23.9839789 21.723817,24.1532554 C21.836668,24.3225319 22.0059445,24.4918084 22.175221,24.5482339 C22.3444975,24.6610849 22.5701995,24.7175104 22.7959015,24.7175104 C23.1344545,24.7175104 23.4730075,24.6046594 23.6987094,24.3225319 C23.8679859,24.1532554 23.9808369,23.9275534 24.0936879,23.6454259 C24.2065389,23.3632984 24.2065389,23.0247455 24.2065389,22.6861925 C24.2065389,22.3476395 24.1501134,22.065512 24.0936879,21.83981 C24.0936879,21.7833845 24.0372624,21.6705335 24.0372624,21.614108 L24.7143684,21.614108 C24.9400704,21.952661 24.9964959,22.3476395 24.9964959,22.742618 C24.9964959,23.0247455 24.9400704,23.3068729 24.8272194,23.5890004 C24.7143684,23.8711279 24.5450919,24.0968299 24.3193899,24.3225319 C24.0936879,24.5482339 23.8679859,24.7175104 23.5858585,24.8303614 C23.303731,24.9432124 23.0216035,24.9996379 22.739476,24.9996379 C22.3444975,24.9996379 21.949519,24.8867869 21.610966,24.7175104 C21.272413,24.4918084 20.9902855,24.2661064 20.821009,23.9275534 C20.595307,23.5890004 20.5388815,23.194022 20.5388815,22.7990435 C20.5388815,22.516916 20.595307,22.2347885 20.708158,21.952661 C20.7645835,21.83981 20.7645835,21.7833845 20.821009,21.6705335 L21.498115,21.5576825 L21.498115,21.5576825 Z M17.4354791,21.5576825 L17.4919046,21.726959 L17.3790536,21.726959 C17.3790536,21.6705335 17.3226281,21.614108 17.3226281,21.5576825 L17.4354791,21.5576825 Z M14.3320767,21.5576825 C14.2756512,21.614108 14.2756512,21.6705335 14.2756512,21.726959 C14.1628002,21.952661 14.1628002,22.2347885 14.1628002,22.4604905 C14.1628002,22.855469 14.2192257,23.2504474 14.3885022,23.5890004 C14.5577787,23.9275534 14.7834807,24.2096809 15.0656081,24.3789574 C15.3477356,24.5482339 15.6298631,24.6610849 15.9684161,24.6610849 C16.1941181,24.6610849 16.4198201,24.6046594 16.6455221,24.5482339 C16.8712241,24.4353829 17.0405006,24.3225319 17.2097771,24.1532554 C17.3790536,23.9839789 17.4919046,23.7582769 17.6047556,23.4761494 L17.7176066,23.4761494 C17.5483301,23.9275534 17.2662026,24.2661064 16.9276496,24.5482339 C16.5890966,24.7739359 16.1376926,24.8867869 15.6298631,24.8867869 C15.0656081,24.8867869 14.5577787,24.7175104 14.1628002,24.3789574 C13.9935237,24.2661064 13.8806727,24.0968299 13.7678217,23.9275534 C13.6549707,23.7582769 13.5421197,23.5325749 13.4856942,23.3632984 C13.4292687,23.1375965 13.3728432,22.9118945 13.3728432,22.742618 C13.3728432,22.3476395 13.4856942,21.952661 13.7113962,21.614108 L14.3320767,21.5576825 L14.3320767,21.5576825 Z" id="Shape"></path>
                <path d="M107.095597,21.5576825 C107.095597,21.388406 107.152022,21.162704 107.264873,20.9934275 C107.377724,20.824151 107.547,20.7113 107.716277,20.598449 C107.885553,20.485598 108.111255,20.4291725 108.336957,20.4291725 C108.506234,20.4291725 108.619085,20.4291725 108.844787,20.485598 L109.014063,20.5420235 C109.126914,20.598449 109.296191,20.598449 109.465467,20.598449 L109.521893,20.598449 L109.691169,21.501257 L109.578318,21.501257 C109.521893,21.388406 109.521893,21.275555 109.465467,21.162704 C109.409042,21.049853 109.352616,20.937002 109.296191,20.8805765 C109.18334,20.7677255 109.070489,20.6548745 108.901212,20.598449 C108.731936,20.5420235 108.619085,20.485598 108.449808,20.485598 C108.224106,20.485598 108.05483,20.5420235 107.885553,20.6548745 C107.716277,20.7677255 107.659851,20.937002 107.659851,21.1062785 C107.659851,21.2191295 107.659851,21.3319805 107.716277,21.388406 L107.095597,21.5576825 L107.095597,21.5576825 Z M100.098835,21.5576825 L100.098835,21.501257 C100.098835,21.3319805 100.098835,21.162704 100.042409,21.1062785 C100.042409,21.049853 99.9859837,20.937002 99.9295582,20.8805765 C99.8167072,20.7677255 99.7038562,20.7113 99.4781542,20.6548745 L99.4781542,20.5420235 L100.832366,20.5420235 L101.28377,20.485598 L101.678749,20.485598 C101.904451,20.485598 102.130153,20.485598 102.355855,20.5420235 C102.525131,20.598449 102.694408,20.6548745 102.863684,20.7677255 C102.976535,20.8805765 103.089386,20.9934275 103.145812,21.1062785 C103.202237,21.2191295 103.258663,21.388406 103.258663,21.5576825 L102.468706,21.5576825 C102.468706,21.388406 102.41228,21.2191295 102.355855,21.049853 C102.299429,20.8805765 102.130153,20.7677255 102.017302,20.7113 C101.848025,20.6548745 101.678749,20.598449 101.509472,20.598449 C101.227345,20.598449 101.058068,20.7113 100.945217,20.8805765 C100.888792,20.9934275 100.888792,21.162704 100.888792,21.3319805 L100.888792,21.501257 L100.098835,21.501257 L100.098835,21.5576825 Z M93.3277748,21.5576825 C93.3277748,21.3319805 93.3277748,21.162704 93.2713493,21.1062785 C93.2713493,20.9934275 93.2149238,20.937002 93.1584983,20.8805765 C93.0456473,20.7677255 92.8763708,20.7113 92.7070943,20.6548745 L92.7070943,20.5420235 L96.2619008,20.5420235 L96.3747518,21.5576825 L96.2619008,21.5576825 C96.1490498,21.275555 96.0361988,21.049853 95.8104968,20.937002 C95.5847948,20.7677255 95.3026673,20.7113 94.9641143,20.7113 L94.7948378,20.7113 C94.5127103,20.7113 94.3434338,20.7677255 94.2305828,20.8805765 C94.1177318,20.9934275 94.0613063,21.162704 94.0613063,21.388406 L94.0613063,21.614108 L93.3277748,21.614108 L93.3277748,21.5576825 Z M85.766758,21.5576825 L85.8231835,20.5420235 L89.8293939,20.5420235 L89.8858194,21.5576825 L89.7729684,21.5576825 C89.7165429,21.388406 89.6601174,21.275555 89.5472664,21.162704 C89.4344154,20.9934275 89.3215644,20.8805765 89.1522879,20.824151 C88.9830114,20.7677255 88.8701604,20.7113 88.7008839,20.7113 C88.5880329,20.7113 88.4751819,20.7113 88.3623309,20.7677255 C88.2494799,20.824151 88.1930544,20.8805765 88.1366289,20.9934275 C88.0802035,21.1062785 88.0802035,21.2191295 88.0802035,21.388406 L88.0802035,21.5576825 L87.346672,21.5576825 L87.346672,21.388406 C87.346672,21.162704 87.346672,21.049853 87.2902465,20.937002 L87.12097,20.7677255 C87.008119,20.7113 86.9516935,20.7113 86.8388425,20.7113 C86.6131405,20.7113 86.3874385,20.824151 86.218162,20.9934275 C86.0488855,21.162704 85.9360345,21.3319805 85.8231835,21.614108 L85.766758,21.5576825 Z M80.0677826,21.5576825 C80.0677826,21.388406 80.1242081,21.162704 80.2370591,20.9934275 C80.3499101,20.824151 80.5191866,20.7113 80.6884631,20.598449 C80.8577396,20.485598 81.0834416,20.4291725 81.3091436,20.4291725 C81.4784201,20.4291725 81.5912711,20.4291725 81.8169731,20.485598 L81.9862496,20.5420235 C82.0991006,20.598449 82.2683771,20.598449 82.4376536,20.598449 L82.4940791,20.598449 L82.6633556,21.501257 L82.5505046,21.501257 C82.4940791,21.388406 82.4940791,21.275555 82.4376536,21.162704 C82.3812281,21.049853 82.3248026,20.937002 82.2683771,20.8805765 C82.1555261,20.7677255 82.0426751,20.6548745 81.8733986,20.598449 C81.7041221,20.5420235 81.5912711,20.485598 81.4219946,20.485598 C81.1962926,20.485598 81.0270161,20.5420235 80.8577396,20.6548745 C80.6884631,20.7677255 80.6320376,20.937002 80.6320376,21.1062785 C80.6320376,21.2191295 80.6320376,21.3319805 80.6884631,21.388406 L80.0677826,21.5576825 L80.0677826,21.5576825 Z M74.3688073,21.5576825 L74.8766368,20.485598 L74.9330623,20.485598 L75.4408917,21.5576825 L74.6509348,21.5576825 L74.5945093,21.388406 L74.5380838,21.5576825 L74.3688073,21.5576825 Z M66.074259,21.5576825 C66.18711,21.388406 66.299961,21.2191295 66.412812,21.1062785 C66.6385139,20.8805765 66.8642159,20.7677255 67.1463434,20.6548745 C67.4284709,20.5420235 67.7105984,20.485598 67.9927259,20.485598 C68.3877044,20.485598 68.7826829,20.598449 69.1212359,20.7677255 C69.4597889,20.937002 69.7419164,21.2191295 69.9111929,21.5576825 L69.2340869,21.5576825 C69.1776614,21.388406 69.1212359,21.275555 69.0083849,21.162704 C68.8955339,20.9934275 68.7262574,20.824151 68.5569809,20.7677255 C68.3877044,20.6548745 68.1620024,20.598449 67.9363004,20.598449 C67.7105984,20.598449 67.5413219,20.6548745 67.3156199,20.7677255 C67.1463434,20.8805765 66.9770669,20.9934275 66.8642159,21.162704 C66.8077904,21.275555 66.6949394,21.4448315 66.6385139,21.5576825 L66.074259,21.5576825 L66.074259,21.5576825 Z M59.2467736,21.5576825 L59.2467736,21.501257 C59.2467736,21.3319805 59.2467736,21.162704 59.1903481,21.1062785 C59.1903481,21.049853 59.1339226,20.937002 59.0774971,20.8805765 C58.9646461,20.7677255 58.8517951,20.7113 58.6260931,20.6548745 L58.6260931,20.5420235 L59.9803051,20.5420235 L60.4317091,20.485598 L60.8266876,20.485598 C61.0523896,20.485598 61.2780916,20.485598 61.5037936,20.5420235 C61.6730701,20.598449 61.8423466,20.6548745 62.0116231,20.7677255 C62.1244741,20.8805765 62.2373251,20.9934275 62.2937506,21.1062785 C62.350176,21.2191295 62.4066015,21.388406 62.4066015,21.5576825 L61.6166446,21.5576825 C61.6166446,21.388406 61.5602191,21.2191295 61.5037936,21.049853 C61.4473681,20.8805765 61.2780916,20.7677255 61.1652406,20.7113 C60.9959641,20.6548745 60.8266876,20.598449 60.6574111,20.598449 C60.3752836,20.598449 60.2060071,20.7113 60.0931561,20.8805765 C60.0367306,20.9934275 60.0367306,21.162704 60.0367306,21.3319805 L60.0367306,21.501257 L59.2467736,21.501257 L59.2467736,21.5576825 Z M47.8488229,21.5576825 C47.8488229,21.3319805 47.8488229,21.162704 47.7923974,21.1062785 C47.7923974,20.9934275 47.7359719,20.937002 47.6795464,20.8805765 C47.5666954,20.7677255 47.3974189,20.7113 47.2281424,20.6548745 L47.2281424,20.5420235 L50.7829488,20.5420235 L50.8957998,21.5576825 L50.7829488,21.5576825 C50.6700978,21.275555 50.5572468,21.049853 50.3315448,20.937002 C50.1058428,20.7677255 49.8237153,20.7113 49.4851623,20.7113 L49.3158859,20.7113 C49.0337584,20.7113 48.8644819,20.7677255 48.7516309,20.8805765 C48.6387799,20.9934275 48.5823544,21.162704 48.5823544,21.388406 L48.5823544,21.614108 L47.8488229,21.614108 L47.8488229,21.5576825 Z M41.1341885,21.5576825 C41.1341885,21.3319805 41.1341885,21.162704 41.077763,21.1062785 C41.077763,20.9934275 41.0213375,20.937002 40.964912,20.8805765 C40.852061,20.7677255 40.6827846,20.7113 40.5135081,20.6548745 L40.5135081,20.5420235 L44.0683145,20.5420235 L44.1811655,21.5576825 L44.011889,21.5576825 C43.899038,21.275555 43.786187,21.049853 43.560485,20.937002 C43.334783,20.7677255 43.0526555,20.7113 42.7141025,20.7113 L42.544826,20.7113 C42.2626985,20.7113 42.093422,20.7677255 41.980571,20.8805765 C41.86772,20.9934275 41.8112945,21.162704 41.8112945,21.388406 L41.8112945,21.614108 L41.1341885,21.614108 L41.1341885,21.5576825 Z M34.8145327,21.5576825 C34.8145327,21.3319805 34.8145327,21.162704 34.7581072,21.1062785 C34.7581072,20.9934275 34.7016817,20.937002 34.6452562,20.8805765 C34.5324052,20.7677255 34.3631287,20.7113 34.1938522,20.6548745 L34.1938522,20.5420235 L37.6358076,20.5420235 L37.7486586,21.5576825 L37.6358076,21.5576825 C37.5793821,21.388406 37.4665311,21.2191295 37.4101056,21.1062785 C37.2972546,20.937002 37.1279781,20.824151 36.9587016,20.7677255 C36.7894251,20.7113 36.5637231,20.6548745 36.3380212,20.6548745 L36.2251702,20.6548745 C35.9430427,20.6548745 35.7737662,20.7113 35.6609152,20.824151 C35.5480642,20.937002 35.4916387,21.1062785 35.4916387,21.3319805 L35.4916387,21.5576825 L34.8145327,21.5576825 L34.8145327,21.5576825 Z M28.4948768,21.5576825 C28.4948768,21.3319805 28.4948768,21.162704 28.4384513,21.1062785 C28.4384513,20.9934275 28.3820258,20.937002 28.3256003,20.8805765 C28.2127493,20.7677255 28.0434728,20.7113 27.8741964,20.6548745 L27.8741964,20.5420235 L31.3161518,20.5420235 L31.4290028,21.5576825 L31.3161518,21.5576825 C31.2597263,21.388406 31.1468753,21.2191295 31.0904498,21.1062785 C30.9775988,20.937002 30.8083223,20.824151 30.6390458,20.7677255 C30.4697693,20.7113 30.2440673,20.6548745 30.0183653,20.6548745 L29.9055143,20.6548745 C29.6233868,20.6548745 29.4541103,20.7113 29.3412593,20.824151 C29.2284083,20.937002 29.1719828,21.1062785 29.1719828,21.3319805 L29.1719828,21.5576825 L28.4948768,21.5576825 L28.4948768,21.5576825 Z M20.821009,21.5576825 C20.93386,21.388406 21.046711,21.2191295 21.159562,21.1062785 C21.385264,20.8805765 21.610966,20.7677255 21.8930935,20.6548745 C22.175221,20.5420235 22.4573485,20.485598 22.739476,20.485598 C23.1344545,20.485598 23.529433,20.598449 23.8679859,20.7677255 C24.2065389,20.937002 24.4886664,21.2191295 24.6579429,21.5576825 L23.9808369,21.5576825 C23.9244114,21.388406 23.8679859,21.275555 23.7551349,21.162704 C23.6422839,20.9934275 23.4730075,20.824151 23.303731,20.7677255 C23.1344545,20.6548745 22.9087525,20.598449 22.6830505,20.598449 C22.4573485,20.598449 22.288072,20.6548745 22.06237,20.7677255 C21.8930935,20.8805765 21.723817,20.9934275 21.610966,21.162704 C21.5545405,21.275555 21.4416895,21.4448315 21.385264,21.5576825 L20.821009,21.5576825 L20.821009,21.5576825 Z M13.7113962,21.5576825 C13.9370982,21.2191295 14.2192257,20.937002 14.5577787,20.7677255 C14.8963317,20.598449 15.3477356,20.485598 15.7427141,20.485598 C15.9119906,20.485598 16.1941181,20.485598 16.4762456,20.5420235 C16.7019476,20.598449 16.8147986,20.598449 16.9276496,20.598449 L17.0405006,20.598449 L17.3790536,21.5576825 L17.2662026,21.5576825 C17.2097771,21.4448315 17.0969261,21.3319805 17.0405006,21.2191295 C16.9276496,21.1062785 16.8147986,20.937002 16.7019476,20.8805765 C16.5890966,20.7677255 16.4762456,20.7113 16.3069691,20.7113 C16.1941181,20.6548745 16.0248416,20.6548745 15.8555651,20.6548745 C15.6298631,20.6548745 15.4041611,20.7113 15.1784591,20.7677255 C14.9527572,20.8805765 14.7834807,20.9934275 14.6142042,21.162704 C14.5013532,21.275555 14.3885022,21.4448315 14.3320767,21.5576825 L13.7113962,21.5576825 L13.7113962,21.5576825 Z" id="Shape"></path>
                <path d="M17.1533516,20.598449 L17.4919046,21.726959 L17.3790536,21.726959 L17.0405006,21.2191295 C16.9276496,21.1062785 16.8147986,20.937002 16.7019476,20.8805765 C16.5890966,20.7677255 16.4762456,20.7113 16.3069691,20.7113 C16.1941181,20.6548745 16.0248416,20.6548745 15.8555651,20.6548745 C15.6298631,20.6548745 15.4041611,20.7113 15.1784591,20.7677255 C14.9527572,20.8805765 14.7834807,20.9934275 14.6142042,21.162704 C14.4449277,21.3319805 14.3320767,21.5576825 14.2756512,21.7833845 C14.1628002,22.0090865 14.1628002,22.291214 14.1628002,22.516916 C14.1628002,22.9118945 14.2192257,23.3068729 14.3885022,23.6454259 C14.5577787,23.9839789 14.7834807,24.2661064 15.0656081,24.4353829 C15.3477356,24.6046594 15.6298631,24.7175104 15.9684161,24.7175104 C16.1941181,24.7175104 16.4198201,24.6610849 16.6455221,24.6046594 C16.8712241,24.4918084 17.0405006,24.3789574 17.2097771,24.2096809 C17.3790536,24.0404044 17.4919046,23.8147024 17.6047556,23.5325749 L17.7176066,23.5325749 C17.5483301,23.9839789 17.2662026,24.3225319 16.9276496,24.6046594 C16.5890966,24.8303614 16.1376926,24.9432124 15.6298631,24.9432124 C15.0656081,24.9432124 14.5577787,24.7739359 14.1628002,24.4353829 C13.9935237,24.3225319 13.8806727,24.1532554 13.7678217,23.9839789 C13.6549707,23.8147024 13.5421197,23.5890004 13.4856942,23.4197239 C13.4292687,23.194022 13.3728432,22.96832 13.3728432,22.7990435 C13.3728432,22.404065 13.4856942,22.0090865 13.7113962,21.6705335 C13.9370982,21.3319805 14.2192257,21.049853 14.5577787,20.8805765 C14.8963317,20.7113 15.3477356,20.598449 15.7427141,20.598449 C15.9119906,20.598449 16.1941181,20.598449 16.4762456,20.6548745 C16.7019476,20.7113 16.8147986,20.7113 16.9276496,20.7113 C17.0405006,20.598449 17.0969261,20.598449 17.1533516,20.598449 Z M21.3288385,22.629767 C21.3288385,22.9118945 21.385264,23.194022 21.4416895,23.4761494 C21.498115,23.7582769 21.610966,23.9275534 21.723817,24.1532554 C21.836668,24.3225319 22.0059445,24.4918084 22.175221,24.5482339 C22.3444975,24.6610849 22.5701995,24.7175104 22.7959015,24.7175104 C23.1344545,24.7175104 23.4730075,24.6046594 23.6987094,24.3225319 C23.8679859,24.1532554 23.9808369,23.9275534 24.0936879,23.6454259 C24.2065389,23.3632984 24.2065389,23.0247455 24.2065389,22.6861925 C24.2065389,22.3476395 24.1501134,22.065512 24.0936879,21.83981 C24.0372624,21.5576825 23.9244114,21.388406 23.8115604,21.162704 C23.6987094,20.9934275 23.529433,20.824151 23.3601565,20.7677255 C23.19088,20.6548745 22.965178,20.598449 22.739476,20.598449 C22.513774,20.598449 22.3444975,20.6548745 22.1187955,20.7677255 C21.949519,20.8805765 21.7802425,20.9934275 21.6673915,21.162704 C21.5545405,21.3319805 21.4416895,21.5576825 21.385264,21.83981 C21.3288385,22.065512 21.3288385,22.3476395 21.3288385,22.629767 L21.3288385,22.629767 Z M20.5388815,22.6861925 C20.5388815,22.404065 20.595307,22.1219375 20.708158,21.83981 C20.821009,21.5576825 20.9902855,21.3319805 21.2159875,21.1062785 C21.4416895,20.8805765 21.6673915,20.7677255 21.949519,20.6548745 C22.2316465,20.5420235 22.513774,20.485598 22.7959015,20.485598 C23.19088,20.485598 23.5858585,20.598449 23.9244114,20.7677255 C24.2629644,20.9934275 24.5450919,21.2191295 24.7143684,21.5576825 C24.9400704,21.8962355 24.9964959,22.291214 24.9964959,22.6861925 C24.9964959,22.96832 24.9400704,23.2504474 24.8272194,23.5325749 C24.7143684,23.8147024 24.5450919,24.0404044 24.3193899,24.2661064 C24.0936879,24.4918084 23.8679859,24.6610849 23.5858585,24.7739359 C23.303731,24.8867869 23.0216035,24.9432124 22.739476,24.9432124 C22.3444975,24.9432124 21.949519,24.8303614 21.610966,24.6610849 C21.272413,24.4353829 20.9902855,24.2096809 20.821009,23.8711279 C20.6517325,23.4197239 20.5388815,23.081171 20.5388815,22.6861925 Z M31.3725773,20.5420235 L31.4854283,21.6705335 L31.3725773,21.6705335 C31.3161518,21.4448315 31.2033008,21.2191295 31.0904498,21.1062785 C30.9775988,20.937002 30.8083223,20.824151 30.6390458,20.7677255 C30.4697693,20.7113 30.2440673,20.6548745 30.0183653,20.6548745 L29.9055143,20.6548745 C29.6233868,20.6548745 29.4541103,20.7113 29.3412593,20.824151 C29.2284083,20.937002 29.1719828,21.1062785 29.1719828,21.3319805 L29.1719828,22.404065 L29.4541103,22.404065 C29.7926633,22.404065 30.0183653,22.3476395 30.1312163,22.2347885 C30.3004928,22.1219375 30.3569183,21.952661 30.4133438,21.726959 L30.5261948,21.726959 L30.5261948,23.3632984 L30.4133438,23.3632984 C30.3569183,23.1375965 30.3004928,22.96832 30.2440673,22.855469 C30.1876418,22.742618 30.0747908,22.629767 29.9619398,22.629767 C29.8490888,22.5733415 29.6798123,22.5733415 29.4541103,22.5733415 L29.1719828,22.5733415 L29.1719828,23.8711279 C29.1719828,24.0404044 29.1719828,24.2096809 29.2284083,24.2661064 C29.2284083,24.3789574 29.2848338,24.4353829 29.3976848,24.4918084 C29.5105358,24.6046594 29.6798123,24.6610849 29.9619398,24.7175104 L29.9619398,24.8303614 L27.9306219,24.8303614 L27.9306219,24.6610849 C28.1563238,24.6046594 28.3256003,24.5482339 28.4384513,24.3789574 C28.4948768,24.2661064 28.5513023,24.0968299 28.5513023,23.8147024 L28.5513023,21.501257 C28.5513023,21.3319805 28.5513023,21.162704 28.4948768,21.1062785 C28.4948768,20.9934275 28.4384513,20.937002 28.3820258,20.8805765 C28.2691748,20.7677255 28.0998983,20.7113 27.9306219,20.6548745 L27.9306219,20.5420235 L31.3725773,20.5420235 L31.3725773,20.5420235 Z M37.6358076,20.5420235 L37.7486586,21.6705335 L37.6358076,21.6705335 C37.5793821,21.4448315 37.4665311,21.2191295 37.3536801,21.1062785 C37.2408291,20.937002 37.0715526,20.824151 36.9022761,20.7677255 C36.7329996,20.7113 36.5637231,20.6548745 36.2815957,20.6548745 L36.1687447,20.6548745 C35.8866172,20.6548745 35.7173407,20.7113 35.6044897,20.824151 C35.4916387,20.937002 35.4352132,21.1062785 35.4352132,21.3319805 L35.4352132,22.404065 L35.7173407,22.404065 C36.0558937,22.404065 36.2815957,22.3476395 36.3944467,22.2347885 C36.5637231,22.1219375 36.6201486,21.952661 36.6765741,21.726959 L36.7894251,21.726959 L36.7894251,23.3632984 L36.6765741,23.3632984 C36.6201486,23.1375965 36.5637231,22.96832 36.5072977,22.855469 C36.4508722,22.742618 36.3380212,22.629767 36.2251702,22.629767 C36.1123192,22.5733415 35.9430427,22.5733415 35.7173407,22.5733415 L35.5480642,22.5733415 L35.5480642,23.8711279 C35.5480642,24.0404044 35.5480642,24.2096809 35.6044897,24.2661064 C35.6044897,24.3789574 35.6609152,24.4353829 35.7173407,24.4918084 C35.8301917,24.6046594 35.9994682,24.6610849 36.2815957,24.7175104 L36.2815957,24.8303614 L34.1938522,24.8303614 L34.1938522,24.6610849 C34.4195542,24.6046594 34.5888307,24.5482339 34.7016817,24.3789574 C34.7581072,24.2661064 34.8145327,24.0968299 34.8145327,23.8147024 L34.8145327,21.501257 C34.8145327,21.3319805 34.8145327,21.162704 34.7581072,21.1062785 C34.7581072,20.9934275 34.7016817,20.937002 34.6452562,20.8805765 C34.5324052,20.7677255 34.3631287,20.7113 34.1938522,20.6548745 L34.1938522,20.5420235 L37.6358076,20.5420235 L37.6358076,20.5420235 Z M44.0683145,20.5420235 L44.1811655,21.6705335 L44.0683145,21.6705335 C43.9554635,21.3319805 43.786187,21.049853 43.560485,20.8805765 C43.334783,20.7113 43.0526555,20.6548745 42.7141025,20.6548745 L42.544826,20.6548745 C42.2626985,20.6548745 42.093422,20.7113 41.980571,20.824151 C41.86772,20.937002 41.8112945,21.1062785 41.8112945,21.3319805 L41.8112945,22.404065 L42.206273,22.404065 C42.544826,22.404065 42.770528,22.3476395 42.883379,22.2347885 C43.0526555,22.1219375 43.109081,21.952661 43.1655065,21.726959 L43.2783575,21.726959 L43.2783575,23.3068729 L43.1655065,23.3068729 C43.109081,23.081171 43.0526555,22.96832 42.99623,22.855469 C42.9398045,22.742618 42.8269535,22.6861925 42.7141025,22.629767 C42.6012515,22.5733415 42.431975,22.5733415 42.206273,22.5733415 L41.8112945,22.5733415 L41.8112945,23.9275534 C41.8112945,24.1532554 41.8112945,24.2661064 41.86772,24.3789574 C41.9241455,24.4918084 41.980571,24.5482339 42.093422,24.6046594 C42.206273,24.6610849 42.319124,24.6610849 42.4884005,24.6610849 L42.770528,24.6610849 C43.0526555,24.6610849 43.334783,24.5482339 43.560485,24.3789574 C43.8426125,24.2096809 44.12474,23.9275534 44.4068675,23.5890004 L44.576144,23.5325749 L44.237591,24.7739359 L40.5699336,24.7739359 L40.5699336,24.6610849 C40.7956356,24.6046594 40.964912,24.5482339 41.077763,24.3789574 C41.1341885,24.2661064 41.190614,24.0968299 41.190614,23.8147024 L41.190614,21.501257 C41.190614,21.3319805 41.190614,21.162704 41.1341885,21.1062785 C41.1341885,20.9934275 41.077763,20.937002 41.0213375,20.8805765 C40.9084865,20.7677255 40.7392101,20.7113 40.5699336,20.6548745 L40.5699336,20.5420235 L44.0683145,20.5420235 L44.0683145,20.5420235 Z M50.7829488,20.5420235 L50.8957998,21.6705335 L50.7829488,21.6705335 C50.6700978,21.3319805 50.5008213,21.049853 50.3315448,20.8805765 C50.1058428,20.7113 49.8237153,20.6548745 49.4851623,20.6548745 L49.3158859,20.6548745 C49.0337584,20.6548745 48.8644819,20.7113 48.7516309,20.824151 C48.6387799,20.937002 48.5823544,21.1062785 48.5823544,21.3319805 L48.5823544,22.404065 L48.9773329,22.404065 C49.3158859,22.404065 49.5415878,22.3476395 49.6544388,22.2347885 C49.8237153,22.1219375 49.8801408,21.952661 49.9365663,21.726959 L50.0494173,21.726959 L50.0494173,23.3068729 L49.9365663,23.3068729 C49.8801408,23.081171 49.8237153,22.96832 49.7672898,22.855469 C49.7108643,22.742618 49.5980133,22.6861925 49.4851623,22.629767 C49.3723114,22.5733415 49.2030349,22.5733415 48.9773329,22.5733415 L48.5823544,22.5733415 L48.5823544,23.9275534 C48.5823544,24.1532554 48.5823544,24.2661064 48.6387799,24.3789574 C48.6952054,24.4918084 48.7516309,24.5482339 48.8644819,24.6046594 C48.9773329,24.6610849 49.0901839,24.6610849 49.2594604,24.6610849 L49.5415878,24.6610849 C49.8237153,24.6610849 50.1058428,24.5482339 50.3315448,24.3789574 C50.6136723,24.2096809 50.8957998,23.9275534 51.1779273,23.5890004 L51.2907783,23.5325749 L50.9522253,24.7739359 L47.2845679,24.7739359 L47.2845679,24.6610849 C47.5102699,24.6046594 47.6795464,24.5482339 47.7923974,24.3789574 C47.8488229,24.2661064 47.9052484,24.0968299 47.9052484,23.8147024 L47.9052484,21.501257 C47.9052484,21.3319805 47.9052484,21.162704 47.8488229,21.1062785 C47.8488229,20.9934275 47.7923974,20.937002 47.7359719,20.8805765 C47.6231209,20.7677255 47.4538444,20.7113 47.2845679,20.6548745 L47.2845679,20.5420235 L50.7829488,20.5420235 L50.7829488,20.5420235 Z M59.9803051,22.404065 L60.5445601,22.404065 C60.8831131,22.404065 61.1088151,22.3476395 61.2216661,22.291214 C61.3345171,22.2347885 61.4473681,22.1219375 61.5037936,22.0090865 C61.5602191,21.8962355 61.6166446,21.726959 61.6166446,21.5576825 C61.6166446,21.388406 61.5602191,21.2191295 61.5037936,21.049853 C61.4473681,20.8805765 61.2780916,20.7677255 61.1652406,20.7113 C60.9959641,20.6548745 60.8266876,20.598449 60.6574111,20.598449 C60.3752836,20.598449 60.2060071,20.7113 60.0931561,20.8805765 C60.0367306,20.9934275 60.0367306,21.162704 60.0367306,21.388406 L60.0367306,22.404065 L59.9803051,22.404065 Z M59.9803051,22.5733415 L59.9803051,23.8711279 C59.9803051,24.0404044 59.9803051,24.1532554 60.0367306,24.2661064 C60.0367306,24.3789574 60.0931561,24.4353829 60.1495816,24.4918084 C60.2624326,24.6046594 60.4317091,24.6610849 60.6574111,24.7175104 L60.6574111,24.8303614 L58.6825186,24.8303614 L58.6825186,24.6610849 C58.9082206,24.6046594 59.0774971,24.5482339 59.1903481,24.3789574 C59.2467736,24.2661064 59.3031991,24.0968299 59.3031991,23.7582769 L59.3031991,21.388406 C59.3031991,21.2191295 59.3031991,21.049853 59.2467736,20.9934275 C59.2467736,20.937002 59.1903481,20.824151 59.1339226,20.7677255 C59.0210716,20.6548745 58.9082206,20.598449 58.6825186,20.5420235 L58.6825186,20.4291725 L60.0367306,20.4291725 L60.4881346,20.372747 L60.8831131,20.372747 C61.1088151,20.372747 61.3345171,20.372747 61.5602191,20.4291725 C61.7294956,20.485598 61.8987721,20.5420235 62.0680486,20.6548745 C62.1808996,20.7677255 62.2937506,20.8805765 62.350176,20.9934275 C62.4066015,21.1062785 62.463027,21.275555 62.463027,21.4448315 C62.463027,21.726959 62.350176,21.952661 62.1808996,22.1219375 C62.0116231,22.291214 61.7294956,22.3476395 61.3345171,22.404065 C61.5602191,22.516916 61.7859211,22.629767 61.8987721,22.7990435 C62.0680486,22.96832 62.2373251,23.194022 62.463027,23.5890004 C62.688729,23.9839789 62.914431,24.2661064 63.0837075,24.4353829 C63.252984,24.6046594 63.365835,24.7175104 63.591537,24.7739359 L63.591537,24.8867869 C63.365835,24.8867869 63.1965585,24.8867869 63.027282,24.8303614 C62.8580055,24.7739359 62.688729,24.7175104 62.575878,24.6046594 C62.4066015,24.4918084 62.1808996,24.3225319 62.0116231,24.0968299 C61.8423466,23.8711279 61.6730701,23.6454259 61.5602191,23.3632984 L61.3909426,23.0247455 C61.3345171,22.855469 61.2216661,22.742618 61.1652406,22.6861925 C61.1088151,22.629767 61.0523896,22.5733415 60.9395386,22.516916 C60.8831131,22.516916 60.7702621,22.4604905 60.6009856,22.4604905 L59.9803051,22.4604905 L59.9803051,22.5733415 Z M66.525663,22.629767 C66.525663,22.9118945 66.5820885,23.194022 66.6385139,23.4761494 C66.6949394,23.7582769 66.8077904,23.9275534 66.9206414,24.1532554 C67.0334924,24.3225319 67.2027689,24.4918084 67.3720454,24.5482339 C67.5413219,24.6610849 67.7670239,24.7175104 67.9927259,24.7175104 C68.3312789,24.7175104 68.6698319,24.6046594 68.8955339,24.3225319 C69.0648104,24.1532554 69.1776614,23.9275534 69.2905124,23.6454259 C69.4033634,23.3632984 69.4033634,23.0247455 69.4033634,22.6861925 C69.4033634,22.3476395 69.3469379,22.065512 69.2905124,21.83981 C69.2340869,21.5576825 69.1212359,21.388406 69.0083849,21.162704 C68.8955339,20.9934275 68.7262574,20.824151 68.5569809,20.7677255 C68.3877044,20.6548745 68.1620024,20.598449 67.9363004,20.598449 C67.7105984,20.598449 67.5413219,20.6548745 67.3156199,20.7677255 C67.1463434,20.8805765 66.9770669,20.9934275 66.8642159,21.162704 C66.7513649,21.3319805 66.6385139,21.5576825 66.5820885,21.83981 C66.5820885,22.065512 66.525663,22.3476395 66.525663,22.629767 L66.525663,22.629767 Z M65.735706,22.6861925 C65.735706,22.404065 65.7921315,22.1219375 65.9049825,21.83981 C66.0178335,21.5576825 66.18711,21.3319805 66.412812,21.1062785 C66.6385139,20.8805765 66.8642159,20.7677255 67.1463434,20.6548745 C67.4284709,20.5420235 67.7105984,20.485598 67.9927259,20.485598 C68.3877044,20.485598 68.7826829,20.598449 69.1212359,20.7677255 C69.4597889,20.9934275 69.7419164,21.2191295 69.9111929,21.5576825 C70.1368949,21.8962355 70.1933204,22.291214 70.1933204,22.6861925 C70.1933204,22.96832 70.1368949,23.2504474 70.0240439,23.5325749 C69.9111929,23.8147024 69.7419164,24.0404044 69.5162144,24.2661064 C69.2905124,24.4918084 69.0648104,24.6610849 68.7826829,24.7739359 C68.5005554,24.8867869 68.2184279,24.9432124 67.9363004,24.9432124 C67.5413219,24.9432124 67.1463434,24.8303614 66.8077904,24.6610849 C66.4692375,24.4353829 66.18711,24.2096809 66.0178335,23.8711279 C65.848557,23.4197239 65.735706,23.081171 65.735706,22.6861925 L65.735706,22.6861925 Z M75.3280407,23.081171 L74.5945093,21.388406 L73.8609778,23.081171 L75.3280407,23.081171 L75.3280407,23.081171 Z M75.3844662,23.194022 L73.8045523,23.194022 L73.6352758,23.5890004 C73.5788503,23.7582769 73.5224248,23.9275534 73.5224248,24.0968299 C73.5224248,24.2096809 73.5224248,24.3225319 73.5788503,24.3789574 C73.6352758,24.4353829 73.6917013,24.5482339 73.8045523,24.5482339 C73.9174033,24.6046594 74.0302543,24.6610849 74.1995308,24.6610849 L74.1995308,24.7739359 L72.5631913,24.7739359 L72.5631913,24.6610849 C72.7324678,24.6046594 72.9017443,24.4918084 73.0710208,24.3225319 C73.1838718,24.1532554 73.3531483,23.9275534 73.5224248,23.5325749 L74.8766368,20.4291725 L74.9330623,20.4291725 L76.4001252,23.8147024 L76.4001252,23.8711279 L76.5694017,24.2096809 C76.6258272,24.3789574 76.7386782,24.4918084 76.8515292,24.5482339 L77.1900822,24.7175104 L77.1900822,24.8303614 L75.2151898,24.8303614 L75.2151898,24.6610849 C75.3844662,24.6610849 75.4973172,24.6046594 75.5537427,24.6046594 C75.7230192,24.5482339 75.7794447,24.4353829 75.7794447,24.3225319 C75.7794447,24.2661064 75.7230192,24.1532554 75.6665937,23.9839789 L75.3844662,23.194022 L75.3844662,23.194022 Z M82.4940791,20.6548745 L82.6633556,21.6705335 L82.5505046,21.6705335 C82.4940791,21.501257 82.4376536,21.3319805 82.3812281,21.2191295 C82.3248026,21.1062785 82.2683771,20.9934275 82.2119516,20.937002 C82.0991006,20.824151 81.9862496,20.7113 81.8169731,20.6548745 C81.6476966,20.598449 81.5348456,20.5420235 81.3655691,20.5420235 C81.1398671,20.5420235 80.9705906,20.598449 80.8013141,20.7113 C80.6320376,20.824151 80.5756121,20.9934275 80.5756121,21.162704 C80.5756121,21.388406 80.6884631,21.5576825 80.8577396,21.6705335 L81.1962926,21.83981 C81.3091436,21.8962355 81.4784201,21.952661 81.7041221,22.065512 L82.0991006,22.2347885 C82.2119516,22.291214 82.3248026,22.3476395 82.3812281,22.3476395 C82.4376536,22.404065 82.4940791,22.4604905 82.6069301,22.516916 C82.8890576,22.742618 83.0583341,23.0247455 83.0583341,23.4197239 C83.0583341,23.6454259 83.0019086,23.8711279 82.8326321,24.0968299 C82.7197811,24.3225319 82.4940791,24.4353829 82.2683771,24.5482339 C82.0426751,24.6610849 81.7605476,24.7175104 81.4784201,24.7175104 C81.2527181,24.7175104 81.0270161,24.6610849 80.8013141,24.6046594 C80.6320376,24.5482339 80.4627611,24.4918084 80.1806336,24.4353829 L80.0677826,24.3789574 L79.9549316,23.194022 L80.0677826,23.194022 C80.1806336,23.5325749 80.2934846,23.8147024 80.5191866,24.0404044 C80.8013141,24.3789574 81.0834416,24.5482339 81.4784201,24.5482339 C81.6476966,24.5482339 81.8169731,24.4918084 81.9862496,24.4353829 C82.1555261,24.3789574 82.2683771,24.2661064 82.3248026,24.1532554 C82.3812281,24.0404044 82.4376536,23.8711279 82.4376536,23.7018514 C82.4376536,23.5325749 82.3812281,23.4197239 82.3248026,23.3068729 C82.2683771,23.194022 82.1555261,23.081171 81.9862496,22.96832 C81.8169731,22.855469 81.6476966,22.742618 81.3655691,22.629767 C80.9705906,22.4604905 80.8013141,22.3476395 80.6884631,22.3476395 C80.5191866,22.291214 80.4063356,22.178363 80.2934846,22.065512 C80.1806336,21.952661 80.1242081,21.83981 80.0677826,21.726959 C80.0113571,21.614108 80.0113571,21.501257 80.0113571,21.3319805 C80.0113571,21.1062785 80.0677826,20.937002 80.1806336,20.7677255 C80.2934846,20.598449 80.4627611,20.485598 80.6320376,20.372747 C80.8013141,20.259896 81.0270161,20.2034705 81.2527181,20.2034705 C81.4219946,20.2034705 81.5348456,20.2034705 81.7605476,20.259896 L81.9298241,20.3163215 C82.1555261,20.598449 82.2683771,20.6548745 82.4940791,20.6548745 L82.4940791,20.6548745 Z M89.8858194,20.5420235 L89.9986704,21.726959 L89.8858194,21.726959 C89.8293939,21.501257 89.7165429,21.3319805 89.6601174,21.162704 C89.5472664,20.9934275 89.4344154,20.8805765 89.2651389,20.824151 C89.0958624,20.7677255 88.9830114,20.7113 88.8137349,20.7113 C88.7008839,20.7113 88.5880329,20.7113 88.4751819,20.7677255 C88.3623309,20.824151 88.3059054,20.8805765 88.2494799,20.9934275 C88.1930544,21.1062785 88.1930544,21.2191295 88.1930544,21.388406 L88.1930544,23.8711279 C88.1930544,24.0404044 88.1930544,24.2096809 88.2494799,24.2661064 C88.2494799,24.3789574 88.3059054,24.4353829 88.4187564,24.4918084 C88.5316074,24.6046594 88.7008839,24.6610849 88.9830114,24.7175104 L88.9830114,24.8303614 L86.782417,24.8303614 L86.782417,24.6610849 C87.0645445,24.6046594 87.233821,24.5482339 87.346672,24.3789574 C87.4030975,24.3225319 87.459523,24.2661064 87.459523,24.1532554 C87.459523,24.0404044 87.5159485,23.9275534 87.5159485,23.7582769 L87.5159485,21.275555 C87.5159485,21.049853 87.5159485,20.937002 87.459523,20.824151 L87.2902465,20.6548745 C87.1773955,20.598449 87.12097,20.598449 87.008119,20.598449 C86.782417,20.598449 86.556715,20.7113 86.3874385,20.8805765 C86.218162,21.049853 86.0488855,21.3319805 85.9360345,21.614108 L85.766758,21.614108 L85.879609,20.4291725 L89.8858194,20.4291725 L89.8858194,20.5420235 Z M96.2619008,20.5420235 L96.3747518,21.6705335 L96.2619008,21.6705335 C96.1490498,21.3319805 95.9797733,21.049853 95.7540713,20.8805765 C95.5283693,20.7113 95.2462418,20.6548745 94.9076888,20.6548745 L94.7948378,20.6548745 C94.5127103,20.6548745 94.3434338,20.7113 94.2305828,20.824151 C94.1177318,20.937002 94.0613063,21.1062785 94.0613063,21.3319805 L94.0613063,22.404065 L94.4562848,22.404065 C94.7948378,22.404065 95.0205398,22.3476395 95.1333908,22.2347885 C95.3026673,22.1219375 95.3590928,21.952661 95.4155183,21.726959 L95.5283693,21.726959 L95.5283693,23.3068729 L95.4155183,23.3068729 C95.3590928,23.081171 95.3026673,22.96832 95.2462418,22.855469 C95.1898163,22.742618 95.0769653,22.6861925 94.9641143,22.629767 C94.8512633,22.5733415 94.6819868,22.5733415 94.4562848,22.5733415 L94.0613063,22.5733415 L94.0613063,23.9275534 C94.0613063,24.1532554 94.0613063,24.2661064 94.1177318,24.3789574 C94.1741573,24.4918084 94.2305828,24.5482339 94.3434338,24.6046594 C94.4562848,24.6610849 94.5691358,24.6610849 94.7384123,24.6610849 L95.0205398,24.6610849 C95.3026673,24.6610849 95.5847948,24.5482339 95.8104968,24.3789574 C96.0926243,24.2096809 96.3747518,23.9275534 96.6568793,23.5890004 L96.7697302,23.5325749 L96.3747518,24.7739359 L92.7070943,24.7739359 L92.7070943,24.6610849 C92.9327963,24.6046594 93.1020728,24.5482339 93.2149238,24.3789574 C93.2713493,24.2661064 93.3277748,24.0968299 93.3277748,23.8147024 L93.3277748,21.501257 C93.3277748,21.3319805 93.3277748,21.162704 93.2713493,21.1062785 C93.2713493,20.9934275 93.2149238,20.937002 93.1584983,20.8805765 C93.0456473,20.7677255 92.8763708,20.7113 92.7070943,20.6548745 L92.7070943,20.5420235 L96.2619008,20.5420235 L96.2619008,20.5420235 Z M100.832366,22.404065 L101.396621,22.404065 C101.735174,22.404065 101.960876,22.3476395 102.073727,22.291214 C102.186578,22.2347885 102.299429,22.1219375 102.355855,22.0090865 C102.41228,21.8962355 102.468706,21.726959 102.468706,21.5576825 C102.468706,21.388406 102.41228,21.2191295 102.355855,21.049853 C102.299429,20.8805765 102.130153,20.7677255 102.017302,20.7113 C101.848025,20.6548745 101.678749,20.598449 101.509472,20.598449 C101.227345,20.598449 101.058068,20.7113 100.945217,20.8805765 C100.888792,20.9934275 100.888792,21.162704 100.888792,21.388406 L100.888792,22.404065 L100.832366,22.404065 Z M100.832366,22.5733415 L100.832366,23.8711279 C100.832366,24.0404044 100.832366,24.1532554 100.888792,24.2661064 C100.888792,24.3789574 100.945217,24.4353829 101.001643,24.4918084 C101.114494,24.6046594 101.28377,24.6610849 101.509472,24.7175104 L101.509472,24.8303614 L99.5345797,24.8303614 L99.5345797,24.6610849 C99.7602817,24.6046594 99.9295582,24.5482339 100.042409,24.3789574 C100.098835,24.2661064 100.15526,24.0968299 100.15526,23.7582769 L100.15526,21.388406 C100.15526,21.2191295 100.15526,21.049853 100.098835,20.9934275 C100.098835,20.937002 100.042409,20.824151 99.9859837,20.7677255 C99.8731327,20.6548745 99.7602817,20.598449 99.5345797,20.5420235 L99.5345797,20.4291725 L100.888792,20.4291725 L101.340196,20.372747 L101.735174,20.372747 C101.960876,20.372747 102.186578,20.372747 102.41228,20.4291725 C102.581557,20.485598 102.750833,20.5420235 102.92011,20.6548745 C103.032961,20.7677255 103.145812,20.8805765 103.202237,20.9934275 C103.258663,21.1062785 103.315088,21.275555 103.315088,21.4448315 C103.315088,21.726959 103.202237,21.952661 103.032961,22.1219375 C102.863684,22.291214 102.581557,22.3476395 102.186578,22.404065 C102.41228,22.516916 102.637982,22.629767 102.750833,22.7990435 C102.92011,22.96832 103.089386,23.194022 103.315088,23.5890004 C103.54079,23.9839789 103.766492,24.2661064 103.935769,24.4353829 C104.105045,24.6046594 104.217896,24.7175104 104.443598,24.7739359 L104.443598,24.8867869 C104.217896,24.8867869 104.04862,24.8867869 103.879343,24.8303614 C103.710067,24.7739359 103.54079,24.7175104 103.427939,24.6046594 C103.258663,24.4918084 103.032961,24.3225319 102.863684,24.0968299 C102.694408,23.8711279 102.525131,23.6454259 102.41228,23.3632984 L102.243004,23.0247455 C102.186578,22.855469 102.073727,22.742618 102.017302,22.6861925 C101.960876,22.629767 101.904451,22.5733415 101.7916,22.516916 C101.735174,22.516916 101.622323,22.4604905 101.453047,22.4604905 L100.832366,22.4604905 L100.832366,22.5733415 Z M109.521893,20.6548745 L109.691169,21.6705335 L109.578318,21.6705335 C109.521893,21.501257 109.465467,21.3319805 109.409042,21.2191295 C109.352616,21.1062785 109.296191,20.9934275 109.239765,20.937002 C109.126914,20.824151 109.014063,20.7113 108.844787,20.6548745 C108.67551,20.598449 108.562659,20.5420235 108.393383,20.5420235 C108.167681,20.5420235 107.998404,20.598449 107.829128,20.7113 C107.659851,20.824151 107.603426,20.9934275 107.603426,21.162704 C107.603426,21.388406 107.716277,21.5576825 107.885553,21.6705335 L108.224106,21.83981 C108.336957,21.8962355 108.506234,21.952661 108.731936,22.065512 L109.126914,22.2347885 C109.239765,22.291214 109.352616,22.3476395 109.409042,22.3476395 C109.465467,22.404065 109.521893,22.4604905 109.634744,22.516916 C109.916871,22.742618 110.086148,23.0247455 110.086148,23.4197239 C110.086148,23.6454259 110.029722,23.8711279 109.860446,24.0968299 C109.747595,24.3225319 109.521893,24.4353829 109.296191,24.5482339 C109.070489,24.6610849 108.788361,24.7175104 108.506234,24.7175104 C108.280532,24.7175104 108.05483,24.6610849 107.829128,24.6046594 C107.659851,24.5482339 107.490575,24.4918084 107.208448,24.4353829 L107.095597,24.3789574 L106.982746,23.194022 L107.095597,23.194022 C107.208448,23.5325749 107.321299,23.8147024 107.547,24.0404044 C107.829128,24.3789574 108.111255,24.5482339 108.506234,24.5482339 C108.67551,24.5482339 108.844787,24.4918084 109.014063,24.4353829 C109.18334,24.3789574 109.296191,24.2661064 109.352616,24.1532554 C109.409042,24.0404044 109.465467,23.8711279 109.465467,23.7018514 C109.465467,23.5325749 109.409042,23.4197239 109.352616,23.3068729 C109.296191,23.194022 109.18334,23.081171 109.014063,22.96832 C108.844787,22.855469 108.67551,22.742618 108.393383,22.629767 C108.05483,22.4604905 107.829128,22.3476395 107.716277,22.3476395 C107.547,22.291214 107.43415,22.178363 107.321299,22.065512 C107.208448,21.952661 107.152022,21.83981 107.095597,21.726959 C107.039171,21.614108 107.039171,21.501257 107.039171,21.3319805 C107.039171,21.1062785 107.095597,20.937002 107.208448,20.7677255 C107.321299,20.598449 107.490575,20.485598 107.659851,20.372747 C107.829128,20.259896 108.05483,20.2034705 108.280532,20.2034705 C108.449808,20.2034705 108.562659,20.2034705 108.788361,20.259896 L108.957638,20.3163215 C109.18334,20.598449 109.296191,20.6548745 109.521893,20.6548745 L109.521893,20.6548745 Z" id="Shape"></path>
            </g>
        </g>
    </g>
</svg>