<?xml version="1.0" encoding="UTF-8"?>
<svg width="136px" height="24px" viewBox="0 0 136 24" version="1.1" xmlns="http://www.w3.org/2000/svg" xmlns:xlink="http://www.w3.org/1999/xlink">
    <!-- Generator: Sketch 45.2 (43514) - http://www.bohemiancoding.com/sketch -->
    <title>Group 9</title>
    <desc>Created with Sketch.</desc>
    <defs></defs>
    <g id="Desktop" stroke="none" stroke-width="1" fill="none" fill-rule="evenodd" opacity="0.699999988">
        <g id="Homepage" transform="translate(-503.000000, -3781.000000)" fill-rule="nonzero" fill="#000000">
            <g id="Group-9" transform="translate(503.000000, 3781.000000)">
                <path d="M41.9188857,8.17832812 C40.7401251,8.17756116 39.5934928,8.56714461 38.6540074,9.28761355 L38.6540074,6.1605175 C38.6540074,5.55539315 38.1692711,5.06484294 37.5713186,5.06484294 C36.9733661,5.06484294 36.4886298,5.55539315 36.4886298,6.1605175 L36.4886298,13.6737145 L36.4886298,13.6737145 L36.4886298,18.0700237 C36.5207375,18.6542167 36.9982007,19.1112784 37.5763622,19.1112784 C38.1545237,19.1112784 38.6319869,18.6542167 38.6640946,18.0700237 L38.6640946,13.5376059 L38.6640946,13.5376059 C38.7602111,11.7923958 40.1866396,10.4270739 41.9138421,10.4270739 C43.6410447,10.4270739 45.0674732,11.7923958 45.1635897,13.5376059 L45.1635897,13.5376059 L45.1635897,18.0700237 C45.1956974,18.6542167 45.6731606,19.1112784 46.2513221,19.1112784 C46.8294836,19.1112784 47.3069468,18.6542167 47.3390545,18.0700237 L47.3390545,13.5376059 C47.2661569,10.5598336 44.8622652,8.1829476 41.9188857,8.17832812 L41.9188857,8.17832812 Z" id="Shape"></path>
                <path d="M70.2671753,8.17832812 C67.3211823,8.17925957 64.9132474,10.5571932 64.8402817,13.5376059 L64.8402817,18.0700237 C64.8402817,18.6789066 65.3280288,19.1725037 65.9296953,19.1725037 L65.9296953,19.1725037 C66.5300483,19.1706285 67.0157493,18.6775802 67.0157465,18.0700237 L67.0157465,13.5376059 L67.0157465,13.5376059 C67.111863,11.7923958 68.5382915,10.4270739 70.2654941,10.4270739 C71.9926966,10.4270739 73.4191252,11.7923958 73.5152416,13.5376059 L73.5152416,13.5376059 L73.5152416,18.0700237 C73.5473493,18.6542167 74.0248125,19.1112784 74.602974,19.1112784 C75.1811355,19.1112784 75.6585987,18.6542167 75.6907064,18.0700237 L75.6907064,13.5376059 C75.6177742,10.5585139 73.2118616,8.18110439 70.2671753,8.17832812 L70.2671753,8.17832812 Z" id="Shape"></path>
                <path d="M33.6642243,10.3866908 C34.2658908,10.3866908 34.7536378,9.89309373 34.7536378,9.28421084 C34.7536378,8.67532794 34.2658908,8.18173084 33.6642243,8.18173084 L31.8384478,8.18173084 L31.8384478,6.20815553 C31.8486613,5.59927265 31.3691939,5.0972966 30.7675274,5.08696063 C30.1658609,5.07662465 29.6698342,5.56184278 29.6596207,6.17072565 L29.6596207,15.3070182 C29.6596207,16.3618602 29.9958594,18.7709832 33.2203891,19.1588928 L33.3515222,19.1588928 C33.9231765,19.1554182 34.3949444,18.7053689 34.4320904,18.1280704 C34.4692364,17.5507718 34.0591242,17.0426091 33.4927425,16.964141 C32.3797922,16.8178242 31.8418102,16.2835977 31.8418102,15.3376427 L31.8418102,10.3866908 L33.6642243,10.3866908 Z" id="Shape"></path>
                <path d="M96.8233122,8.18173084 C96.5307627,8.18511007 96.2519341,8.30779395 96.0499631,8.52200244 L94.8428659,9.84225627 C94.4197277,10.2734925 94.4197277,10.969464 94.8428659,11.4007002 L94.8428659,11.4007002 C95.0460602,11.6039704 95.3204135,11.7177187 95.6061279,11.7171528 C95.9030354,11.7158895 96.1868173,11.5931607 96.3929266,11.3768812 L97.6000237,10.0566274 C97.9087011,9.73852111 97.9976728,9.26358373 97.8254629,8.85321716 C97.6532529,8.4428506 97.2537635,8.17784209 96.8132251,8.18173084 L96.8233122,8.18173084 Z" id="Shape"></path>
                <path d="M57.7389192,9.69934219 C56.6644087,8.6618178 55.2138795,8.1199656 53.7309532,8.20214713 C50.947491,8.35224536 48.7219028,10.598662 48.5663259,13.4151081 C48.4597411,15.5454561 49.5824704,17.54535 51.445315,18.5433905 C53.3081596,19.5414309 55.5736793,19.3568305 57.2547354,18.0700237 C57.5274908,17.8636841 57.689211,17.540141 57.6918458,17.1955256 C57.6989473,16.7779806 57.4716059,16.3924351 57.1051164,16.2004984 C56.7386269,16.0085617 56.2963126,16.0433973 55.9635786,16.2904032 C55.1394337,16.9331361 54.060905,17.1374044 53.0628586,16.839786 C52.0648121,16.5421677 51.268066,15.7786908 50.9199972,14.7864027 L58.3172499,14.7864027 C58.9189164,14.7864027 59.4066634,14.2928056 59.4066634,13.6839227 L59.4066634,13.6839227 L59.4066634,13.6839227 C59.4186076,12.1795942 58.8149419,10.7373138 57.7389192,9.69934219 L57.7389192,9.69934219 Z M50.9199972,12.5814427 C51.3752975,11.2618921 52.6053779,10.3780224 53.9864947,10.3780224 C55.3676115,10.3780224 56.5976918,11.2618921 57.0529921,12.5814427 L50.9199972,12.5814427 Z" id="Shape"></path>
                <path d="M103.406867,10.3866908 C104.008534,10.3866908 104.496281,9.89309373 104.496281,9.28421084 C104.496281,8.67532794 104.008534,8.18173084 103.406867,8.18173084 L101.581091,8.18173084 L101.581091,6.20815553 C101.591304,5.59927265 101.111837,5.0972966 100.51017,5.08696063 C99.9085037,5.07662465 99.412477,5.56184278 99.4022635,6.17072565 L99.4022635,15.3070182 C99.4022635,16.3618602 99.7385022,18.7709832 102.963032,19.1588928 L103.094165,19.1588928 C103.665819,19.1554182 104.137587,18.7053689 104.174733,18.1280704 C104.211879,17.5507718 103.801767,17.0426091 103.235385,16.964141 C102.122435,16.8178242 101.584453,16.2835977 101.584453,15.3376427 L101.584453,10.3866908 L103.406867,10.3866908 Z" id="Shape"></path>
                <path d="M86.0838463,9.69934219 C85.0101523,8.66270301 83.561024,8.12091961 82.0792428,8.20214713 C79.2944689,8.35056935 77.0669893,10.5974323 76.9112531,13.4151081 C76.8035744,15.5466892 77.9267472,17.5481392 79.7908743,18.5464804 C81.6550014,19.5448216 83.9219834,19.3589836 85.6030249,18.0700237 C85.8757803,17.8636841 86.0375006,17.540141 86.0401353,17.1955256 C86.0417397,16.7798293 85.8114539,16.3987875 85.4450491,16.2108678 C85.0786443,16.0229481 84.638826,16.0603105 84.3085057,16.3074168 C83.4843608,16.9501497 82.4058322,17.154418 81.4077857,16.8567996 C80.4097392,16.5591813 79.6129931,15.7957043 79.2649244,14.8034163 L86.662177,14.8034163 C87.2638435,14.8034163 87.7515906,14.3098192 87.7515906,13.7009363 L87.7515906,13.7009363 L87.7515906,13.7009363 C87.7682035,12.1907127 87.1641599,10.7413674 86.0838463,9.69934219 L86.0838463,9.69934219 Z M79.2649244,12.5814427 C79.7202247,11.2618921 80.9503051,10.3780224 82.3314218,10.3780224 C83.7125386,10.3780224 84.942619,11.2618921 85.3979193,12.5814427 L79.2649244,12.5814427 Z" id="Shape"></path>
                <path d="M135.016673,16.9267111 C133.903722,16.7803943 133.362378,16.2461679 133.362378,15.3002128 L133.362378,6.21496096 C133.362378,5.60607807 132.874631,5.11248096 132.272964,5.11248096 C131.671298,5.11248096 131.183551,5.60607807 131.183551,6.21496096 L131.183551,9.2774054 C128.860147,7.51040242 125.573607,7.90944649 123.729179,10.1824979 C121.88475,12.4555493 122.137267,15.7955997 124.301925,17.7582389 C126.466583,19.7208781 129.774857,19.6093044 131.805592,17.5051728 C132.303226,18.2537703 133.184171,18.9207027 134.744319,19.1078521 L134.875452,19.1078521 C135.447107,19.1043774 135.918874,18.6543282 135.95602,18.0770296 C135.993166,17.4997311 135.583054,16.9915683 135.016673,16.9131002 L135.016673,16.9267111 Z M127.918672,16.9675437 C126.121101,16.9675437 124.663881,15.4928461 124.663881,13.6737145 C124.663881,11.8545829 126.121101,10.3798854 127.918672,10.3798854 C129.716244,10.3798854 131.173464,11.8545829 131.173464,13.6737145 C131.17161,15.4920687 129.715476,16.9656681 127.918672,16.9675437 Z" id="Shape"></path>
                <path d="M90.2128583,8.59686219 C89.8358882,8.12140734 89.1494294,8.04523495 88.6796095,8.42672639 C88.2097897,8.80821783 88.1345201,9.50291006 88.5114902,9.97836491 L91.4972903,13.5273977 L88.1819762,17.2942044 C87.7588379,17.7254406 87.7588379,18.4214121 88.1819762,18.8526484 L88.1819762,18.8526484 C88.3851705,19.0559185 88.6595237,19.1696669 88.9452382,19.169101 L88.9452382,19.169101 C89.2400475,19.1671667 89.5214952,19.044398 89.7253121,18.8288293 L92.8994059,15.2185476 L95.8919309,18.7505669 C96.0715279,18.9797894 96.3342449,19.1268131 96.621569,19.1588928 L96.7493397,19.1588928 C96.9936783,19.1588158 97.2307612,19.0748415 97.4218172,18.9207027 C97.6489277,18.7370169 97.7943472,18.469317 97.8258989,18.1768366 C97.8574507,17.8843562 97.7725334,17.5912088 97.5899366,17.3622587 L90.2128583,8.59686219 Z" id="Shape"></path>
                <path d="M120.201993,8.22936886 C119.600326,8.22936886 119.112579,8.72296597 119.112579,9.33184886 L119.112579,9.35226516 C116.885679,7.58374861 113.689886,7.84308909 111.76992,9.94812618 C109.849954,12.0531633 109.849954,15.2976685 111.76992,17.4027056 C113.689886,19.5077427 116.885679,19.7670832 119.112579,17.9985666 L119.112579,18.0462047 C119.112579,18.6550875 119.600326,19.1486847 120.201993,19.1486847 C120.803659,19.1486847 121.291407,18.6550875 121.291407,18.0462047 L121.291407,9.33184886 C121.291407,8.72296597 120.803659,8.22936886 120.201993,8.22936886 Z M115.773729,16.9675437 C113.976157,16.9675437 112.518937,15.4928461 112.518937,13.6737145 C112.518937,11.8545829 113.976157,10.3798854 115.773729,10.3798854 C117.5713,10.3798854 119.02852,11.8545829 119.02852,13.6737145 C119.026666,15.4920687 117.570532,16.9656681 115.773729,16.9675437 Z" id="Shape"></path>
                <path d="M19.347178,5.95975726 C17.8744523,5.95975726 17.4138052,7.62708812 16.926259,9.38969503 C16.1562722,12.169714 16.1831713,12.0336054 15.399735,10.4275234 C14.9424503,9.46115207 14.2699728,8.13409281 12.8174214,8.13409281 C11.2135625,8.13409281 10.6789429,10.0191975 10.1644976,11.8362479 C9.37097413,14.6332805 9.42140995,14.4291175 8.6783223,12.901298 C8.20086326,11.9145103 7.54519769,10.5840484 6.06238477,10.5840484 C4.43162681,10.5840484 3.88355763,12.5576237 3.40273621,14.303217 C3.36574995,14.4359229 3.06649746,15.88548 2.85802943,15.88548 C2.48144202,15.88548 2.02079492,13.2892076 2.02079492,12.1424923 C2.01791222,9.21888206 3.38517293,6.46709519 5.70585501,4.72583807 C8.0265371,2.98458095 11.0256669,2.46017214 13.7891514,3.31244417 L13.7891514,3.34987405 C13.8123818,4.57836028 14.6812889,5.62311653 15.8734348,5.85597414 C17.0655808,6.08883175 18.2562805,5.44637114 18.7296155,4.31487726 C19.2029505,3.18338338 18.8300065,1.87102254 17.8350191,1.16686293 C16.8400318,0.462703326 15.4939894,0.558525285 14.6062116,1.39671504 C11.2115376,0.267000739 7.48729515,0.8556026 4.59464831,2.97900322 C1.70200147,5.10240384 -0.00718057116,8.50230714 1.3964978e-14,12.1186733 C1.3964978e-14,14.0446106 0.736362876,18.2707839 2.9185524,18.2707839 C4.39127816,18.2707839 4.85192525,16.6034531 5.33947145,14.8408461 C6.1094582,12.0608271 6.0825591,12.1969358 6.8659954,13.8030177 C7.33672966,14.7727918 7.98567046,16.0998511 9.44830905,16.0998511 C11.0521679,16.0998511 11.5867875,14.2147464 12.1012328,12.397696 C12.8947563,9.60066343 12.8443205,9.80482639 13.5874081,11.3326459 C14.0682296,12.3160308 14.7238951,13.6464928 16.206708,13.6464928 C17.837466,13.6464928 18.3855352,11.6729175 18.8663566,9.92732417 C18.9033429,9.79461824 19.2025954,8.34506121 19.4110634,8.34506121 C19.7876508,8.34506121 20.2482979,10.9413336 20.2482979,12.0880489 C20.2511806,15.0116591 18.8839199,17.763446 16.5632378,19.5047031 C14.2425557,21.2459602 11.2434259,21.770369 8.47994143,20.918097 L8.47994143,20.8806671 C8.45816646,19.6522901 7.59068142,18.6065576 6.39897648,18.3721135 C5.20727154,18.1376695 4.01583598,18.7783507 3.54090341,19.9090106 C3.06597084,21.0396704 3.43686062,22.3524415 4.43061171,23.0581492 C5.42436279,23.7638569 6.77038674,23.6703441 7.65951887,22.8338261 C11.0517975,23.9639459 14.7739214,23.3779554 17.6666383,21.2583607 C20.5593553,19.1387661 22.2712271,15.7430783 22.2690928,12.1288815 C22.2690928,10.1859306 21.5327299,5.95975726 19.347178,5.95975726 Z M16.3479283,2.47537602 C16.8121772,2.47537602 17.1885252,2.85623799 17.1885252,3.32605504 C17.1885252,3.79587208 16.8121772,4.17673405 16.3479283,4.17673405 C15.8836795,4.17673405 15.5073314,3.79587208 15.5073314,3.32605504 C15.5073314,2.85623799 15.8836795,2.47537602 16.3479283,2.47537602 L16.3479283,2.47537602 Z M5.92452688,21.7517624 C5.46027804,21.7517624 5.08392999,21.3709005 5.08392999,20.9010834 C5.08392999,20.4312664 5.46027804,20.0504044 5.92452688,20.0504044 C6.38877573,20.0504044 6.76512377,20.4312664 6.76512377,20.9010834 C6.76602201,21.1278774 6.67739359,21.345645 6.5189254,21.5060139 C6.3604572,21.6663827 6.14527057,21.7560742 5.9211645,21.7551652 L5.92452688,21.7517624 Z" id="Shape"></path>
            </g>
        </g>
    </g>
</svg>