<?xml version="1.0" encoding="UTF-8"?>
<svg width="115px" height="33px" viewBox="0 0 115 33" version="1.1" xmlns="http://www.w3.org/2000/svg" xmlns:xlink="http://www.w3.org/1999/xlink">
    <!-- Generator: Sketch 45.2 (43514) - http://www.bohemiancoding.com/sketch -->
    <title>Group 8</title>
    <desc>Created with Sketch.</desc>
    <defs></defs>
    <g id="Desktop" stroke="none" stroke-width="1" fill="none" fill-rule="evenodd">
        <g id="Homepage" transform="translate(-277.000000, -3776.000000)" fill="#000000">
            <g id="Group-8" transform="translate(277.000000, 3776.000000)">
                <path d="M0.86110934,20.4059243 C0.386531664,20.4059243 0,20.0065592 0,19.5211451 L0,15.0128304 C0,14.5252077 0.388681139,14.1280511 0.86110934,14.1280511 C1.33568702,14.1280511 1.72221868,14.5274162 1.72221868,15.0128304 L1.72221868,19.5211451 C1.72221868,20.0065649 1.34427392,20.4059243 0.86110934,20.4059243 Z" id="Fill-11" transform="translate(0.861109, 17.266988) scale(1, -1) translate(-0.861109, -17.266988) "></path>
                <path d="M5.45369249,20.4059243 C4.97911481,20.4059243 4.59258315,20.0312429 4.59258315,19.5758308 L4.59258315,8.10955568 C4.59258315,7.6520716 4.98126428,7.27946223 5.45369249,7.27946223 C5.92827016,7.27946223 6.31480183,7.65414365 6.31480183,8.10955568 L6.31480183,19.5758308 C6.31480183,20.0415979 5.92827016,20.4059243 5.45369249,20.4059243 Z" id="Fill-12" transform="translate(5.453692, 13.842693) scale(1, -1) translate(-5.453692, -13.842693) "></path>
                <path d="M9.76138865,19.5903884 L9.75923918,4.09951962 C9.75923918,3.65031665 10.1479183,3.28445204 10.6203441,3.28445204 C11.0949193,3.28445204 11.481449,3.65235119 11.481449,4.09951962 L11.481449,19.5888274 C11.4835985,20.0461633 11.0949193,20.4059243 10.6224881,20.4059243 C10.1479183,20.405456 9.76138865,20.0375568 9.76138865,19.5903884 Z" id="Fill-15" transform="translate(10.620349, 11.845188) scale(1, -1) translate(-10.620349, -11.845188) "></path>
                <path d="M15.2129317,20.4059243 C14.738354,20.4059243 14.3518223,20.0419637 14.3518223,19.5995825 L14.3518223,6.94437253 C14.3518223,6.49997855 14.7405035,6.13803075 15.2129317,6.13803075 C15.6875093,6.13803075 16.074041,6.50199131 16.074041,6.94437253 L16.074041,19.5995825 C16.074041,20.0520224 15.6875093,20.4059243 15.2129317,20.4059243 Z" id="Fill-13" transform="translate(15.212932, 13.271978) scale(1, -1) translate(-15.212932, -13.271978) "></path>
                <path d="M19.8055148,20.4059243 C19.3309371,20.4059243 18.9444055,20.0229346 18.9444055,19.5574242 L18.9444055,1.27937347 C18.9444055,0.811745024 19.3330866,0.430873333 19.8055148,0.430873333 C20.2800925,0.430873333 20.6666242,0.813863024 20.6666242,1.27937347 L20.6666242,19.5574242 C20.6666242,20.02294 20.2800925,20.4059243 19.8055148,20.4059243 Z" id="Fill-18" transform="translate(19.805515, 10.418399) scale(1, -1) translate(-19.805515, -10.418399) "></path>
                <path d="M23.5369886,19.564708 L23.5369886,4.69643783 C23.5369886,4.23279406 23.9256677,3.85516778 24.3980934,3.85516778 C24.8726686,3.85516778 25.2591982,4.23489401 25.2591982,4.69643783 L25.2591982,19.5625597 C25.2613477,20.0262034 24.8812555,20.4059243 24.3980934,20.4059243 C23.9235182,20.405978 23.5369886,20.0262518 23.5369886,19.564708 Z" id="Fill-16" transform="translate(24.398098, 12.130546) scale(1, -1) translate(-24.398098, -12.130546) "></path>
                <path d="M28.1295718,19.6203177 L28.1295718,1.21673061 C28.1295718,0.78362612 28.5182529,0.430873333 28.9906811,0.430873333 C29.4652588,0.430873333 29.8517904,0.785587753 29.8517904,1.21673061 L29.8517904,19.6102838 C29.8517904,20.0512298 29.4631093,20.4059242 28.9906811,20.4059242 C28.5161034,20.406175 28.1295718,20.0514606 28.1295718,19.6203177 Z" id="Fill-17" transform="translate(28.990681, 10.418399) scale(1, -1) translate(-28.990681, -10.418399) "></path>
                <path d="M0.86110934,24.4009345 C0.386531664,24.4009345 0,24.0324357 0,23.5845385 L0,23.5051832 C0,23.0552482 0.388681139,22.6887873 0.86110934,22.6887873 C1.33568702,22.6887873 1.72221868,23.057286 1.72221868,23.5051832 L1.72221868,23.5845385 C1.72221868,24.0324409 1.33353754,24.4009345 0.86110934,24.4009345 Z" id="Fill-19-Copy-8"></path>
                <path d="M0.86110934,27.2545132 C0.386531664,27.2545132 0,26.8860144 0,26.4381172 L0,26.3587619 C0,25.9088269 0.388681139,25.542366 0.86110934,25.542366 C1.33568702,25.542366 1.72221868,25.9108647 1.72221868,26.3587619 L1.72221868,26.4381172 C1.72221868,26.8860197 1.33353754,27.2545132 0.86110934,27.2545132 Z" id="Fill-19-Copy-9"></path>
                <path d="M5.45369249,24.4009345 C4.97911481,24.4009345 4.59258315,24.0324357 4.59258315,23.5845385 L4.59258315,23.5051832 C4.59258315,23.0552482 4.98126428,22.6887873 5.45369249,22.6887873 C5.92827016,22.6887873 6.31480183,23.057286 6.31480183,23.5051832 L6.31480183,23.5845385 C6.31480183,24.0324409 5.92612069,24.4009345 5.45369249,24.4009345 Z" id="Fill-19-Copy-14"></path>
                <path d="M5.45369249,27.2545132 C4.97911481,27.2545132 4.59258315,26.8860144 4.59258315,26.4381172 L4.59258315,26.3587619 C4.59258315,25.9088269 4.98126428,25.542366 5.45369249,25.542366 C5.92827016,25.542366 6.31480183,25.9108647 6.31480183,26.3587619 L6.31480183,26.4381172 C6.31480183,26.8860197 5.92612069,27.2545132 5.45369249,27.2545132 Z" id="Fill-19-Copy-15"></path>
                <path d="M5.45369249,30.1080919 C4.97911481,30.1080919 4.59258315,29.7395932 4.59258315,29.2916959 L4.59258315,29.2123407 C4.59258315,28.7624056 4.98126428,28.3959447 5.45369249,28.3959447 C5.92827016,28.3959447 6.31480183,28.7644434 6.31480183,29.2123407 L6.31480183,29.2916959 C6.31480183,29.7395984 5.92612069,30.1080919 5.45369249,30.1080919 Z" id="Fill-19-Copy-16"></path>
                <path d="M10.6203485,24.4009345 C10.1457708,24.4009345 9.75923918,24.0324357 9.75923918,23.5845385 L9.75923918,23.5051832 C9.75923918,23.0552482 10.1479203,22.6887873 10.6203485,22.6887873 C11.0949262,22.6887873 11.4814579,23.057286 11.4814579,23.5051832 L11.4814579,23.5845385 C11.4814579,24.0324409 11.0927767,24.4009345 10.6203485,24.4009345 Z" id="Fill-19-Copy-19"></path>
                <path d="M10.6203485,27.2545132 C10.1457708,27.2545132 9.75923918,26.8860144 9.75923918,26.4381172 L9.75923918,26.3587619 C9.75923918,25.9088269 10.1479203,25.542366 10.6203485,25.542366 C11.0949262,25.542366 11.4814579,25.9108647 11.4814579,26.3587619 L11.4814579,26.4381172 C11.4814579,26.8860197 11.0927767,27.2545132 10.6203485,27.2545132 Z" id="Fill-19-Copy-20"></path>
                <path d="M10.6203485,30.1080919 C10.1457708,30.1080919 9.75923918,29.7395932 9.75923918,29.2916959 L9.75923918,29.2123407 C9.75923918,28.7624056 10.1479203,28.3959447 10.6203485,28.3959447 C11.0949262,28.3959447 11.4814579,28.7644434 11.4814579,29.2123407 L11.4814579,29.2916959 C11.4814579,29.7395984 11.0927767,30.1080919 10.6203485,30.1080919 Z" id="Fill-19-Copy-21"></path>
                <path d="M10.6203485,32.9616706 C10.1457708,32.9616706 9.75923918,32.5931719 9.75923918,32.1452746 L9.75923918,32.0659194 C9.75923918,31.6159843 10.1479203,31.2495234 10.6203485,31.2495234 C11.0949262,31.2495234 11.4814579,31.6180221 11.4814579,32.0659194 L11.4814579,32.1452746 C11.4814579,32.5931771 11.0927767,32.9616706 10.6203485,32.9616706 Z" id="Fill-19-Copy-22"></path>
                <path d="M15.2129317,24.4009345 C14.738354,24.4009345 14.3518223,24.0324357 14.3518223,23.5845385 L14.3518223,23.5051832 C14.3518223,23.0552482 14.7405035,22.6887873 15.2129317,22.6887873 C15.6875093,22.6887873 16.074041,23.057286 16.074041,23.5051832 L16.074041,23.5845385 C16.074041,24.0324409 15.6853599,24.4009345 15.2129317,24.4009345 Z" id="Fill-19-Copy-26"></path>
                <path d="M15.2129317,27.2545132 C14.738354,27.2545132 14.3518223,26.8860144 14.3518223,26.4381172 L14.3518223,26.3587619 C14.3518223,25.9088269 14.7405035,25.542366 15.2129317,25.542366 C15.6875093,25.542366 16.074041,25.9108647 16.074041,26.3587619 L16.074041,26.4381172 C16.074041,26.8860197 15.6853599,27.2545132 15.2129317,27.2545132 Z" id="Fill-19-Copy-27"></path>
                <path d="M15.2129317,30.1080919 C14.738354,30.1080919 14.3518223,29.7395932 14.3518223,29.2916959 L14.3518223,29.2123407 C14.3518223,28.7624056 14.7405035,28.3959447 15.2129317,28.3959447 C15.6875093,28.3959447 16.074041,28.7644434 16.074041,29.2123407 L16.074041,29.2916959 C16.074041,29.7395984 15.6853599,30.1080919 15.2129317,30.1080919 Z" id="Fill-19-Copy-28"></path>
                <path d="M19.8055148,24.4009345 C19.3309371,24.4009345 18.9444055,24.0324357 18.9444055,23.5845385 L18.9444055,23.5051832 C18.9444055,23.0552482 19.3330866,22.6887873 19.8055148,22.6887873 C20.2800925,22.6887873 20.6666242,23.057286 20.6666242,23.5051832 L20.6666242,23.5845385 C20.6666242,24.0324409 20.277943,24.4009345 19.8055148,24.4009345 Z" id="Fill-19-Copy-31"></path>
                <path d="M19.8055148,27.2545132 C19.3309371,27.2545132 18.9444055,26.8860144 18.9444055,26.4381172 L18.9444055,26.3587619 C18.9444055,25.9088269 19.3330866,25.542366 19.8055148,25.542366 C20.2800925,25.542366 20.6666242,25.9108647 20.6666242,26.3587619 L20.6666242,26.4381172 C20.6666242,26.8860197 20.277943,27.2545132 19.8055148,27.2545132 Z" id="Fill-19-Copy-32"></path>
                <path d="M19.8055148,30.1080919 C19.3309371,30.1080919 18.9444055,29.7395932 18.9444055,29.2916959 L18.9444055,29.2123407 C18.9444055,28.7624056 19.3330866,28.3959447 19.8055148,28.3959447 C20.2800925,28.3959447 20.6666242,28.7644434 20.6666242,29.2123407 L20.6666242,29.2916959 C20.6666242,29.7395984 20.277943,30.1080919 19.8055148,30.1080919 Z" id="Fill-19-Copy-33"></path>
                <path d="M19.8055148,32.9616706 C19.3309371,32.9616706 18.9444055,32.5931719 18.9444055,32.1452746 L18.9444055,32.0659194 C18.9444055,31.6159843 19.3330866,31.2495234 19.8055148,31.2495234 C20.2800925,31.2495234 20.6666242,31.6180221 20.6666242,32.0659194 L20.6666242,32.1452746 C20.6666242,32.5931771 20.277943,32.9616706 19.8055148,32.9616706 Z" id="Fill-19-Copy-34"></path>
                <path d="M24.398098,24.4009345 C23.9235203,24.4009345 23.5369886,24.0324357 23.5369886,23.5845385 L23.5369886,23.5051832 C23.5369886,23.0552482 23.9256698,22.6887873 24.398098,22.6887873 C24.8726756,22.6887873 25.2592073,23.057286 25.2592073,23.5051832 L25.2592073,23.5845385 C25.2592073,24.0324409 24.8705262,24.4009345 24.398098,24.4009345 Z" id="Fill-19-Copy-36"></path>
                <path d="M24.398098,27.2545132 C23.9235203,27.2545132 23.5369886,26.8860144 23.5369886,26.4381172 L23.5369886,26.3587619 C23.5369886,25.9088269 23.9256698,25.542366 24.398098,25.542366 C24.8726756,25.542366 25.2592073,25.9108647 25.2592073,26.3587619 L25.2592073,26.4381172 C25.2592073,26.8860197 24.8705262,27.2545132 24.398098,27.2545132 Z" id="Fill-19-Copy-38"></path>
                <path d="M24.398098,30.1080919 C23.9235203,30.1080919 23.5369886,29.7395932 23.5369886,29.2916959 L23.5369886,29.2123407 C23.5369886,28.7624056 23.9256698,28.3959447 24.398098,28.3959447 C24.8726756,28.3959447 25.2592073,28.7644434 25.2592073,29.2123407 L25.2592073,29.2916959 C25.2592073,29.7395984 24.8705262,30.1080919 24.398098,30.1080919 Z" id="Fill-19-Copy-40"></path>
                <path d="M28.9906811,24.4009345 C28.5161034,24.4009345 28.1295718,24.0324357 28.1295718,23.5845385 L28.1295718,23.5051832 C28.1295718,23.0552482 28.5182529,22.6887873 28.9906811,22.6887873 C29.4652588,22.6887873 29.8517904,23.057286 29.8517904,23.5051832 L29.8517904,23.5845385 C29.8517904,24.0324409 29.4631093,24.4009345 28.9906811,24.4009345 Z" id="Fill-19-Copy-37"></path>
                <path d="M28.9906811,27.2545132 C28.5161034,27.2545132 28.1295718,26.8860144 28.1295718,26.4381172 L28.1295718,26.3587619 C28.1295718,25.9088269 28.5182529,25.542366 28.9906811,25.542366 C29.4652588,25.542366 29.8517904,25.9108647 29.8517904,26.3587619 L29.8517904,26.4381172 C29.8517904,26.8860197 29.4631093,27.2545132 28.9906811,27.2545132 Z" id="Fill-19-Copy-39"></path>
                <path d="M28.9906811,30.1080919 C28.5161034,30.1080919 28.1295718,29.7395932 28.1295718,29.2916959 L28.1295718,29.2123407 C28.1295718,28.7624056 28.5182529,28.3959447 28.9906811,28.3959447 C29.4652588,28.3959447 29.8517904,28.7644434 29.8517904,29.2123407 L29.8517904,29.2916959 C29.8517904,29.7395984 29.4631093,30.1080919 28.9906811,30.1080919 Z" id="Fill-19-Copy-41"></path>
                <path d="M28.9906811,32.9616706 C28.5161034,32.9616706 28.1295718,32.5931719 28.1295718,32.1452746 L28.1295718,32.0659194 C28.1295718,31.6159843 28.5182529,31.2495234 28.9906811,31.2495234 C29.4652588,31.2495234 29.8517904,31.6180221 29.8517904,32.0659194 L29.8517904,32.1452746 C29.8517904,32.5931771 29.4631093,32.9616706 28.9906811,32.9616706 Z" id="Fill-19-Copy-43"></path>
                <path d="M43.0894104,1.80858113 L41.5387664,1.80858113 L41.5387664,7.12651978 L41.5387664,7.12651978 C41.5387664,7.37504792 41.3372945,7.57651978 41.0887664,7.57651978 L40.339455,7.57651978 L40.339455,7.57651978 C40.0909268,7.57651978 39.889455,7.37504792 39.889455,7.12651978 L39.889455,1.80858113 L38.338811,1.80858113 L38.338811,1.80858113 C38.0902828,1.80858113 37.888811,1.60710927 37.888811,1.35858113 L37.888811,0.958490674 L37.888811,0.958490674 C37.888811,0.709962537 38.0902828,0.508490674 38.338811,0.508490674 L43.0894104,0.508490674 L43.0894104,0.508490674 C43.3379386,0.508490674 43.5394104,0.709962537 43.5394104,0.958490674 L43.5394104,1.35858113 L43.5394104,1.35858113 C43.5394104,1.60710927 43.3379386,1.80858113 43.0894104,1.80858113 Z M51.1547744,0.958490674 L51.1547744,7.12651978 L51.1547744,7.12651978 C51.1547744,7.37504792 50.9533025,7.57651978 50.7047744,7.57651978 L49.9457037,7.57651978 L49.9457037,7.57651978 C49.6971756,7.57651978 49.4957037,7.37504792 49.4957037,7.12651978 L49.4957037,4.58825215 L46.6069689,4.58825215 L46.6069689,7.12651978 L46.6069689,7.12651978 C46.6069689,7.37504792 46.4054971,7.57651978 46.1569689,7.57651978 L45.3978983,7.57651978 L45.3978983,7.57651978 C45.1493701,7.57651978 44.9478983,7.37504792 44.9478983,7.12651978 L44.9478983,0.958490674 L44.9478983,0.958490674 C44.9478983,0.709962537 45.1493701,0.508490674 45.3978983,0.508490674 L46.1569689,0.508490674 L46.1569689,0.508490674 C46.4054971,0.508490674 46.6069689,0.709962537 46.6069689,0.958490674 L46.6069689,3.46280071 L49.4957037,3.46280071 L49.4957037,0.958490674 L49.4957037,0.958490674 C49.4957037,0.709962537 49.6971756,0.508490674 49.9457037,0.508490674 L50.7047744,0.508490674 L50.7047744,0.508490674 C50.9533025,0.508490674 51.1547744,0.709962537 51.1547744,0.958490674 Z M54.3139707,7.57651978 L53.5549,7.57651978 L53.5549,7.57651978 C53.3063719,7.57651978 53.1049,7.37504792 53.1049,7.12651978 L53.1049,0.958490674 L53.1049,0.958490674 C53.1049,0.709962537 53.3063719,0.508490674 53.5549,0.508490674 L54.3139707,0.508490674 L54.3139707,0.508490674 C54.5624988,0.508490674 54.7639707,0.709962537 54.7639707,0.958490674 L54.7639707,7.12651978 L54.7639707,7.12651978 C54.7639707,7.37504792 54.5624988,7.57651978 54.3139707,7.57651978 Z M60.6421901,1.94441148 C60.5933936,2.02202921 60.5421581,2.08024163 60.4884821,2.1190505 C60.434806,2.15785936 60.3656787,2.1772635 60.2810982,2.1772635 C60.206277,2.1772635 60.1257641,2.15381683 60.0395571,2.10692279 C59.95335,2.06002874 59.8557586,2.00747586 59.7467799,1.94926256 C59.6378012,1.89104927 59.5133721,1.83849639 59.373489,1.79160234 C59.2336059,1.7447083 59.0742065,1.72126163 58.8952863,1.72126163 C58.5862421,1.72126163 58.3560891,1.7867506 58.2048201,1.91773052 C58.0535511,2.04871044 57.9779178,2.22577323 57.9779178,2.4489242 C57.9779178,2.59122337 58.0234604,2.70926522 58.1145471,2.80305331 C58.2056338,2.8968414 58.3251833,2.97769199 58.4731992,3.0456075 C58.621215,3.11352302 58.7903735,3.17577797 58.9806796,3.23237423 C59.1709857,3.28897049 59.3653553,3.35203395 59.5637941,3.4215665 C59.762233,3.49109905 59.9566026,3.57275814 60.1469087,3.66654623 C60.3372148,3.76033432 60.5063733,3.87999319 60.6543891,4.02552643 C60.802405,4.17105967 60.9219545,4.34812246 61.0130412,4.55672011 C61.1041279,4.76531776 61.1496705,5.01676309 61.1496705,5.31106364 C61.1496705,5.63770492 61.0927422,5.94332014 60.9788838,6.22791848 C60.8650255,6.51251682 60.6999333,6.76072813 60.4836024,6.97255984 C60.2672716,7.18439156 60.0005217,7.35094377 59.6833448,7.47222148 C59.366168,7.59349918 59.005893,7.65413712 58.6025091,7.65413712 C58.3812986,7.65413712 58.156025,7.63149895 57.9266818,7.58622195 C57.6973385,7.54094494 57.475318,7.47707297 57.2606137,7.39460414 C57.0459094,7.3121353 56.8442204,7.21430609 56.6555409,7.10111357 C56.4668613,6.98792104 56.3025824,6.86179413 56.1626993,6.72272903 L56.6506612,5.95625779 C56.6896984,5.90127856 56.7409339,5.85519373 56.8043693,5.8180019 C56.8678046,5.78081007 56.9369319,5.76221444 57.0117531,5.76221444 C57.109346,5.76221444 57.2077507,5.79293766 57.3069701,5.85438503 C57.4061895,5.9158324 57.5184196,5.98374689 57.6436638,6.05813055 C57.768908,6.1325142 57.9128554,6.2004287 58.0755102,6.26187607 C58.238165,6.32332344 58.4300948,6.35404666 58.6513053,6.35404666 C58.9505901,6.35404666 59.183183,6.28855768 59.3490909,6.15757777 C59.5149988,6.02659785 59.5979515,5.81881184 59.5979515,5.5342135 C59.5979515,5.36927582 59.5524088,5.23506385 59.4613221,5.13157354 C59.3702354,5.02808324 59.250686,4.94238161 59.1026701,4.8744661 C58.9546542,4.80655059 58.786309,4.74672115 58.5976295,4.694976 C58.4089499,4.64323085 58.2153936,4.58582693 58.0169547,4.52276252 C57.8185159,4.45969812 57.6249596,4.38208155 57.43628,4.2899105 C57.2476004,4.19773945 57.0792552,4.07646356 56.9312394,3.92607921 C56.7832235,3.77569486 56.663674,3.5881215 56.5725873,3.36335349 C56.4815006,3.13858549 56.435958,2.86126797 56.435958,2.53139262 C56.435958,2.26619871 56.4896333,2.00747683 56.5969854,1.75521921 C56.7043376,1.50296159 56.8621104,1.27819696 57.0703085,1.08091856 C57.2785067,0.883640169 57.5338709,0.725981522 57.8364088,0.607937892 C58.1389467,0.489894263 58.4853963,0.430873333 58.8757678,0.430873333 C59.0937252,0.430873333 59.3059865,0.447851957 59.5125581,0.481809713 C59.7191297,0.51576747 59.9151258,0.565894834 60.1005523,0.632193311 C60.2859788,0.698491788 60.4592035,0.777725364 60.6202318,0.869896418 C60.78126,0.962067471 60.9252074,1.06636473 61.0520781,1.18279132 L60.6421901,1.94441148 Z M66.7323155,7.57651978 L65.9732448,7.57651978 L65.9732448,7.57651978 C65.7247167,7.57651978 65.5232448,7.37504792 65.5232448,7.12651978 L65.5232448,0.958490674 L65.5232448,0.958490674 C65.5232448,0.709962537 65.7247167,0.508490674 65.9732448,0.508490674 L66.7323155,0.508490674 L66.7323155,0.508490674 C66.9808436,0.508490674 67.1823155,0.709962537 67.1823155,0.958490674 L67.1823155,7.12651978 L67.1823155,7.12651978 C67.1823155,7.37504792 66.9808436,7.57651978 66.7323155,7.57651978 Z M73.0605349,1.94441148 C73.0117385,2.02202921 72.960503,2.08024163 72.9068269,2.1190505 C72.8531508,2.15785936 72.7840235,2.1772635 72.699443,2.1772635 C72.6246218,2.1772635 72.5441089,2.15381683 72.4579019,2.10692279 C72.3716948,2.06002874 72.2741034,2.00747586 72.1651247,1.94926256 C72.056146,1.89104927 71.9317169,1.83849639 71.7918338,1.79160234 C71.6519507,1.7447083 71.4925514,1.72126163 71.3136311,1.72126163 C71.004587,1.72126163 70.7744339,1.7867506 70.6231649,1.91773052 C70.4718959,2.04871044 70.3962626,2.22577323 70.3962626,2.4489242 C70.3962626,2.59122337 70.4418053,2.70926522 70.532892,2.80305331 C70.6239786,2.8968414 70.7435281,2.97769199 70.891544,3.0456075 C71.0395599,3.11352302 71.2087183,3.17577797 71.3990244,3.23237423 C71.5893305,3.28897049 71.7837001,3.35203395 71.982139,3.4215665 C72.1805778,3.49109905 72.3749474,3.57275814 72.5652535,3.66654623 C72.7555596,3.76033432 72.9247181,3.87999319 73.0727339,4.02552643 C73.2207498,4.17105967 73.3402993,4.34812246 73.431386,4.55672011 C73.5224727,4.76531776 73.5680153,5.01676309 73.5680153,5.31106364 C73.5680153,5.63770492 73.511087,5.94332014 73.3972287,6.22791848 C73.2833703,6.51251682 73.1182781,6.76072813 72.9019473,6.97255984 C72.6856164,7.18439156 72.4188665,7.35094377 72.1016896,7.47222148 C71.7845128,7.59349918 71.4242378,7.65413712 71.0208539,7.65413712 C70.7996434,7.65413712 70.5743699,7.63149895 70.3450266,7.58622195 C70.1156833,7.54094494 69.8936629,7.47707297 69.6789585,7.39460414 C69.4642542,7.3121353 69.2625653,7.21430609 69.0738857,7.10111357 C68.8852061,6.98792104 68.7678603,6.8700483 68.6279772,6.73098321 C68.5347217,6.63827314 68.6817314,6.38003133 69.0690061,5.95625779 C69.1080432,5.90127856 69.1592787,5.85519373 69.2227141,5.8180019 C69.2861495,5.78081007 69.3552767,5.76221444 69.4300979,5.76221444 C69.5276908,5.76221444 69.6260955,5.79293766 69.7253149,5.85438503 C69.8245343,5.9158324 69.9367645,5.98374689 70.0620087,6.05813055 C70.1872529,6.1325142 70.3312002,6.2004287 70.493855,6.26187607 C70.6565098,6.32332344 70.8484396,6.35404666 71.0696501,6.35404666 C71.3689349,6.35404666 71.6015278,6.28855768 71.7674357,6.15757777 C71.9333436,6.02659785 72.0162963,5.81881184 72.0162963,5.5342135 C72.0162963,5.36927582 71.9707536,5.23506385 71.879667,5.13157354 C71.7885803,5.02808324 71.6690308,4.94238161 71.5210149,4.8744661 C71.3729991,4.80655059 71.2046539,4.74672115 71.0159743,4.694976 C70.8272947,4.64323085 70.6337384,4.58582693 70.4352996,4.52276252 C70.2368607,4.45969812 70.0433044,4.38208155 69.8546248,4.2899105 C69.6659453,4.19773945 69.4976001,4.07646356 69.3495842,3.92607921 C69.2015683,3.77569486 69.0820188,3.5881215 68.9909322,3.36335349 C68.8998455,3.13858549 68.8543028,2.86126797 68.8543028,2.53139262 C68.8543028,2.26619871 68.9079781,2.00747683 69.0153303,1.75521921 C69.1226824,1.50296159 69.2804552,1.27819696 69.4886534,1.08091856 C69.6968515,0.883640169 69.9522157,0.725981522 70.2547536,0.607937892 C70.5572916,0.489894263 70.9037411,0.430873333 71.2941126,0.430873333 C71.51207,0.430873333 71.7243314,0.447851957 71.930903,0.481809713 C72.1374746,0.51576747 72.3334707,0.565894834 72.5188971,0.632193311 C72.7043236,0.698491788 72.8775484,0.777725364 73.0385766,0.869896418 C73.1996049,0.962067471 73.3435522,1.06636473 73.4704229,1.18279132 C73.5550034,1.26040905 73.4183741,1.51428244 73.0605349,1.94441148 Z" id="THIS-IS"></path>
                <path d="M40.9710083,16.5327619 C41.400417,16.5327619 41.7094565,16.4308902 41.898136,16.2271436 C42.0868156,16.0233971 42.181154,15.738803 42.181154,15.3733529 C42.181154,15.2116493 42.1567561,15.0645012 42.1079597,14.9319043 C42.0591632,14.7993073 41.9851564,14.685308 41.885937,14.5899028 C41.7867176,14.4944977 41.6614752,14.4209237 41.5102063,14.3691785 C41.3589373,14.3174334 41.1792065,14.2915612 40.9710083,14.2915612 L40.1121953,14.2915612 L40.1121953,16.5327619 L40.9710083,16.5327619 Z M40.9710083,13.064237 C41.4719851,13.064237 41.9022006,13.1232579 42.2616677,13.2413016 C42.6211348,13.3593452 42.9171621,13.5218549 43.1497585,13.7288355 C43.3823548,13.9358161 43.5539531,14.1799849 43.6645583,14.4613491 C43.7751636,14.7427134 43.8304654,15.0467116 43.8304654,15.3733529 C43.8304654,15.7258667 43.7735371,16.0492691 43.6596787,16.3435696 C43.5458204,16.6378702 43.3717823,16.890124 43.1375594,17.1003387 C42.9033365,17.3105534 42.6064959,17.4746801 42.2470288,17.5927237 C41.8875617,17.7107674 41.4622258,17.7697883 40.9710083,17.7697883 L40.1121953,17.7697883 L40.1121953,19.6822661 L40.1121953,19.6822661 C40.1121953,19.9307942 39.9107234,20.1322661 39.6621953,20.1322661 L38.9128838,20.1322661 L38.9128838,20.1322661 C38.6643557,20.1322661 38.4628838,19.9307942 38.4628838,19.6822661 L38.4628838,13.514237 L38.4628838,13.514237 C38.4628838,13.2657089 38.6643557,13.064237 38.9128838,13.064237 L40.9710083,13.064237 Z M47.5567725,16.3872294 C47.7812362,16.3872294 47.9723527,16.3589317 48.1301278,16.3023354 C48.287903,16.2457392 48.4172116,16.1673141 48.5180576,16.0670579 C48.6189036,15.9668016 48.6920971,15.8495683 48.7376405,15.7153543 C48.7831838,15.5811403 48.8059552,15.4364178 48.8059552,15.2811823 C48.8059552,14.9707114 48.7042974,14.7281596 48.5009789,14.5535197 C48.2976604,14.3788798 47.9829281,14.2915612 47.5567725,14.2915612 L46.8931443,14.2915612 L46.8931443,16.3872294 L47.5567725,16.3872294 Z M50.2552741,20.1322661 L49.5671758,20.1322661 C49.2906627,20.1322661 49.0922268,20.0287773 48.9718622,19.8217967 L47.7909943,17.7697883 C47.7356917,17.6824683 47.6738838,17.6185964 47.6055687,17.5781705 C47.5372537,17.5377446 47.4396623,17.5175319 47.3127916,17.5175319 L46.8931443,17.5175319 L46.8931443,19.6822661 L46.8931443,19.6822661 C46.8931443,19.9307942 46.6916724,20.1322661 46.4431443,20.1322661 L45.6938329,20.1322661 L45.6938329,20.1322661 C45.4453047,20.1322661 45.2438329,19.9307942 45.2438329,19.6822661 L45.2438329,13.514237 L45.2438329,13.514237 C45.2438329,13.2657089 45.4453047,13.064237 45.6938329,13.064237 L47.5567725,13.064237 C48.0707617,13.064237 48.5091098,13.1167899 48.87183,13.2218972 C49.2345502,13.3270046 49.5305775,13.4733441 49.7599208,13.6609203 C49.9892641,13.8484965 50.1559827,14.0700271 50.2600818,14.3255188 C50.3641809,14.5810105 50.4162296,14.8591365 50.4162296,15.1599052 C50.4162296,15.3895243 50.3853257,15.6062039 50.3235169,15.8099504 C50.261708,16.013697 50.1706227,16.2020788 50.0502582,16.3751017 C49.9298936,16.5481245 49.7810667,16.7025492 49.603773,16.8383802 C49.4264792,16.9742112 49.2223505,17.085785 48.9913807,17.173105 C49.0987329,17.2280842 49.1995773,17.2968072 49.2939171,17.379276 C49.3882569,17.4617449 49.4728361,17.5595741 49.5476573,17.6727666 L50.6385799,19.446519 L50.6385799,19.446519 C50.7687794,19.658213 50.7027151,19.9353724 50.4910212,20.0655719 C50.4201196,20.109179 50.3385124,20.1322661 50.2552741,20.1322661 Z M59.0855914,16.595826 C59.0855914,17.1068094 58.9969459,17.5822108 58.8196522,18.0220446 C58.6423584,18.4618784 58.3926871,18.8443017 58.0706305,19.169326 C57.748574,19.4943502 57.3606482,19.7490296 56.9068413,19.9333717 C56.4530344,20.1177138 55.9496253,20.2098834 55.396599,20.2098834 C54.8435727,20.2098834 54.3393504,20.1177138 53.8839169,19.9333717 C53.4284835,19.7490296 53.0389311,19.4943502 52.715248,19.169326 C52.391565,18.8443017 52.1410804,18.4618784 51.9637866,18.0220446 C51.7864929,17.5822108 51.6978474,17.1068094 51.6978474,16.595826 C51.6978474,16.0848426 51.7864929,15.6094412 51.9637866,15.1696074 C52.1410804,14.7297736 52.391565,14.3481588 52.715248,14.0247516 C53.0389311,13.7013444 53.4284835,13.4474735 53.8839169,13.2631314 C54.3393504,13.0787893 54.8435727,12.9866197 55.396599,12.9866197 C55.9496253,12.9866197 56.4530344,13.0795978 56.9068413,13.265557 C57.3606482,13.4515161 57.748574,13.7061955 58.0706305,14.0296027 C58.3926871,14.3530099 58.6423584,14.7346247 58.8196522,15.1744584 C58.9969459,15.6142922 59.0855914,16.0880767 59.0855914,16.595826 Z M57.397243,16.595826 C57.397243,16.2465462 57.3517004,15.9320374 57.2606137,15.6522902 C57.169527,15.372543 57.0385919,15.1356507 56.8678043,14.9416064 C56.6970168,14.7475621 56.4880085,14.598797 56.2407732,14.4953067 C55.9935379,14.3918164 55.7121493,14.340072 55.396599,14.340072 C55.0777956,14.340072 54.7939672,14.3918164 54.5451054,14.4953067 C54.2962435,14.598797 54.086422,14.7475621 53.9156345,14.9416064 C53.7448469,15.1356507 53.6139118,15.372543 53.5228251,15.6522902 C53.4317384,15.9320374 53.3861957,16.2465462 53.3861957,16.595826 C53.3861957,16.9483399 53.4317384,17.2644657 53.5228251,17.5442129 C53.6139118,17.8239601 53.7448469,18.0608523 53.9156345,18.2548967 C54.086422,18.448941 54.2962435,18.5968976 54.5451054,18.6987708 C54.7939672,18.8006441 55.0777956,18.85158 55.396599,18.85158 C55.7121493,18.85158 55.9935379,18.8006441 56.2407732,18.6987708 C56.4880085,18.5968976 56.6970168,18.448941 56.8678043,18.2548967 C57.0385919,18.0608523 57.169527,17.8239601 57.2606137,17.5442129 C57.3517004,17.2644657 57.397243,16.9483399 57.397243,16.595826 Z M67.0815657,16.595826 C67.0815657,17.1068094 66.9929202,17.5781683 66.8156264,18.0099169 C66.6383327,18.4416656 66.3886613,18.8151953 66.0666048,19.1305173 C65.7445483,19.4458393 65.3566225,19.6916251 64.9028156,19.867882 C64.4490087,20.044139 63.9455996,20.1322661 63.3925733,20.1322661 L61.0807086,20.1322661 L61.0807086,20.1322661 C60.8321805,20.1322661 60.6307086,19.9307942 60.6307086,19.6822661 L60.6307086,13.514237 L60.6307086,13.514237 C60.6307086,13.2657089 60.8321805,13.064237 61.0807086,13.064237 L63.3925733,13.064237 C63.9455996,13.064237 64.4490087,13.1531726 64.9028156,13.3310466 C65.3566225,13.5089206 65.7445483,13.7547064 66.0666048,14.0684113 C66.3886613,14.3821163 66.6383327,14.7548375 66.8156264,15.1865862 C66.9929202,15.6183348 67.0815657,16.0880767 67.0815657,16.595826 Z M65.3932173,16.595826 C65.3932173,16.2465462 65.3476747,15.9312289 65.256588,15.6498647 C65.1655013,15.3685004 65.0345662,15.1299912 64.8637786,14.9343298 C64.6929911,14.7386684 64.4839828,14.5882863 64.2367475,14.483179 C63.9895122,14.3780717 63.7081236,14.3255188 63.3925733,14.3255188 L62.2897793,14.3255188 L62.2897793,18.8709843 L63.3925733,18.8709843 C63.7081236,18.8709843 63.9895122,18.8184314 64.2367475,18.7133241 C64.4839828,18.6082167 64.6929911,18.4578346 64.8637786,18.2621733 C65.0345662,18.0665119 65.1655013,17.8280027 65.256588,17.5466384 C65.3476747,17.2652742 65.3932173,16.9483399 65.3932173,16.595826 Z M71.5983712,18.8370267 C71.8195818,18.8370267 72.0172044,18.800644 72.191245,18.7278773 C72.3652857,18.6551107 72.512486,18.5508135 72.6328506,18.4149824 C72.7532151,18.2791514 72.8451137,18.1134077 72.9085491,17.9177463 C72.9719845,17.722085 73.0037017,17.4997459 73.0037017,17.2507223 L73.0037017,13.514237 L73.0037017,13.514237 C73.0037017,13.2657089 73.2051735,13.064237 73.4537017,13.064237 L74.2030131,13.064237 L74.2030131,13.064237 C74.4515412,13.064237 74.6530131,13.2657089 74.6530131,13.514237 L74.6530131,17.2507223 C74.6530131,17.684088 74.5822593,18.0818729 74.4407497,18.4440889 C74.29924,18.806305 74.0967378,19.1183883 73.833237,19.3803481 C73.5697362,19.6423079 73.2493111,19.8460514 72.871952,19.9915847 C72.4945928,20.1371179 72.0700702,20.2098834 71.5983712,20.2098834 C71.1234192,20.2098834 70.69727,20.1371179 70.3199109,19.9915847 C69.9425518,19.8460514 69.6221266,19.6423079 69.3586258,19.3803481 C69.0951251,19.1183883 68.8934361,18.806305 68.753553,18.4440889 C68.6136699,18.0818729 68.5437294,17.684088 68.5437294,17.2507223 L68.5437294,13.514237 L68.5437294,13.514237 C68.5437294,13.2657089 68.7452012,13.064237 68.9937294,13.064237 L69.7430408,13.064237 L69.7430408,13.064237 C69.9915689,13.064237 70.1930408,13.2657089 70.1930408,13.514237 L70.1930408,17.2458712 C70.1930408,17.4948948 70.224758,17.7172339 70.2881934,17.9128953 C70.3516288,18.1085566 70.4435273,18.2751088 70.5638919,18.4125569 C70.6842564,18.550005 70.8314568,18.6551107 71.0054975,18.7278773 C71.1795381,18.800644 71.3771607,18.8370267 71.5983712,18.8370267 Z M81.307092,18.3034075 C81.3461292,18.3034075 81.3851657,18.3106841 81.4242029,18.3252374 C81.46324,18.3397907 81.5006501,18.3648544 81.5364341,18.4004292 L81.8797031,18.7595178 L81.8797031,18.7595178 C82.0514372,18.9391664 82.0450213,19.2240184 81.8653727,19.3957525 C81.8619395,19.3990345 81.8584545,19.4022619 81.8549191,19.4054336 C81.5703092,19.6607594 81.3234519,19.8343132 81.114347,19.926095 C80.6833118,20.1152883 80.1733967,20.2098834 79.5845863,20.2098834 C79.0445724,20.2098834 78.5606816,20.1185223 78.1328995,19.9357972 C77.7051173,19.7530721 77.3424026,19.5008183 77.0447443,19.1790281 C76.747086,18.857238 76.5185594,18.4756232 76.3591577,18.0341724 C76.199756,17.5927215 76.1200564,17.1132775 76.1200564,16.595826 C76.1200564,16.0686723 76.2062621,15.5843772 76.3786762,15.1429264 C76.5510903,14.7014756 76.7934423,14.3206693 77.1057395,14.0004962 C77.4180368,13.680323 77.7921372,13.4313032 78.228052,13.2534293 C78.6639669,13.0755553 79.1437914,12.9866197 79.6675398,12.9866197 C79.9342937,12.9866197 80.1855916,13.0100663 80.4214411,13.0569604 C80.6572905,13.1038544 80.8776845,13.1685349 81.0826295,13.2510037 C81.2875746,13.3334726 81.4762513,13.4329188 81.6486654,13.5493454 C81.6858285,13.5744406 81.7269589,13.6046069 81.7720567,13.6398443 L81.7720567,13.6398443 C81.9651155,13.7906916 82.0020204,14.0682661 81.8550835,14.2643176 L81.551073,14.6699457 C81.5152889,14.7152227 81.4729993,14.7564565 81.4242029,14.7936484 C81.3754064,14.8308402 81.3070924,14.8494358 81.2192589,14.8494358 C81.1607031,14.8494358 81.1054013,14.8364997 81.0533518,14.8106272 C81.0013023,14.7847546 80.9460005,14.7532229 80.8874447,14.716031 C80.828889,14.6788392 80.7646413,14.6384139 80.6946998,14.5947539 C80.6247582,14.551094 80.5418055,14.5106687 80.4458392,14.4734768 C80.3498728,14.436285 80.2376427,14.4047533 80.1091454,14.3788807 C79.9806481,14.3530081 79.8301947,14.340072 79.6577806,14.340072 C79.3845205,14.340072 79.1348492,14.3901994 78.908759,14.4904556 C78.6826688,14.5907119 78.487486,14.7370514 78.3232046,14.9294787 C78.1589233,15.121906 78.0320544,15.3579897 77.9425943,15.637737 C77.8531342,15.9174842 77.8084048,16.236844 77.8084048,16.595826 C77.8084048,16.9580421 77.8580137,17.2798274 77.9572332,17.5611917 C78.0564526,17.8425559 78.191454,18.0794482 78.3622416,18.2718755 C78.5330291,18.4643027 78.7322783,18.6106423 78.959995,18.7108985 C79.1877117,18.8111548 79.4316902,18.8612821 79.6919379,18.8612821 C79.8415803,18.8612821 79.9782083,18.8540056 80.101826,18.8394523 C80.2254436,18.8248989 80.3409268,18.8006438 80.448279,18.766686 C80.5556311,18.7327282 80.6564756,18.6874519 80.7508154,18.6308557 C80.8451552,18.5742594 80.9411201,18.5023024 81.0387129,18.4149824 C81.0777501,18.3826417 81.1200397,18.355961 81.165583,18.3349395 C81.2111264,18.3139181 81.2582956,18.3034075 81.307092,18.3034075 Z M88.1455215,14.3643275 L86.5948774,14.3643275 L86.5948774,19.6822661 L86.5948774,19.6822661 C86.5948774,19.9307942 86.3934056,20.1322661 86.1448774,20.1322661 L85.395566,20.1322661 L85.395566,20.1322661 C85.1470379,20.1322661 84.945566,19.9307942 84.945566,19.6822661 L84.945566,14.3643275 L83.394922,14.3643275 L83.394922,14.3643275 C83.1463938,14.3643275 82.944922,14.1628556 82.944922,13.9143275 L82.944922,13.514237 L82.944922,13.514237 C82.944922,13.2657089 83.1463938,13.064237 83.394922,13.064237 L88.1455215,13.064237 L88.1455215,13.064237 C88.3940496,13.064237 88.5955215,13.2657089 88.5955215,13.514237 L88.5955215,13.9143275 L88.5955215,13.9143275 C88.5955215,14.1628556 88.3940496,14.3643275 88.1455215,14.3643275 Z M46.4557007,26.0699833 L46.4557007,32.2380124 L46.4557007,32.2380124 C46.4557007,32.4865406 46.2542289,32.6880124 46.0057007,32.6880124 L45.4515741,32.6880124 L45.4515741,32.6880124 C45.203046,32.6880124 45.0015741,32.4865406 45.0015741,32.2380124 L45.0015741,28.6228042 C45.0015741,28.5290161 45.0040139,28.4271444 45.0088935,28.3171859 C45.0137732,28.2072275 45.0227191,28.0956536 45.0357314,27.9824611 L43.1473187,31.6159229 C43.0887629,31.7291154 43.0098765,31.814817 42.9106571,31.8730303 C42.8114377,31.9312436 42.6983943,31.9603498 42.5715235,31.9603498 L42.347061,31.9603498 C42.2201903,31.9603498 42.1071469,31.9312436 42.0079275,31.8730303 C41.9087081,31.814817 41.8298217,31.7291154 41.7712659,31.6159229 L39.8828531,27.972759 C39.8926124,28.0891856 39.9007451,28.2031849 39.9072512,28.3147604 C39.9137574,28.4263359 39.9170105,28.5290161 39.9170105,28.6228042 L39.9170105,32.2380124 L39.9170105,32.2380124 C39.9170105,32.4865406 39.7155386,32.6880124 39.4670105,32.6880124 L38.9128838,32.6880124 L38.9128838,32.6880124 C38.6643557,32.6880124 38.4628838,32.4865406 38.4628838,32.2380124 L38.4628838,26.0699833 L38.4628838,26.0699833 C38.4628838,25.8214552 38.6643557,25.6199833 38.9128838,25.6199833 L39.7218257,25.6199833 C39.7933938,25.6199833 39.856015,25.6216003 39.9096911,25.6248344 C39.9633671,25.6280685 40.0113496,25.6377705 40.0536398,25.6539409 C40.0959301,25.6701113 40.1341534,25.6951749 40.1683109,25.7291327 C40.2024684,25.7630905 40.2358121,25.8107923 40.2683431,25.8722397 L42.0982004,29.4571906 C42.1632624,29.5800853 42.2258835,29.7078293 42.2860658,29.8404262 C42.3462481,29.9730232 42.4039897,30.1088522 42.4592923,30.2479173 C42.5145949,30.1056181 42.5723365,29.9665551 42.6325188,29.8307241 C42.6927011,29.694893 42.7569487,29.5655321 42.8252638,29.4426374 L44.6502415,25.8722397 C44.6827724,25.8107923 44.7161162,25.7630905 44.7502737,25.7291327 C44.7844312,25.6951749 44.8226545,25.6701113 44.8649447,25.6539409 C44.907235,25.6377705 44.9552174,25.6280685 45.0088935,25.6248344 C45.0625696,25.6216003 45.1251908,25.6199833 45.1967589,25.6199833 L46.0057007,25.6199833 L46.0057007,25.6199833 C46.2542289,25.6199833 46.4557007,25.8214552 46.4557007,26.0699833 Z M52.1631334,29.9859587 L51.5043848,28.0503763 C51.4555884,27.9274816 51.4035396,27.782759 51.348237,27.6162043 C51.2929343,27.4496496 51.2376325,27.2693528 51.1823299,27.0753085 C51.1335335,27.2725868 51.0814847,27.4553092 51.0261821,27.6234809 C50.9708794,27.7916527 50.9188307,27.9371837 50.8700342,28.0600785 L50.2161652,29.9859587 L52.1631334,29.9859587 Z M54.1253616,32.6880124 L53.5050288,32.6880124 C53.3618926,32.6880124 53.2464094,32.6548637 53.1585758,32.5885652 C53.0707422,32.5222667 53.0040548,32.4373736 52.9585114,32.3338833 L52.5388641,31.101708 L49.8355549,31.101708 L49.4159076,32.3338833 C49.3801236,32.4244373 49.3158759,32.5060964 49.2231626,32.578863 C49.1304494,32.6516297 49.0157795,32.6880124 48.8791495,32.6880124 L48.2490574,32.6880124 L48.2490574,32.6880124 C48.0005293,32.6880124 47.7990574,32.4865406 47.7990574,32.2380124 C47.7990574,32.182155 47.8094568,32.1267858 47.8297241,32.074735 L50.2313931,25.9067059 L50.2313931,25.9067059 C50.2987058,25.7338316 50.4652095,25.6199833 50.6507264,25.6199833 L51.7236926,25.6199833 L51.7236926,25.6199833 C51.9092095,25.6199833 52.0757132,25.7338316 52.143026,25.9067059 L54.544695,32.074735 L54.544695,32.074735 C54.6348706,32.3063264 54.5202305,32.5671702 54.288639,32.6573458 C54.2365882,32.677613 54.181219,32.6880124 54.1253616,32.6880124 Z M62.1255944,26.0699833 L62.1255944,32.2380124 L62.1255944,32.2380124 C62.1255944,32.4865406 61.9241226,32.6880124 61.6755944,32.6880124 L61.2667814,32.6880124 C61.1399106,32.6880124 61.0333733,32.6677998 60.9471663,32.6273739 C60.8609593,32.586948 60.7755668,32.516608 60.6909863,32.4163517 L57.3386876,28.2007599 C57.3517,28.3268887 57.3606459,28.4489731 57.3655255,28.5670167 C57.3704052,28.6850604 57.3728449,28.7958257 57.3728449,28.899316 L57.3728449,32.2380124 L57.3728449,32.2380124 C57.3728449,32.4865406 57.1713731,32.6880124 56.9228449,32.6880124 L56.3687183,32.6880124 L56.3687183,32.6880124 C56.1201902,32.6880124 55.9187183,32.4865406 55.9187183,32.2380124 L55.9187183,26.0699833 L55.9187183,26.0699833 C55.9187183,25.8214552 56.1201902,25.6199833 56.3687183,25.6199833 L56.7872906,25.6199833 C56.8588587,25.6199833 56.9190401,25.6232173 56.9678365,25.6296855 C57.016633,25.6361536 57.0605491,25.6482812 57.0995862,25.6660686 C57.1386234,25.683856 57.1760334,25.7089197 57.2118175,25.7412604 C57.2476016,25.7736011 57.2882646,25.8172604 57.333808,25.8722397 L60.7153844,30.116938 C60.6991189,29.981107 60.6877332,29.8493205 60.681227,29.7215747 C60.6747208,29.5938288 60.6714678,29.4733614 60.6714678,29.3601689 L60.6714678,26.0699833 L60.6714678,26.0699833 C60.6714678,25.8214552 60.8729397,25.6199833 61.1214678,25.6199833 L61.6755944,25.6199833 L61.6755944,25.6199833 C61.9241226,25.6199833 62.1255944,25.8214552 62.1255944,26.0699833 Z M67.8330271,29.9859587 L67.1742785,28.0503763 C67.125482,27.9274816 67.0734333,27.782759 67.0181307,27.6162043 C66.962828,27.4496496 66.9075262,27.2693528 66.8522236,27.0753085 C66.8034272,27.2725868 66.7513784,27.4553092 66.6960758,27.6234809 C66.6407731,27.7916527 66.5887244,27.9371837 66.5399279,28.0600785 L65.8860589,29.9859587 L67.8330271,29.9859587 Z M69.7952553,32.6880124 L69.1749225,32.6880124 C69.0317863,32.6880124 68.9163031,32.6548637 68.8284695,32.5885652 C68.7406359,32.5222667 68.6739485,32.4373736 68.6284051,32.3338833 L68.2087578,31.101708 L65.5054486,31.101708 L65.0858013,32.3338833 C65.0500172,32.4244373 64.9857696,32.5060964 64.8930563,32.578863 C64.8003431,32.6516297 64.6856732,32.6880124 64.5490431,32.6880124 L63.9189511,32.6880124 L63.9189511,32.6880124 C63.670423,32.6880124 63.4689511,32.4865406 63.4689511,32.2380124 C63.4689511,32.182155 63.4793505,32.1267858 63.4996178,32.074735 L65.9012868,25.9067059 L65.9012868,25.9067059 C65.9685995,25.7338316 66.1351032,25.6199833 66.3206201,25.6199833 L67.3935863,25.6199833 L67.3935863,25.6199833 C67.5791032,25.6199833 67.7456069,25.7338316 67.8129197,25.9067059 L70.2145887,32.074735 L70.2145887,32.074735 C70.3047643,32.3063264 70.1901242,32.5671702 69.9585327,32.6573458 C69.9064819,32.677613 69.8511127,32.6880124 69.7952553,32.6880124 Z M75.220124,29.0254441 L76.8477669,29.0254441 L76.8477669,29.0254441 C77.0962951,29.0254441 77.2977669,29.226916 77.2977669,29.4754441 L77.2977669,31.7528795 L77.2977669,31.7528795 C77.2977669,31.9133961 77.2122648,32.0617596 77.0733798,32.1422365 C76.6790564,32.3707271 76.3659224,32.5186949 76.1339777,32.5861397 C75.722461,32.7058003 75.2922455,32.7656298 74.8433183,32.7656298 C74.257761,32.7656298 73.7250745,32.6742686 73.2452429,32.4915435 C72.7654112,32.3088185 72.354714,32.0565646 72.0131389,31.7347744 C71.6715638,31.4129843 71.408067,31.0313695 71.2226405,30.5899187 C71.0372141,30.1484678 70.9445022,29.6690238 70.9445022,29.1515723 C70.9445022,28.6244186 71.0323345,28.1401236 71.2080017,27.6986727 C71.3836689,27.2572219 71.6349668,26.8764156 71.9619029,26.5562425 C72.288839,26.2360694 72.6840843,25.9870495 73.1476505,25.8091756 C73.6112166,25.6313016 74.1292644,25.542366 74.7018093,25.542366 C74.997841,25.542366 75.2759766,25.5666211 75.5362243,25.6151322 C75.7964719,25.6636433 76.0363842,25.7299408 76.2559681,25.8140267 C76.4755521,25.8981125 76.6764278,25.9983673 76.8586012,26.1147939 C76.9050748,26.144495 76.957582,26.1812995 77.0161228,26.2252074 L77.0161228,26.2252074 C77.2066903,26.3681402 77.252852,26.6348243 77.1214143,26.8334946 L76.8683604,27.2159899 C76.7935392,27.3291824 76.696761,27.3987139 76.578023,27.4245865 C76.459285,27.4504591 76.3316029,27.4213529 76.1949729,27.337267 C76.0648491,27.2596493 75.9420465,27.1925433 75.8265616,27.135947 C75.7110767,27.0793507 75.5931537,27.0332659 75.4727892,26.9976911 C75.3524246,26.9621163 75.2255558,26.9362441 75.0921789,26.9200738 C74.9588019,26.9039034 74.8091618,26.8958184 74.6432539,26.8958184 C74.3342097,26.8958184 74.0560742,26.9499882 73.8088389,27.0583297 C73.5616036,27.1666711 73.3509688,27.3194787 73.1769282,27.5167571 C73.0028875,27.7140355 72.8686993,27.9509277 72.7743596,28.2274409 C72.6800198,28.503954 72.6328506,28.8119948 72.6328506,29.1515723 C72.6328506,29.5267247 72.6848993,29.8598291 72.7889984,30.1508956 C72.8930975,30.4419621 73.0402979,30.6877479 73.230604,30.8882603 C73.4209101,31.0887728 73.6486234,31.2415804 73.9137507,31.3466877 C74.1788781,31.4517951 74.4724656,31.504348 74.7945221,31.504348 C74.9929609,31.504348 75.1726918,31.4849438 75.33372,31.446135 C75.4947483,31.4073261 75.6517078,31.3555817 75.8046033,31.2909003 L75.8046033,30.2188108 L75.1019381,30.2188108 C74.997839,30.2188108 74.9165129,30.1913216 74.8579571,30.1363423 C74.7994014,30.0813631 74.770124,30.0118316 74.770124,29.9277457 L74.770124,29.4754441 L74.770124,29.4754441 C74.770124,29.226916 74.9715958,29.0254441 75.220124,29.0254441 Z M80.6385841,26.8812651 L80.6385841,28.5306336 L82.4234499,28.5306336 L82.4234499,28.5306336 C82.671978,28.5306336 82.8734499,28.7321055 82.8734499,28.9806336 L82.8734499,29.2934045 L82.8734499,29.2934045 C82.8734499,29.5419327 82.671978,29.7434045 82.4234499,29.7434045 L80.6385841,29.7434045 L80.6385841,31.4267306 L83.1065966,31.4267306 L83.1065966,31.4267306 C83.3551248,31.4267306 83.5565966,31.6282025 83.5565966,31.8767306 L83.5565966,32.2380124 L83.5565966,32.2380124 C83.5565966,32.4865406 83.3551248,32.6880124 83.1065966,32.6880124 L79.4295135,32.6880124 L79.4295135,32.6880124 C79.1809853,32.6880124 78.9795135,32.4865406 78.9795135,32.2380124 L78.9795135,26.0699833 L78.9795135,26.0699833 C78.9795135,25.8214552 79.1809853,25.6199833 79.4295135,25.6199833 L83.1065966,25.6199833 L83.1065966,25.6199833 C83.3551248,25.6199833 83.5565966,25.8214552 83.5565966,26.0699833 L83.5565966,26.4312651 L83.5565966,26.4312651 C83.5565966,26.6797932 83.3551248,26.8812651 83.1065966,26.8812651 L80.6385841,26.8812651 Z M93.1384473,26.0699833 L93.1384473,32.2380124 L93.1384473,32.2380124 C93.1384473,32.4865406 92.9369754,32.6880124 92.6884473,32.6880124 L92.1343207,32.6880124 L92.1343207,32.6880124 C91.8857925,32.6880124 91.6843207,32.4865406 91.6843207,32.2380124 L91.6843207,28.6228042 C91.6843207,28.5290161 91.6867604,28.4271444 91.6916401,28.3171859 C91.6965197,28.2072275 91.7054656,28.0956536 91.718478,27.9824611 L89.8300652,31.6159229 C89.7715095,31.7291154 89.6926231,31.814817 89.5934037,31.8730303 C89.4941842,31.9312436 89.3811409,31.9603498 89.2542701,31.9603498 L89.0298076,31.9603498 C88.9029369,31.9603498 88.7898935,31.9312436 88.690674,31.8730303 C88.5914546,31.814817 88.5125682,31.7291154 88.4540125,31.6159229 L86.5655997,27.972759 C86.575359,28.0891856 86.5834916,28.2031849 86.5899978,28.3147604 C86.596504,28.4263359 86.599757,28.5290161 86.599757,28.6228042 L86.599757,32.2380124 L86.599757,32.2380124 C86.599757,32.4865406 86.3982852,32.6880124 86.149757,32.6880124 L85.5956304,32.6880124 L85.5956304,32.6880124 C85.3471023,32.6880124 85.1456304,32.4865406 85.1456304,32.2380124 L85.1456304,26.0699833 L85.1456304,26.0699833 C85.1456304,25.8214552 85.3471023,25.6199833 85.5956304,25.6199833 L86.4045723,25.6199833 C86.4761404,25.6199833 86.5387615,25.6216003 86.5924376,25.6248344 C86.6461137,25.6280685 86.6940962,25.6377705 86.7363864,25.6539409 C86.7786766,25.6701113 86.8169,25.6951749 86.8510575,25.7291327 C86.885215,25.7630905 86.9185587,25.8107923 86.9510897,25.8722397 L88.780947,29.4571906 C88.8460089,29.5800853 88.9086301,29.7078293 88.9688124,29.8404262 C89.0289946,29.9730232 89.0867362,30.1088522 89.1420389,30.2479173 C89.1973415,30.1056181 89.2550831,29.9665551 89.3152654,29.8307241 C89.3754476,29.694893 89.4396953,29.5655321 89.5080103,29.4426374 L91.3329881,25.8722397 C91.365519,25.8107923 91.3988627,25.7630905 91.4330203,25.7291327 C91.4671778,25.6951749 91.5054011,25.6701113 91.5476913,25.6539409 C91.5899816,25.6377705 91.637964,25.6280685 91.6916401,25.6248344 C91.7453162,25.6216003 91.8079373,25.6199833 91.8795054,25.6199833 L92.6884473,25.6199833 L92.6884473,25.6199833 C92.9369754,25.6199833 93.1384473,25.8214552 93.1384473,26.0699833 Z M96.7476436,26.8812651 L96.7476436,28.5306336 L98.5325094,28.5306336 L98.5325094,28.5306336 C98.7810375,28.5306336 98.9825094,28.7321055 98.9825094,28.9806336 L98.9825094,29.2934045 L98.9825094,29.2934045 C98.9825094,29.5419327 98.7810375,29.7434045 98.5325094,29.7434045 L96.7476436,29.7434045 L96.7476436,31.4267306 L99.2156561,31.4267306 L99.2156561,31.4267306 C99.4641842,31.4267306 99.6656561,31.6282025 99.6656561,31.8767306 L99.6656561,32.2380124 L99.6656561,32.2380124 C99.6656561,32.4865406 99.4641842,32.6880124 99.2156561,32.6880124 L95.5385729,32.6880124 L95.5385729,32.6880124 C95.2900448,32.6880124 95.0885729,32.4865406 95.0885729,32.2380124 L95.0885729,26.0699833 L95.0885729,26.0699833 C95.0885729,25.8214552 95.2900448,25.6199833 95.5385729,25.6199833 L99.2156561,25.6199833 L99.2156561,25.6199833 C99.4641842,25.6199833 99.6656561,25.8214552 99.6656561,26.0699833 L99.6656561,26.4312651 L99.6656561,26.4312651 C99.6656561,26.6797932 99.4641842,26.8812651 99.2156561,26.8812651 L96.7476436,26.8812651 Z M107.461566,26.0699833 L107.461566,32.2380124 L107.461566,32.2380124 C107.461566,32.4865406 107.260094,32.6880124 107.011566,32.6880124 L106.602753,32.6880124 C106.475882,32.6880124 106.369345,32.6677998 106.283138,32.6273739 C106.196931,32.586948 106.111538,32.516608 106.026958,32.4163517 L102.674659,28.2007599 C102.687672,28.3268887 102.696617,28.4489731 102.701497,28.5670167 C102.706377,28.6850604 102.708817,28.7958257 102.708817,28.899316 L102.708817,32.2380124 L102.708817,32.2380124 C102.708817,32.4865406 102.507345,32.6880124 102.258817,32.6880124 L101.70469,32.6880124 L101.70469,32.6880124 C101.456162,32.6880124 101.25469,32.4865406 101.25469,32.2380124 L101.25469,26.0699833 L101.25469,26.0699833 C101.25469,25.8214552 101.456162,25.6199833 101.70469,25.6199833 L102.123262,25.6199833 C102.19483,25.6199833 102.255012,25.6232173 102.303808,25.6296855 C102.352605,25.6361536 102.396521,25.6482812 102.435558,25.6660686 C102.474595,25.683856 102.512005,25.7089197 102.547789,25.7412604 C102.583573,25.7736011 102.624236,25.8172604 102.66978,25.8722397 L106.051356,30.116938 C106.03509,29.981107 106.023705,29.8493205 106.017199,29.7215747 C106.010692,29.5938288 106.007439,29.4733614 106.007439,29.3601689 L106.007439,26.0699833 L106.007439,26.0699833 C106.007439,25.8214552 106.208911,25.6199833 106.457439,25.6199833 L107.011566,25.6199833 L107.011566,25.6199833 C107.260094,25.6199833 107.461566,25.8214552 107.461566,26.0699833 Z M114.070653,26.9200738 L112.520009,26.9200738 L112.520009,32.2380124 L112.520009,32.2380124 C112.520009,32.4865406 112.318537,32.6880124 112.070009,32.6880124 L111.320698,32.6880124 L111.320698,32.6880124 C111.07217,32.6880124 110.870698,32.4865406 110.870698,32.2380124 L110.870698,26.9200738 L109.320054,26.9200738 L109.320054,26.9200738 C109.071526,26.9200738 108.870054,26.7186019 108.870054,26.4700738 L108.870054,26.0699833 L108.870054,26.0699833 C108.870054,25.8214552 109.071526,25.6199833 109.320054,25.6199833 L114.070653,25.6199833 L114.070653,25.6199833 C114.319181,25.6199833 114.520653,25.8214552 114.520653,26.0699833 L114.520653,26.4700738 L114.520653,26.4700738 C114.520653,26.7186019 114.319181,26.9200738 114.070653,26.9200738 Z" id="PRODUCT-MANAGEMENT"></path>
                <path d="M78.1382827,1.375676 L77.4790022,1.375676 L77.4790022,3.24456482 L77.0109753,3.24456482 L77.0109753,1.375676 L76.3516948,1.375676 L76.3516948,1.00158907 L78.1382827,1.00158907 L78.1382827,1.375676 Z M80.9075716,1.00158907 L80.9075716,3.24456482 L80.4955213,3.24456482 L80.4955213,1.86724477 C80.4955213,1.83838944 80.4962988,1.80747347 80.4978537,1.77449595 C80.4994086,1.74151842 80.5022592,1.70802613 80.5064057,1.67401805 L79.8611194,2.89057347 C79.8258746,2.95755907 79.7714534,2.99105136 79.6978542,2.99105136 L79.6325481,2.99105136 C79.5962667,2.99105136 79.5641323,2.98254947 79.5361439,2.96554544 C79.5081554,2.9485414 79.4858686,2.923551 79.4692829,2.89057347 L78.8208867,1.66938061 C78.8239966,1.70544978 78.8265881,1.74023024 78.8286613,1.77372304 C78.8307345,1.80721584 78.8317711,1.83838944 78.8317711,1.86724477 L78.8317711,3.24456482 L78.4197208,3.24456482 L78.4197208,1.00158907 L78.7742395,1.00158907 C78.7939351,1.00158907 78.8115572,1.00210434 78.8271064,1.00313489 C78.8426555,1.00416544 78.8563904,1.0069994 78.8683114,1.01163686 C78.8802324,1.01627433 78.8911166,1.02348805 78.9009644,1.03327826 C78.9108122,1.04306846 78.9204007,1.05672301 78.9297302,1.07424232 L79.5610224,2.27070216 C79.5807179,2.30677133 79.5991175,2.34387049 79.6162216,2.38200075 C79.6333256,2.42013101 79.649652,2.45929124 79.6652011,2.49948259 C79.6807503,2.45826069 79.6970766,2.41806993 79.7141807,2.37890912 C79.7312847,2.33974831 79.7496843,2.30213389 79.7693799,2.26606472 L80.3960073,1.07424232 C80.4053368,1.05672301 80.4151844,1.04306846 80.4255505,1.03327826 C80.4359166,1.02348805 80.44706,1.01627433 80.458981,1.01163686 C80.470902,1.0069994 80.4843778,1.00416544 80.4994086,1.00313489 C80.5144394,1.00210434 80.5323207,1.00158907 80.5530529,1.00158907 L80.9075716,1.00158907 Z" id="TM"></path>
            </g>
        </g>
    </g>
</svg>