<?xml version="1.0" encoding="UTF-8"?>
<svg width="33px" height="33px" viewBox="0 0 33 33" version="1.1" xmlns="http://www.w3.org/2000/svg" xmlns:xlink="http://www.w3.org/1999/xlink">
    <!-- Generator: Sketch 45.2 (43514) - http://www.bohemiancoding.com/sketch -->
    <title>Page 1</title>
    <desc>Created with Sketch.</desc>
    <defs></defs>
    <g id="Desktop" stroke="none" stroke-width="1" fill="none" fill-rule="evenodd">
        <g id="Partnership" transform="translate(-741.000000, -1258.000000)" fill="#FE3939">
            <path d="M772.509977,1264.51543 L767.643455,1259.64615 C766.57385,1258.5752 764.707141,1258.5752 763.636361,1259.64615 L744.644014,1278.63712 C744.644014,1278.63712 744.642667,1278.63981 744.642667,1278.63981 L744.641317,1278.64251 L744.351328,1278.93115 C744.190824,1279.09031 744.078874,1279.29533 744.027619,1279.51518 L741.87898,1288.82455 C741.785914,1289.23189 741.907305,1289.65811 742.20404,1289.95348 C742.434684,1290.18412 742.743556,1290.30819 743.061879,1290.30819 C743.152249,1290.30819 743.243965,1290.2947 743.335684,1290.27852 L752.642294,1288.12988 C752.863494,1288.07863 753.067174,1287.96668 753.226318,1287.80482 L772.510091,1268.52243 C773.045567,1267.98695 773.342309,1267.27479 773.342309,1266.51812 C773.342309,1265.76145 773.045574,1265.05064 772.510091,1264.51516 L772.509977,1264.51543 Z M752.658547,1284.94419 L747.2147,1279.49792 L759.576438,1267.13481 L765.021666,1272.58003 L752.658547,1284.94419 Z M746.007565,1281.72194 L750.435568,1286.14994 L744.678888,1287.47986 L746.007565,1281.72194 Z M770.79561,1266.80712 L766.737072,1270.86567 L761.293225,1265.42044 L765.351767,1261.36052 C765.56083,1261.15145 765.721331,1261.15145 765.929058,1261.36052 L770.796957,1266.2298 C770.900814,1266.33366 770.918347,1266.45505 770.918347,1266.51844 C770.915651,1266.58183 770.898117,1266.70188 770.795607,1266.80708 L770.79561,1266.80712 Z" id="Page-1"></path>
        </g>
    </g>
</svg>