<?xml version="1.0" encoding="UTF-8"?>
<svg width="44px" height="26px" viewBox="0 0 44 26" version="1.1" xmlns="http://www.w3.org/2000/svg" xmlns:xlink="http://www.w3.org/1999/xlink">
    <!-- Generator: Sketch 45.2 (43514) - http://www.bohemiancoding.com/sketch -->
    <title>Group 3</title>
    <desc>Created with Sketch.</desc>
    <defs></defs>
    <g id="Desktop" stroke="none" stroke-width="1" fill="none" fill-rule="evenodd">
        <g id="Partnership" transform="translate(-915.000000, -1262.000000)" fill="#FE3939">
            <g id="Group-3" transform="translate(915.000000, 1262.000000)">
                <path d="M32.6513982,0.463264227 C32.0964248,-0.126149465 31.1664002,-0.152947231 30.5731261,0.402026186 C29.9837124,0.956999604 29.9569146,1.89084543 30.5118881,2.48029832 L40.3824804,12.9407355 L30.5118881,23.3972534 C29.9569146,23.9866671 29.9837124,24.9167406 30.5731261,25.4755255 C30.8563496,25.7434444 31.2199566,25.8774038 31.5796835,25.8774038 C31.9700785,25.8774038 32.3604734,25.7243087 32.647479,25.4142875 L43.4714252,13.9515061 C44.0072629,13.3850591 44.0072629,12.5008994 43.4714252,11.934472 L32.6513982,0.463264227 Z" id="Path"></path>
                <path d="M13.3040966,0.402026186 C12.7146829,-0.156768485 11.7807881,-0.129980517 11.2258245,0.463264227 L0.401878316,11.9260456 C-0.133959439,12.4924926 -0.133959439,13.3766523 0.401878316,13.9430797 L11.2258245,25.4097804 C11.5167101,25.7159706 11.903274,25.8728967 12.2936199,25.8728967 C12.6533959,25.8728967 13.0169931,25.7389373 13.3001774,25.4710184 C13.8895911,24.916045 13.9163888,23.9821992 13.3614154,23.3927463 L3.4947423,12.9323091 L13.3653346,2.4757912 C13.9203081,1.89019876 13.8935103,0.960125194 13.3040966,0.40134032 L13.3040966,0.402026186 Z" id="Path"></path>
                <path d="M26.8107589,0.248931085 C26.0529357,-0.0419545074 25.2032848,0.336966892 24.9123796,1.0947803 L16.2242203,23.7264005 C15.9333347,24.4842237 16.3122463,25.3338746 17.0700695,25.6247798 C17.2423003,25.6898489 17.4221932,25.7242891 17.5944239,25.7242891 C18.1838376,25.7242891 18.7426617,25.3645132 18.9684096,24.7789306 L27.6565689,2.14731035 C27.9474447,1.38948714 27.5647118,0.539836273 26.8107197,0.248931085 L26.8107589,0.248931085 Z" id="Path"></path>
            </g>
        </g>
    </g>
</svg>