<?xml version="1.0" encoding="UTF-8"?>
<svg width="32px" height="28px" viewBox="0 0 32 28" version="1.1" xmlns="http://www.w3.org/2000/svg" xmlns:xlink="http://www.w3.org/1999/xlink">
    <!-- Generator: Sketch 45.2 (43514) - http://www.bohemiancoding.com/sketch -->
    <title>Page 1</title>
    <desc>Created with Sketch.</desc>
    <defs></defs>
    <g id="Desktop" stroke="none" stroke-width="1" fill="none" fill-rule="evenodd">
        <g id="Partnership" transform="translate(-1107.000000, -1261.000000)" fill="#FE3939">
            <path d="M1108.04849,1261 C1107.46965,1261 1107,1261.46965 1107,1262.04849 C1107,1262.62733 1107.46965,1263.09698 1108.04849,1263.09698 L1111.53255,1263.09698 C1113.26773,1267.39474 1114.97702,1271.70054 1116.69846,1276.00669 L1115.11482,1279.8183 C1114.98239,1280.13639 1115.01926,1280.51865 1115.21039,1280.80534 C1115.40152,1281.09204 1115.74145,1281.27224 1116.08686,1281.27087 L1133.56169,1281.27087 C1134.11595,1281.27907 1134.62521,1280.77665 1134.62521,1280.22238 C1134.62521,1279.66812 1134.11599,1279.16572 1133.56169,1279.17389 L1117.65959,1279.17389 L1118.56612,1277.01138 L1135.39647,1275.66799 C1135.83743,1275.63386 1136.23607,1275.28983 1136.33575,1274.85978 L1138.43273,1265.77287 C1138.56925,1265.16125 1138.03273,1264.49364 1137.40608,1264.49504 L1114.35014,1264.49504 L1113.21427,1261.65538 C1113.05864,1261.27037 1112.65725,1261.00007 1112.24225,1261.00007 L1108.04849,1261 Z M1115.1915,1266.59195 L1121.67886,1266.59195 L1121.67886,1269.73742 L1116.44724,1269.73742 L1115.1915,1266.59195 Z M1123.77584,1266.59195 L1127.9698,1266.59195 L1127.9698,1269.73742 L1123.77584,1269.73742 L1123.77584,1266.59195 Z M1130.06678,1266.59195 L1136.08476,1266.59195 L1135.36392,1269.73742 L1130.06695,1269.73742 L1130.06678,1266.59195 Z M1117.28848,1271.8344 L1121.67886,1271.8344 L1121.67886,1274.66315 L1118.52248,1274.91435 L1117.28848,1271.8344 Z M1123.77584,1271.8344 L1127.9698,1271.8344 L1127.9698,1274.16071 L1123.77584,1274.49929 L1123.77584,1271.8344 Z M1130.06678,1271.8344 L1134.87236,1271.8344 L1134.45733,1273.64741 L1130.06695,1273.99691 L1130.06678,1271.8344 Z M1119.58188,1281.9698 C1117.66374,1281.9698 1116.08691,1283.54662 1116.08691,1285.46476 C1116.08691,1287.38291 1117.66374,1288.95973 1119.58188,1288.95973 C1121.50002,1288.95973 1123.07684,1287.38291 1123.07684,1285.46476 C1123.07684,1283.54662 1121.50002,1281.9698 1119.58188,1281.9698 Z M1130.06678,1281.9698 C1128.14863,1281.9698 1126.57181,1283.54662 1126.57181,1285.46476 C1126.57181,1287.38291 1128.14863,1288.95973 1130.06678,1288.95973 C1131.98492,1288.95973 1133.56174,1287.38291 1133.56174,1285.46476 C1133.56174,1283.54662 1131.98492,1281.9698 1130.06678,1281.9698 Z M1119.58188,1284.06678 C1120.36688,1284.06678 1120.97986,1284.67976 1120.97986,1285.46476 C1120.97986,1286.24977 1120.36688,1286.86275 1119.58188,1286.86275 C1118.79687,1286.86275 1118.18389,1286.24977 1118.18389,1285.46476 C1118.18389,1284.67976 1118.79687,1284.06678 1119.58188,1284.06678 Z M1130.06678,1284.06678 C1130.85178,1284.06678 1131.46476,1284.67976 1131.46476,1285.46476 C1131.46476,1286.24977 1130.85178,1286.86275 1130.06678,1286.86275 C1129.28177,1286.86275 1128.66879,1286.24977 1128.66879,1285.46476 C1128.66879,1284.67976 1129.28177,1284.06678 1130.06678,1284.06678 Z" id="Page-1"></path>
        </g>
    </g>
</svg>