<?xml version="1.0" encoding="UTF-8"?>
<svg width="39px" height="32px" viewBox="0 0 39 32" version="1.1" xmlns="http://www.w3.org/2000/svg" xmlns:xlink="http://www.w3.org/1999/xlink">
    <!-- Generator: Sketch 45.2 (43514) - http://www.bohemiancoding.com/sketch -->
    <title>Page 1</title>
    <desc>Created with Sketch.</desc>
    <defs></defs>
    <g id="Desktop" stroke="none" stroke-width="1" fill="none" fill-rule="evenodd">
        <g id="Partnership" transform="translate(-234.000000, -1259.000000)" stroke="#FE3939" stroke-width="0.2" fill="#FE3939">
            <path d="M242.025835,1259.47613 C241.59113,1259.52365 241.265058,1259.89395 241.274965,1260.32813 L241.274965,1262.84485 L237.480989,1262.84485 C236.094459,1262.84485 234.951671,1263.98195 234.951671,1265.36158 L234.951671,1288.01211 C234.951671,1289.39174 236.094459,1290.52883 237.480989,1290.52883 L269.519011,1290.52883 C270.905541,1290.52883 272.048329,1289.39174 272.048329,1288.01211 L272.048329,1265.36158 C272.048329,1263.98195 270.905541,1262.84485 269.519011,1262.84485 L265.725035,1262.84485 L265.725035,1260.32813 C265.729976,1260.08727 265.631172,1259.85461 265.451683,1259.69077 C265.272194,1259.52856 265.031779,1259.44991 264.789719,1259.47612 C264.355013,1259.52364 264.028942,1259.89394 264.038849,1260.32812 L264.038849,1262.84485 L245.49052,1262.84485 C245.264921,1262.84157 245.047552,1262.92841 244.886181,1263.0857 C244.726451,1263.24464 244.635884,1263.45928 244.635884,1263.68376 C244.635884,1263.90825 244.726451,1264.12289 244.886181,1264.28182 C245.047556,1264.43912 245.264921,1264.52595 245.49052,1264.52268 L264.038849,1264.52268 L264.038849,1266.2005 C264.035556,1266.42497 264.12283,1266.64126 264.280913,1266.80183 C264.440643,1266.96076 264.656356,1267.05088 264.881963,1267.05088 C265.10757,1267.05088 265.323287,1266.96076 265.483013,1266.80183 C265.641095,1266.64125 265.72837,1266.42497 265.725077,1266.2005 L265.725077,1264.52268 L269.519054,1264.52268 C270.001521,1264.52268 270.362159,1264.88151 270.362159,1265.36159 L270.362159,1288.01212 C270.362159,1288.49218 270.001534,1288.85103 269.519054,1288.85103 L237.481031,1288.85103 C236.998563,1288.85103 236.637925,1288.49219 236.637925,1288.01212 L236.637925,1265.36159 C236.637925,1264.88152 236.998551,1264.52268 237.481031,1264.52268 L241.275007,1264.52268 L241.275007,1266.2005 C241.271715,1266.42497 241.358989,1266.64126 241.517071,1266.80183 C241.676802,1266.96076 241.892515,1267.05088 242.118121,1267.05088 C242.343728,1267.05088 242.559445,1266.96076 242.719172,1266.80183 C242.877254,1266.64125 242.964528,1266.42497 242.961236,1266.2005 L242.961236,1260.32814 C242.966176,1260.08728 242.867373,1259.85461 242.687884,1259.69078 C242.508395,1259.52856 242.267979,1259.44992 242.025919,1259.47613 L242.025835,1259.47613 Z M260.574164,1267.02631 C260.230004,1267.05744 259.938547,1267.29338 259.841379,1267.62273 C259.742575,1267.95207 259.854552,1268.30762 260.126256,1268.52061 L261.035208,1269.26775 C251.517386,1270.3082 244.858114,1276.50837 242.974194,1285.31187 C242.875391,1285.76736 243.168505,1286.2163 243.626294,1286.31462 C244.084084,1286.41294 244.535247,1286.12128 244.634059,1285.66577 C246.344974,1277.67013 252.060557,1272.14969 260.613444,1271.01087 L260.126045,1271.41722 C259.765419,1271.71379 259.716017,1272.24468 260.014072,1272.60348 C260.312127,1272.96228 260.845669,1273.01146 261.206266,1272.71489 L263.735583,1270.61762 C263.931538,1270.45869 264.043515,1270.21947 264.043515,1269.96877 C264.043515,1269.71807 263.931542,1269.47885 263.735583,1269.31991 L261.206266,1267.22264 C261.031718,1267.07354 260.802827,1267.00308 260.573936,1267.02602 L260.574164,1267.02631 Z M245.912132,1267.03942 C244.291766,1267.03942 242.961261,1268.3633 242.961261,1269.9756 C242.961261,1271.58789 244.291766,1272.91178 245.912132,1272.91178 C247.532497,1272.91178 248.863002,1271.58789 248.863002,1269.9756 C248.863002,1268.3633 247.532497,1267.03942 245.912132,1267.03942 Z M245.912132,1268.71723 C246.620214,1268.71723 247.17679,1269.27104 247.17679,1269.9756 C247.17679,1270.68015 246.620214,1271.23396 245.912132,1271.23396 C245.204049,1271.23396 244.647473,1270.68015 244.647473,1269.9756 C244.647473,1269.27104 245.204049,1268.71723 245.912132,1268.71723 Z M259.401825,1274.17014 C257.78146,1274.17014 256.450955,1275.49402 256.450955,1277.10632 C256.450955,1278.71862 257.78146,1280.0425 259.401825,1280.0425 C261.022191,1280.0425 262.352696,1278.71862 262.352696,1277.10632 C262.352696,1275.49402 261.022191,1274.17014 259.401825,1274.17014 Z M259.401825,1275.84796 C260.109908,1275.84796 260.666484,1276.40176 260.666484,1277.10632 C260.666484,1277.81088 260.109908,1278.36468 259.401825,1278.36468 C258.693743,1278.36468 258.137167,1277.81088 258.137167,1277.10632 C258.137167,1276.40176 258.693743,1275.84796 259.401825,1275.84796 Z M249.192235,1280.44895 C248.864545,1280.48008 248.584608,1280.69964 248.477576,1281.0093 C248.368896,1281.32061 248.452877,1281.6647 248.691645,1281.89082 L250.206622,1283.39826 L248.691645,1284.89256 C248.526978,1285.04822 248.433115,1285.26286 248.429823,1285.48735 C248.42653,1285.71346 248.513804,1285.92975 248.673531,1286.09032 C248.833261,1286.25089 249.050623,1286.34101 249.276225,1286.33937 C249.503467,1286.33937 249.719193,1286.24761 249.877275,1286.0854 L251.392252,1284.57796 L252.907229,1286.0854 C253.065311,1286.24761 253.281029,1286.33937 253.508279,1286.33937 C253.733878,1286.34101 253.951247,1286.25089 254.110974,1286.09032 C254.270704,1285.92974 254.357978,1285.71346 254.354682,1285.48735 C254.351389,1285.26288 254.257526,1285.04822 254.092859,1284.89256 L252.577882,1283.39826 L254.092859,1281.89082 C254.361271,1281.64013 254.435371,1281.24524 254.275641,1280.91429 C254.11591,1280.58495 253.758564,1280.39652 253.394679,1280.44895 C253.208602,1280.47517 253.037346,1280.56365 252.90728,1280.698 L251.392303,1282.20544 L249.877326,1280.698 C249.699481,1280.51613 249.447553,1280.42437 249.192302,1280.44895 L249.192235,1280.44895 Z" id="Page-1"></path>
        </g>
    </g>
</svg>