<?xml version="1.0" encoding="UTF-8"?>
<svg width="24px" height="32px" viewBox="0 0 24 32" version="1.1" xmlns="http://www.w3.org/2000/svg" xmlns:xlink="http://www.w3.org/1999/xlink">
    <!-- Generator: Sketch 45.2 (43514) - http://www.bohemiancoding.com/sketch -->
    <title>Group 2</title>
    <desc>Created with Sketch.</desc>
    <defs></defs>
    <g id="Desktop" stroke="none" stroke-width="1" fill="none" fill-rule="evenodd">
        <g id="Partnership" transform="translate(-581.000000, -1259.000000)" fill="#FE3939">
            <g id="Group-2" transform="translate(581.000000, 1259.000000)">
                <path d="M22.7164495,31.552562 L6.72557873,31.552562 C6.03533701,31.552562 5.47450342,30.9872346 5.47450342,30.2914621 L5.47450342,7.19279695 C5.47450342,6.49702444 6.03533701,5.93169699 6.72557873,5.93169699 L22.7164495,5.93169699 C23.4066912,5.93169699 23.9675248,6.49702444 23.9675248,7.19279695 L23.9675248,30.2914621 C23.9675248,30.9872346 23.4066912,31.552562 22.7164495,31.552562 Z M7.97645916,29.0303949 L21.4652442,29.0303949 L21.4652442,8.45386416 L7.97645916,8.45386416 L7.97645916,29.0303949 Z" id="Fill-1"></path>
                <path d="M4.15105829,26.0682375 L1.28478485,26.0682375 C0.594543123,26.0682375 0.0337095376,25.5029101 0.0337095376,24.8071376 L0.0324394929,1.70847245 C0.0324394929,1.01269993 0.593273078,0.44737249 1.28351481,0.44737249 L17.6943773,0.44737249 C18.3858859,0.44737249 18.9454526,1.01269993 18.9454526,1.70847245 L18.9454526,4.59771282 L16.4433345,4.59899304 L16.4433345,2.96954293 L2.53455764,2.96954293 L2.53455764,23.5460736 L4.15105504,23.5460736 L4.15105829,26.0682375 Z" id="Fill-2"></path>
            </g>
        </g>
    </g>
</svg>