<?xml version="1.0" encoding="UTF-8"?>
<svg width="38px" height="28px" viewBox="0 0 38 28" version="1.1" xmlns="http://www.w3.org/2000/svg" xmlns:xlink="http://www.w3.org/1999/xlink">
    <!-- Generator: Sketch 45.2 (43514) - http://www.bohemiancoding.com/sketch -->
    <title>Page 1</title>
    <desc>Created with Sketch.</desc>
    <defs></defs>
    <g id="Desktop" stroke="none" stroke-width="1" fill="none" fill-rule="evenodd">
        <g id="Partnership" transform="translate(-405.000000, -1263.000000)" fill="#FE3939">
            <path d="M440.862562,1263 L407.544724,1263 C406.425386,1263 405.55617,1263.86922 405.55617,1264.98855 L405.55617,1288.98272 C405.55617,1290.10206 406.425386,1290.97127 407.544724,1290.97127 L440.862562,1290.97127 C441.9819,1290.97127 442.851115,1290.10206 442.851115,1288.98272 L442.851115,1264.98855 C442.851115,1263.86922 441.9819,1263 440.862562,1263 Z M440.551773,1265.29934 L440.551773,1271.39131 L407.918914,1271.39131 L407.918914,1265.36249 L440.551773,1265.36249 L440.551773,1265.29934 Z M407.918914,1288.67193 L407.918914,1273.75405 L440.551773,1273.75405 L440.551773,1288.67193 L407.918914,1288.67193 Z M410.465955,1268.53155 C410.465955,1267.78615 411.087533,1267.16457 411.83293,1267.16457 C412.578327,1267.16457 413.199905,1267.78615 413.199905,1268.53155 C413.199905,1269.27695 412.578327,1269.89852 411.83293,1269.89852 C411.087533,1269.90095 410.465955,1269.27938 410.465955,1268.53155 Z M414.632456,1268.53155 C414.632456,1267.78615 415.254035,1267.16457 415.999431,1267.16457 C416.744828,1267.16457 417.366406,1267.78615 417.366406,1268.53155 C417.366406,1269.27695 416.744828,1269.89852 415.999431,1269.89852 C415.254035,1269.90095 414.632456,1269.27938 414.632456,1268.53155 Z M418.857262,1268.53155 C418.857262,1267.78615 419.47884,1267.16457 420.224237,1267.16457 C420.969633,1267.16457 421.591212,1267.78615 421.591212,1268.53155 C421.591212,1269.27695 420.969633,1269.89852 420.224237,1269.89852 C419.47884,1269.90095 418.857262,1269.27938 418.857262,1268.53155 Z" id="Page-1"></path>
        </g>
    </g>
</svg>