<?xml version="1.0" encoding="UTF-8"?>
<svg width="138px" height="23px" viewBox="0 0 138 23" version="1.1" xmlns="http://www.w3.org/2000/svg" xmlns:xlink="http://www.w3.org/1999/xlink">
    <!-- Generator: Sketch 45.2 (43514) - http://www.bohemiancoding.com/sketch -->
    <title>Group 6</title>
    <desc>Created with Sketch.</desc>
    <defs></defs>
    <g id="Desktop" stroke="none" stroke-width="1" fill="none" fill-rule="evenodd">
        <g id="Homepage" transform="translate(-70.000000, -58.000000)" fill="#FFFFFF">
            <g id="Group-6" transform="translate(70.000000, 58.000000)">
                <polygon id="Fill-1" points="0 1.14512137 0 21.9980891 11.4969069 21.9980891 11.4969069 17.3202973 5.32634504 17.3202973 5.32634504 1.14512137"></polygon>
                <path d="M22.0237519,1.14512137 L13.7667479,21.9980891 L19.5435964,21.9980891 L20.5018709,18.9824835 L27.8001232,18.9824835 L28.7865541,21.9980891 L34.6192384,21.9980891 L26.6170743,1.14512137 L22.0237519,1.14512137 Z M24.0806059,7.48605378 L26.4195018,14.7556724 L21.8261794,14.7556724 L24.0806059,7.48605378 Z" id="Fill-2"></path>
                <path d="M37.4649985,1.14507365 L44.2845908,1.14507365 C47.5536047,1.14507365 49.5823022,1.73683674 50.7376719,2.63879823 C52.4848047,3.99126322 53.2731858,6.04859442 53.2731858,8.33117737 C53.2731858,9.93705059 52.8231596,11.1768897 52.2309192,12.1070077 C51.5265303,13.2055872 50.5119429,13.9104534 49.525512,14.3328004 L53.8372697,21.9980414 L48.3419858,21.9980414 L42.9034921,11.9380688 L43.7772972,11.9380688 C45.1297622,11.9380688 46.2851319,11.8249657 46.9895208,11.3744622 C47.6375969,10.951638 48.173047,9.96520706 48.173047,8.81031458 C48.173047,7.71125781 47.6375969,6.83745279 46.9332079,6.38694928 C46.3414448,6.01996072 45.4957963,5.82334266 44.763728,5.82334266 L42.7908663,5.82334266 L42.7908663,21.9980414 L37.4649985,21.9980414 L37.4649985,1.14507365 Z" id="Fill-3"></path>
                <path d="M60.8540528,11.5432102 C60.8540528,14.7272774 63.0240099,17.7147265 66.6027449,17.7147265 C70.3785752,17.7147265 72.2106546,14.2772511 72.2106546,11.6000003 C72.2106546,8.89411587 70.3785752,5.42848397 66.5459547,5.42848397 C62.8550711,5.42848397 60.8540528,8.58487193 60.8540528,11.5155309 L60.8540528,11.5432102 Z M55.528185,11.7970956 C55.528185,4.97798045 60.7695834,0.750692186 66.5182755,0.750692186 C72.9432001,0.750692186 77.5360452,5.76683883 77.5360452,11.5713666 C77.5360452,17.3763716 72.9713565,22.3920411 66.490119,22.3920411 C59.9244121,22.3920411 55.528185,17.1797536 55.528185,11.8247748 L55.528185,11.7970956 Z" id="Fill-5"></path>
                <path d="M101.797807,14.192209 C100.586124,19.1238862 96.3030003,22.3924228 91.2591744,22.3924228 C84.7211467,22.3924228 80.2690839,17.1796581 80.2690839,11.5431147 C80.2690839,6.21772413 84.3832691,0.750596741 91.2028615,0.750596741 C97.7404119,0.750596741 101.2342,5.79489985 101.797807,9.06343647 L96.2190081,9.06343647 C95.6267678,7.51339896 94.0485738,5.42838852 91.174705,5.42838852 C87.59597,5.42838852 85.5949518,8.55662002 85.5949518,11.5154355 C85.5949518,14.6713462 87.7367524,17.7146311 91.2028615,17.7146311 C94.5281883,17.7146311 95.8806533,14.9252317 96.2190081,14.192209 L101.797807,14.192209 Z" id="Fill-7"></path>
                <polygon id="Fill-10" points="105.263343 21.9979459 105.263343 1.14497821 110.589688 1.14497821 110.589688 8.97915795 117.408804 8.97915795 117.408804 1.14497821 122.734194 1.14497821 122.734194 21.9979459 117.408804 21.9979459 117.408804 13.6564725 110.589688 13.6564725 110.589688 21.9979459"></polygon>
                <polygon id="Fill-12" points="126.100372 1.14507365 137.907477 1.14507365 137.907477 5.82334266 131.42624 5.82334266 131.42624 9.06372281 137.710382 9.06372281 137.710382 13.7419918 131.42624 13.7419918 131.42624 17.3202496 137.907477 17.3202496 137.907477 21.9980414 126.100372 21.9980414"></polygon>
            </g>
        </g>
    </g>
</svg>